{"glyphs":{"0":{"ha":910,"x_min":119,"x_max":792,"o":"m 119 225 l 119 792 q 187 958 119 900 q 358 1017 254 1017 l 558 1017 q 735 954 678 1017 q 792 792 792 892 l 792 225 q 558 0 792 0 l 358 0 q 187 54 254 0 q 119 225 119 108 m 176 225 q 226 99 176 140 q 358 57 275 57 l 558 57 q 735 225 735 57 l 735 792 q 558 960 735 960 l 358 960 q 224 915 272 960 q 176 792 176 869 l 176 225 z "},"1":{"ha":494,"x_min":68,"x_max":358,"o":"m 358 1017 l 358 0 l 301 0 l 301 953 l 68 861 l 68 899 l 301 1017 l 358 1017 z "},"2":{"ha":829,"x_min":68,"x_max":744,"o":"m 68 972 l 68 1013 q 463 1031 211 1031 q 676 950 607 1031 q 744 739 744 869 q 692 574 744 667 q 572 405 640 482 q 414 247 503 328 q 182 57 283 131 l 744 57 l 744 0 l 78 0 l 78 53 q 686 742 686 513 q 461 972 686 972 l 68 972 z "},"3":{"ha":829,"x_min":51,"x_max":703,"o":"m 51 963 l 51 997 q 368 1021 140 1021 q 465 1019 414 1021 q 642 954 582 1018 q 703 790 703 890 l 703 694 q 658 563 703 608 q 563 507 613 518 q 658 440 614 489 q 703 306 703 392 l 703 224 q 456 -10 703 -10 q 60 14 142 -10 l 61 49 l 451 49 q 590 86 538 49 q 643 224 643 124 l 643 306 q 585 433 643 393 q 456 476 528 474 l 146 486 l 146 526 l 456 536 q 592 578 539 539 q 646 694 646 618 l 646 790 q 593 919 646 876 q 460 963 540 963 l 51 963 z "},"4":{"ha":811,"x_min":35,"x_max":778,"o":"m 596 342 l 596 656 l 622 760 l 653 760 l 653 342 l 778 342 l 778 301 l 653 283 l 653 3 l 596 3 l 596 283 l 61 283 l 35 324 l 467 1017 l 533 1017 l 115 342 l 596 342 z "},"5":{"ha":879,"x_min":131,"x_max":779,"o":"m 131 54 l 553 54 q 675 102 628 54 q 722 233 722 150 l 722 372 q 551 549 722 549 l 339 549 q 233 505 281 549 q 185 399 185 461 l 132 399 l 163 1017 l 750 1017 l 750 960 l 215 960 l 194 531 q 250 579 210 554 q 343 606 290 604 l 553 606 q 779 375 779 606 l 779 231 q 757 115 779 164 q 697 42 735 65 q 553 -6 628 -6 q 131 15 269 -6 l 131 54 z "},"6":{"ha":876,"x_min":111,"x_max":775,"o":"m 111 505 q 111 645 111 505 q 179 906 111 786 q 350 1025 247 1025 q 742 1008 607 1025 l 742 968 l 360 968 q 264 925 304 968 q 204 811 224 882 q 168 553 168 682 q 551 574 346 574 q 728 520 681 574 q 775 369 775 467 l 775 206 q 551 -1 775 -1 l 372 -1 q 267 23 313 -1 q 186 106 222 47 q 111 505 111 224 m 168 515 q 372 56 168 56 l 551 56 q 719 207 719 56 l 719 369 q 676 485 719 456 q 551 515 632 515 l 168 515 z "},"7":{"ha":747,"x_min":51,"x_max":696,"o":"m 51 960 l 51 1017 l 669 1017 l 696 972 l 353 0 l 286 0 l 626 960 l 51 960 z "},"8":{"ha":899,"x_min":128,"x_max":772,"o":"m 128 214 l 128 351 q 169 461 128 422 q 260 506 211 500 q 128 693 128 533 l 128 783 q 192 969 128 915 q 372 1024 256 1024 l 547 1024 q 717 967 661 1024 q 772 783 772 910 l 772 693 q 719 564 772 617 q 653 529 692 535 q 772 350 772 499 l 772 214 q 750 105 772 150 q 692 39 728 60 q 546 0 625 0 l 372 0 q 256 17 304 0 q 183 58 207 35 q 144 114 158 81 q 128 214 128 160 m 185 210 q 372 57 185 57 l 546 57 q 664 94 613 57 q 715 210 715 132 l 715 356 q 550 492 715 492 l 357 492 q 240 458 296 492 q 185 356 185 425 l 185 210 m 185 686 q 357 547 185 547 l 550 547 q 675 590 635 547 q 715 686 715 632 l 715 781 q 674 924 715 881 q 547 967 633 967 l 372 967 q 228 924 272 967 q 185 781 185 882 l 185 686 z "},"9":{"ha":876,"x_min":103,"x_max":767,"o":"m 103 650 l 103 814 q 326 1021 103 1021 l 506 1021 q 610 997 565 1021 q 692 914 656 972 q 767 515 767 796 q 699 114 767 233 q 528 -6 631 -6 q 136 11 242 -6 l 136 51 l 519 51 q 615 94 575 51 q 675 207 656 138 q 710 465 710 338 q 326 446 544 446 q 150 499 197 446 q 103 650 103 553 m 158 650 q 202 534 158 564 q 326 504 246 504 l 710 504 q 506 964 710 964 l 326 964 q 158 813 158 964 l 158 650 z "},"\u0000":{"ha":1089,"x_min":157,"x_max":932,"o":"m 913 703 l 563 369 l 913 35 l 913 703 m 194 18 l 899 18 l 547 356 l 194 18 m 176 31 l 532 369 l 176 704 l 176 31 m 900 719 l 190 719 l 547 383 l 900 719 m 157 0 l 157 738 l 932 738 l 932 0 l 157 0 z "},"\r":{"ha":1304,"x_min":0,"x_max":0,"o":""}," ":{"ha":374,"x_min":0,"x_max":0,"o":""},"!":{"ha":365,"x_min":140,"x_max":221,"o":"m 140 22 l 140 106 q 163 128 140 128 l 199 128 q 221 106 221 128 l 221 22 q 199 0 221 0 l 163 0 q 140 22 140 0 m 149 1015 l 211 1015 l 203 272 l 157 272 l 149 1015 z "},"\"":{"ha":419,"x_min":103,"x_max":317,"o":"m 103 1017 l 161 1017 l 161 924 l 151 738 l 115 738 l 103 924 l 103 1017 m 258 1017 l 317 1017 l 317 924 l 307 738 l 271 738 l 258 924 l 258 1017 z "},"#":{"ha":924,"x_min":35,"x_max":892,"o":"m 35 339 l 40 374 l 279 374 l 321 640 l 82 640 l 89 675 l 326 675 l 381 1017 l 417 1017 l 361 675 l 611 675 l 664 1017 l 700 1017 l 646 675 l 892 675 l 886 640 l 639 640 l 597 372 l 843 372 l 838 338 l 592 338 l 539 0 l 503 0 l 557 338 l 307 339 l 254 0 l 219 0 l 272 339 l 35 339 m 314 374 l 563 372 l 604 640 l 356 640 l 314 374 z "},"$":{"ha":807,"x_min":94,"x_max":714,"o":"m 94 686 l 94 778 q 165 974 96 922 q 361 1025 235 1025 q 375 1025 368 1025 l 375 1144 l 418 1144 l 418 1022 q 672 996 513 1015 l 672 957 l 364 968 q 344 968 354 968 q 202 929 253 968 q 151 778 151 890 l 151 686 q 199 562 151 596 q 335 528 246 528 l 492 528 q 667 469 621 528 q 714 311 714 411 l 714 217 q 621 25 714 72 q 438 -11 549 -11 q 418 -11 428 -11 l 418 -124 l 375 -124 l 375 -8 q 121 14 171 6 l 121 54 q 440 46 240 46 q 598 82 539 46 q 657 217 657 118 l 657 311 q 619 431 657 392 q 492 469 581 469 l 336 469 q 136 540 186 469 q 94 686 94 599 z "},"%":{"ha":1325,"x_min":72,"x_max":1254,"o":"m 72 658 l 72 843 q 111 976 72 935 q 251 1017 150 1017 l 392 1017 q 529 976 490 1017 q 568 843 568 935 l 568 658 q 529 526 568 567 q 389 485 490 485 l 249 485 q 111 526 150 485 q 72 658 72 567 m 117 658 q 147 557 117 585 q 249 529 176 529 l 389 529 q 494 556 465 529 q 524 658 524 583 l 524 843 q 495 944 524 915 q 392 972 467 972 l 251 972 q 146 946 175 972 q 117 843 117 919 l 117 658 m 329 0 l 938 1017 l 990 1017 l 382 0 l 329 0 m 758 178 l 758 363 q 797 495 758 454 q 938 536 836 536 l 1078 536 q 1215 495 1176 536 q 1254 363 1254 454 l 1254 178 q 1215 45 1254 86 q 1075 4 1176 4 l 935 4 q 797 45 836 4 q 758 178 758 86 m 803 178 q 833 76 803 104 q 935 49 863 49 l 1075 49 q 1181 76 1151 49 q 1210 178 1210 103 l 1210 363 q 1181 463 1210 435 q 1078 492 1153 492 l 938 492 q 832 465 861 492 q 803 363 803 439 l 803 178 z "},"&":{"ha":899,"x_min":57,"x_max":847,"o":"m 58 288 q 171 508 58 411 l 290 610 l 203 728 q 156 847 156 793 q 200 957 156 914 q 298 1009 244 1000 q 439 1018 351 1018 q 669 999 526 1018 l 669 963 l 388 963 q 274 939 321 963 q 217 867 228 915 q 214 850 214 858 q 258 747 214 807 l 633 238 l 829 431 l 847 413 l 761 282 l 669 193 l 811 0 l 742 0 l 628 154 l 528 61 q 358 -7 458 -7 q 121 114 213 -7 q 58 288 58 201 m 357 50 q 485 100 426 50 l 592 200 l 322 561 l 214 471 q 113 288 113 388 q 168 147 113 215 q 357 50 243 50 z "},"'":{"ha":190,"x_min":67,"x_max":125,"o":"m 67 1017 l 125 1017 l 125 924 l 115 738 l 78 738 l 67 924 l 67 1017 z "},"(":{"ha":446,"x_min":128,"x_max":413,"o":"m 204 1 q 190 42 204 1 q 151 207 175 83 q 128 445 128 331 q 151 675 128 560 q 206 879 174 790 q 325 1156 276 1069 l 349 1194 l 413 1194 q 338 1052 381 1144 q 264 876 294 960 q 209 676 233 793 q 185 447 185 558 q 208 217 185 336 q 265 10 232 97 q 389 -256 335 -172 l 413 -292 l 349 -292 l 325 -256 q 272 -157 310 -233 q 204 1 233 -81 z "},")":{"ha":446,"x_min":35,"x_max":318,"o":"m 183 11 q 198 52 183 11 q 237 215 213 93 q 261 447 261 336 q 238 674 261 558 q 181 878 214 789 q 58 1156 108 1072 l 35 1194 l 97 1194 q 121 1153 106 1179 q 174 1044 136 1126 q 242 878 213 961 q 294 677 271 794 q 318 445 318 560 q 295 208 318 331 q 240 0 272 86 q 119 -258 175 -176 l 97 -292 l 35 -292 q 110 -158 67 -246 q 183 11 153 -71 z "},"*":{"ha":638,"x_min":86,"x_max":554,"o":"m 86 810 l 86 842 l 282 858 l 285 803 l 86 810 m 192 571 l 233 757 l 290 746 l 221 561 l 192 571 m 272 1001 l 303 1013 l 399 844 l 344 819 l 272 1001 m 317 679 l 347 729 l 508 610 l 490 585 l 317 679 m 378 775 l 538 888 l 554 860 l 417 732 l 378 775 z "},"+":{"ha":721,"x_min":86,"x_max":636,"o":"m 86 467 l 86 522 l 331 522 l 331 769 l 388 769 l 388 522 l 636 522 l 636 467 l 388 467 l 388 219 l 331 219 l 331 467 l 86 467 z "},",":{"ha":283,"x_min":103,"x_max":182,"o":"m 103 24 l 103 106 q 126 131 103 131 l 160 131 q 182 106 182 131 l 182 -39 q 165 -91 182 -75 q 131 -107 147 -107 l 125 -106 l 107 -104 l 107 -83 q 138 -56 138 -83 l 138 0 l 126 0 q 103 24 103 0 z "},"-":{"ha":476,"x_min":35,"x_max":443,"o":"m 35 375 l 35 431 l 443 431 l 443 375 l 35 375 z "},".":{"ha":286,"x_min":103,"x_max":183,"o":"m 103 22 l 103 106 q 126 128 103 128 l 161 128 q 183 106 183 128 l 183 22 q 161 0 183 0 l 126 0 q 110 6 117 0 q 103 22 103 13 z "},"/":{"ha":513,"x_min":35,"x_max":479,"o":"m 35 -100 l 425 1069 l 479 1069 l 89 -100 l 35 -100 z "},":":{"ha":290,"x_min":103,"x_max":183,"o":"m 103 22 l 103 106 q 126 128 103 128 l 161 128 q 183 106 183 128 l 183 22 q 161 0 183 0 l 126 0 q 110 6 117 0 q 103 22 103 13 m 103 629 l 103 714 q 126 738 103 738 l 161 738 q 183 714 183 738 l 183 629 q 161 608 183 608 l 126 608 q 103 629 103 608 z "},";":{"ha":286,"x_min":103,"x_max":185,"o":"m 103 24 l 103 106 q 126 131 103 131 l 160 131 q 182 106 182 131 l 182 -39 q 165 -91 182 -75 q 131 -107 147 -107 l 125 -106 l 107 -104 l 107 -83 q 138 -56 138 -83 l 138 0 l 126 0 q 110 7 117 0 q 103 24 103 14 m 104 631 l 104 715 q 126 738 104 738 l 161 738 q 185 715 185 738 l 185 631 q 161 610 185 610 l 126 610 q 104 631 104 610 z "},"<":{"ha":664,"x_min":86,"x_max":578,"o":"m 86 464 l 86 521 l 578 774 l 578 711 l 160 493 l 578 260 l 578 196 l 86 464 z "},"=":{"ha":661,"x_min":35,"x_max":628,"o":"m 35 294 l 35 351 l 628 351 l 628 294 l 35 294 m 35 631 l 35 688 l 628 688 l 628 631 l 35 631 z "},">":{"ha":664,"x_min":86,"x_max":578,"o":"m 86 196 l 86 260 l 504 493 l 86 711 l 86 774 l 578 521 l 578 464 l 86 196 z "},"?":{"ha":743,"x_min":35,"x_max":675,"o":"m 35 969 l 35 1008 q 282 1026 193 1026 q 386 1026 371 1026 q 404 1026 401 1026 q 614 960 553 1026 q 675 769 675 894 l 675 629 q 586 442 675 492 q 414 407 524 407 q 315 413 369 407 l 315 271 l 256 271 l 256 460 l 421 460 q 618 629 618 463 l 618 769 q 565 924 618 879 q 392 969 513 969 l 35 969 m 246 22 l 246 106 q 268 128 246 128 l 304 128 q 325 106 325 128 l 325 22 q 304 0 325 0 l 268 0 q 246 22 246 0 z "},"@":{"ha":1192,"x_min":111,"x_max":1047,"o":"m 111 0 l 111 483 q 163 646 111 588 q 232 691 185 671 q 344 711 279 711 l 629 711 q 779 666 717 711 q 842 517 842 621 l 842 0 l 801 0 l 788 89 l 769 78 q 493 -12 606 -12 q 369 33 419 -12 q 319 150 318 79 l 319 224 q 367 358 319 308 q 499 408 414 408 l 786 408 q 786 488 786 461 q 786 514 786 514 q 625 654 786 654 l 344 654 q 168 483 168 654 l 168 0 q 220 -146 168 -103 q 344 -189 272 -189 l 801 -189 q 945 -142 900 -189 q 990 0 990 -96 l 990 711 q 941 860 990 806 q 801 915 892 915 l 254 915 l 254 950 q 600 972 361 972 q 654 972 626 972 l 801 972 q 981 903 915 969 q 1047 711 1047 838 l 1047 0 q 801 -247 1047 -247 l 344 -247 q 174 -183 236 -247 q 111 0 111 -119 m 510 44 q 786 128 611 44 l 786 371 l 506 354 q 376 221 376 344 q 375 190 375 219 q 376 158 375 160 q 413 76 376 108 q 507 44 449 44 q 510 44 508 44 z "},"A":{"ha":919,"x_min":78,"x_max":883,"o":"m 78 0 l 456 1017 l 521 1017 l 883 0 l 818 0 l 704 328 l 261 328 l 144 0 l 78 0 m 282 385 l 683 385 l 488 942 l 282 385 z "},"B":{"ha":829,"x_min":136,"x_max":771,"o":"m 136 0 l 136 1017 l 501 1017 q 704 946 643 1017 q 765 772 765 875 q 720 607 765 669 q 604 532 675 544 q 717 454 663 518 q 771 283 771 390 q 717 89 771 167 q 501 0 654 0 l 136 0 m 194 58 l 501 58 q 714 286 714 58 q 654 440 714 378 q 506 503 594 503 q 501 503 503 503 l 194 503 l 194 58 m 194 561 l 501 561 q 650 614 594 561 q 708 769 708 667 q 501 960 708 960 l 194 960 l 194 561 z "},"C":{"ha":794,"x_min":94,"x_max":743,"o":"m 94 511 q 192 939 94 831 q 432 1028 272 1028 q 743 994 564 1028 l 743 953 q 703 956 721 954 q 660 960 685 958 q 608 963 636 961 q 550 967 579 965 q 415 971 501 971 q 271 933 329 971 q 151 508 151 854 q 433 49 151 49 q 697 58 563 49 l 743 63 l 743 22 q 432 -8 579 -8 q 94 511 94 -8 z "},"D":{"ha":925,"x_min":136,"x_max":857,"o":"m 136 0 l 136 1017 l 497 1017 q 655 983 588 1017 q 760 897 722 949 q 819 774 797 846 q 857 535 857 657 q 837 327 857 413 q 776 167 817 242 q 663 46 735 92 q 497 0 590 0 l 136 0 m 193 58 l 497 58 q 669 128 599 58 q 800 506 800 256 q 497 960 800 960 l 193 960 l 193 58 z "},"E":{"ha":800,"x_min":136,"x_max":733,"o":"m 136 171 l 136 836 q 185 974 136 932 q 303 1017 233 1017 q 311 1017 307 1017 l 733 1000 l 733 960 l 311 960 q 193 836 193 960 l 193 533 l 678 524 l 678 483 l 193 474 l 193 171 q 236 69 193 92 q 325 53 271 53 l 733 53 l 733 13 l 325 -4 q 299 -4 317 -4 q 253 1 281 -4 q 197 22 226 6 q 136 171 136 57 z "},"F":{"ha":800,"x_min":136,"x_max":733,"o":"m 136 0 l 136 836 q 185 974 136 932 q 303 1017 233 1017 q 311 1017 307 1017 l 733 1000 l 733 960 l 311 960 q 193 836 193 960 l 193 533 l 678 524 l 678 483 l 193 474 l 193 0 l 136 0 z "},"G":{"ha":857,"x_min":94,"x_max":775,"o":"m 123 206 q 114 243 123 206 q 99 347 104 279 q 94 512 94 415 q 100 676 94 608 q 124 814 106 743 q 176 928 143 885 q 266 1000 208 972 q 391 1028 324 1028 q 569 1016 458 1028 q 753 990 679 1004 l 753 944 q 727 947 751 944 q 665 954 703 950 q 583 961 626 958 q 405 971 469 971 q 295 951 340 971 q 222 894 250 931 q 178 800 194 858 q 151 511 151 699 q 206 153 151 256 q 411 50 261 51 q 535 67 458 50 q 665 100 613 83 l 718 117 l 718 482 l 443 482 l 443 518 q 681 540 524 540 q 775 536 725 540 l 775 0 l 736 0 l 721 72 q 584 19 674 46 q 411 -7 494 -7 q 403 -7 407 -7 q 267 20 325 -7 q 175 90 208 47 q 123 206 142 133 z "},"H":{"ha":910,"x_min":136,"x_max":819,"o":"m 136 0 l 136 1017 l 193 1017 l 193 519 l 763 519 l 763 1017 l 819 1017 l 819 0 l 763 0 l 763 464 l 193 464 l 193 0 l 136 0 z "},"I":{"ha":283,"x_min":136,"x_max":193,"o":"m 136 0 l 136 1017 l 193 1017 l 193 0 l 136 0 z "},"J":{"ha":489,"x_min":60,"x_max":399,"o":"m 65 68 q 169 46 139 46 q 226 47 200 46 q 278 65 253 49 q 323 124 304 82 q 342 229 342 165 l 342 1017 l 399 1017 l 399 229 q 326 25 399 76 q 203 -8 279 -8 q 60 29 117 -8 l 65 68 z "},"K":{"ha":822,"x_min":136,"x_max":771,"o":"m 136 0 l 136 1017 l 193 1017 l 193 539 l 372 539 l 701 1017 l 771 1017 l 424 510 l 771 0 l 700 0 l 371 481 l 194 481 l 194 0 l 136 0 z "},"L":{"ha":775,"x_min":136,"x_max":724,"o":"m 136 175 l 136 1017 l 193 1017 l 193 175 q 236 75 193 96 q 325 57 271 57 l 724 57 l 724 0 l 325 0 q 197 28 246 0 q 136 175 136 63 z "},"M":{"ha":1108,"x_min":94,"x_max":1026,"o":"m 94 0 l 190 1017 l 272 1017 l 560 96 l 840 1017 l 922 1017 l 1026 0 l 969 0 l 874 926 l 590 0 l 529 0 l 240 926 l 151 0 l 94 0 z "},"N":{"ha":931,"x_min":136,"x_max":840,"o":"m 136 0 l 136 1017 l 196 1017 l 783 107 l 783 1017 l 840 1017 l 840 0 l 783 0 l 193 910 l 193 0 l 136 0 z "},"O":{"ha":938,"x_min":111,"x_max":869,"o":"m 156 164 q 144 192 156 164 q 122 303 132 219 q 111 515 111 388 q 129 738 111 642 q 176 891 147 835 q 256 977 204 947 q 360 1015 308 1007 q 485 1024 411 1024 q 603 1018 558 1024 q 696 994 649 1013 q 772 941 743 976 q 825 849 800 906 q 869 501 869 743 q 810 129 869 249 q 732 44 782 74 q 628 4 682 14 q 498 -6 574 -6 q 376 0 422 -6 q 283 23 331 6 q 207 74 235 40 q 156 164 179 108 m 192 764 q 185 740 192 764 q 174 651 179 717 q 168 469 168 585 q 184 265 168 353 q 242 128 200 176 q 339 66 283 81 q 490 51 394 51 q 640 67 585 51 q 738 131 696 83 q 796 267 779 178 q 813 494 813 356 q 798 719 813 632 q 761 855 783 806 q 694 929 739 904 q 608 960 650 954 q 506 967 565 967 q 420 965 447 967 q 358 958 393 964 q 301 938 322 951 q 256 903 281 925 q 218 846 232 881 q 192 764 204 811 z "},"P":{"ha":808,"x_min":103,"x_max":742,"o":"m 103 0 l 103 1017 l 497 1017 q 660 969 590 1017 q 742 733 742 911 q 725 593 742 651 q 686 505 708 535 q 626 458 664 475 q 563 439 589 442 q 495 436 536 436 q 310 444 454 436 q 160 456 165 453 l 160 0 l 103 0 m 160 494 l 497 494 q 634 542 585 494 q 683 726 683 590 q 683 733 683 729 q 621 922 683 876 q 497 958 572 958 l 160 958 l 160 494 z "},"Q":{"ha":938,"x_min":111,"x_max":869,"o":"m 154 164 q 142 192 154 164 q 121 303 131 219 q 111 494 111 386 q 120 681 111 603 q 144 813 129 758 q 186 907 160 868 q 240 968 213 946 q 311 1003 268 990 q 478 1024 383 1024 q 624 1015 572 1024 q 726 977 675 1007 q 806 892 778 947 q 869 501 869 767 q 808 129 869 251 q 731 44 781 74 q 626 4 681 14 q 497 -6 572 -6 q 375 0 421 -6 q 282 23 329 6 q 206 74 235 40 q 154 164 178 108 m 197 791 q 191 766 197 791 q 176 669 185 742 q 168 474 168 596 q 183 265 168 353 q 240 128 199 176 q 338 66 282 81 q 479 51 393 51 q 613 61 565 51 q 703 98 661 71 q 767 175 744 125 q 813 501 813 281 q 775 817 813 726 q 731 899 754 868 q 667 944 708 929 q 588 963 625 958 q 495 967 551 967 q 409 965 439 967 q 340 953 379 963 q 279 925 301 943 q 233 874 257 907 q 197 791 208 840 m 747 -172 q 663 -187 707 -187 q 580 -174 619 -187 q 509 -126 540 -160 q 468 -46 478 -93 l 506 -46 q 574 -111 532 -92 q 656 -131 615 -131 q 747 -112 696 -131 l 747 -172 z "},"R":{"ha":806,"x_min":103,"x_max":758,"o":"m 103 0 l 103 1017 l 503 1017 q 693 936 635 1017 q 744 729 744 863 q 644 467 744 524 q 539 439 600 442 l 758 0 l 699 0 l 476 438 q 160 453 169 446 l 160 0 l 103 0 m 160 497 l 503 497 q 572 504 544 497 q 628 533 600 511 q 686 722 686 578 q 636 913 686 867 q 503 958 586 958 l 160 958 l 160 497 z "},"S":{"ha":813,"x_min":111,"x_max":744,"o":"m 111 686 l 111 778 q 181 972 111 918 q 383 1025 251 1025 q 703 996 515 1025 l 703 956 l 382 968 q 363 968 372 968 q 219 929 271 968 q 168 778 168 890 l 168 686 q 213 558 168 589 q 351 528 257 528 l 522 528 q 697 469 649 528 q 744 311 744 411 l 744 217 q 658 28 744 76 q 472 -11 586 -11 q 301 -3 418 -11 q 139 14 185 6 l 139 57 q 387 46 258 46 q 549 52 515 46 q 617 75 583 58 q 688 217 688 111 l 688 311 q 649 431 688 392 q 522 469 611 469 l 354 469 q 150 538 199 469 q 119 604 126 571 q 111 686 111 638 z "},"T":{"ha":826,"x_min":64,"x_max":779,"o":"m 64 960 l 64 1017 l 779 1017 l 779 960 l 446 960 l 446 0 l 389 0 l 389 960 l 64 960 z "},"U":{"ha":944,"x_min":136,"x_max":856,"o":"m 136 444 l 136 1017 l 193 1017 l 193 444 q 213 217 193 301 q 282 99 232 133 q 372 57 332 64 q 499 50 411 50 l 500 50 q 710 106 660 50 q 788 283 772 175 q 797 444 797 353 l 797 1017 l 856 1017 l 856 444 q 800 128 856 225 q 763 72 781 94 q 717 33 746 49 q 667 10 688 18 q 613 -1 647 3 q 532 -7 567 -7 q 474 -7 497 -7 q 430 -6 450 -7 q 373 -2 410 -6 q 317 9 336 1 q 268 33 297 17 q 223 71 239 49 q 188 127 207 93 q 158 206 168 161 q 136 444 136 318 z "},"V":{"ha":919,"x_min":78,"x_max":883,"o":"m 78 1017 l 139 1017 l 472 78 l 821 1017 l 883 1017 l 504 0 l 439 0 l 78 1017 z "},"W":{"ha":1343,"x_min":78,"x_max":1307,"o":"m 78 1017 l 139 1017 l 472 83 l 782 1017 l 846 1017 l 719 631 l 931 81 l 1247 1017 l 1307 1017 l 965 0 l 900 0 l 689 540 l 504 0 l 439 0 l 78 1017 z "},"X":{"ha":799,"x_min":78,"x_max":763,"o":"m 78 1017 l 144 1017 l 418 557 l 696 1017 l 763 1017 l 456 508 l 756 0 l 689 0 l 418 454 l 149 0 l 82 0 l 381 508 l 78 1017 z "},"Y":{"ha":864,"x_min":78,"x_max":828,"o":"m 467 0 l 410 0 l 410 361 l 78 1017 l 140 1017 l 439 431 l 764 1017 l 828 1017 l 467 361 l 467 0 z "},"Z":{"ha":768,"x_min":60,"x_max":717,"o":"m 60 0 l 60 57 l 643 960 l 60 960 l 60 1017 l 717 1017 l 717 960 l 133 57 l 717 57 l 717 0 l 60 0 z "},"[":{"ha":450,"x_min":146,"x_max":418,"o":"m 146 -53 l 146 931 q 176 1081 146 1011 q 235 1145 194 1121 q 335 1169 275 1169 l 418 1169 l 418 1113 l 335 1113 q 238 1067 274 1113 q 203 931 203 1021 l 203 -53 q 235 -185 203 -135 q 335 -235 268 -235 l 418 -235 l 418 -292 l 335 -292 q 235 -267 275 -292 q 176 -203 194 -243 q 146 -53 146 -133 z "},"\\":{"ha":513,"x_min":35,"x_max":479,"o":"m 35 1069 l 89 1069 l 479 -100 l 425 -100 l 35 1069 z "},"]":{"ha":450,"x_min":35,"x_max":307,"o":"m 35 -235 l 118 -235 q 217 -185 185 -235 q 250 -53 250 -135 l 250 931 q 215 1067 250 1021 q 118 1113 179 1113 l 35 1113 l 35 1169 l 118 1169 q 218 1145 178 1169 q 276 1081 258 1121 q 307 931 307 1011 l 307 -53 q 276 -203 307 -133 q 218 -267 258 -243 q 118 -292 178 -292 l 35 -292 l 35 -235 z "},"^":{"ha":557,"x_min":86,"x_max":474,"o":"m 86 738 l 263 918 l 314 918 l 474 738 l 424 738 l 288 876 l 136 738 l 86 738 z "},"_":{"ha":921,"x_min":35,"x_max":888,"o":"m 35 -1 l 35 56 l 888 56 l 888 -1 l 35 -1 z "},"`":{"ha":297,"x_min":35,"x_max":264,"o":"m 35 922 l 103 922 l 264 738 l 219 738 l 35 922 z "},"a":{"ha":721,"x_min":68,"x_max":636,"o":"m 92 708 q 428 751 257 751 q 577 699 518 751 q 636 538 636 646 l 636 0 l 597 0 l 579 89 l 558 79 q 358 6 425 19 q 253 -8 290 -8 q 121 40 174 -8 q 68 175 68 89 l 68 260 q 117 395 68 346 q 253 444 167 444 q 498 444 417 444 q 579 444 579 444 q 581 513 581 490 q 579 538 581 536 q 422 697 579 696 q 411 697 417 697 q 92 671 299 697 l 92 708 m 125 182 q 163 81 125 113 q 251 49 200 50 q 384 68 303 49 q 522 108 465 88 l 579 128 l 579 404 l 253 388 q 125 257 125 382 l 125 182 z "},"b":{"ha":767,"x_min":103,"x_max":682,"o":"m 103 0 l 103 1090 l 157 1090 l 157 693 q 299 733 219 718 q 431 749 379 749 q 682 365 682 749 q 632 117 682 225 q 554 25 606 58 q 434 -8 503 -8 q 278 24 365 -8 q 158 82 190 56 l 139 0 l 103 0 m 431 49 q 571 128 517 49 q 625 378 625 207 q 573 621 625 550 q 431 692 521 692 q 158 651 313 692 l 158 121 q 431 49 311 49 z "},"c":{"ha":694,"x_min":86,"x_max":628,"o":"m 103 175 q 95 214 103 175 q 86 369 86 253 q 103 563 86 486 q 154 678 119 640 q 229 731 189 717 q 359 744 269 744 q 617 708 449 744 l 617 669 q 366 688 451 688 q 251 677 281 688 q 194 633 221 667 q 143 364 143 571 q 167 167 143 238 q 229 73 192 96 q 325 50 267 50 q 581 69 442 50 l 628 75 l 628 33 q 328 -7 493 -6 q 231 7 271 -7 q 156 59 192 21 q 103 175 121 97 z "},"d":{"ha":767,"x_min":86,"x_max":665,"o":"m 86 365 q 338 749 86 749 q 469 733 389 749 q 611 693 549 718 l 611 1090 l 665 1090 l 665 0 l 628 0 l 610 82 q 490 24 578 56 q 334 -8 403 -8 q 214 25 265 -8 q 136 117 163 58 q 86 365 86 225 m 338 692 q 194 622 246 692 q 143 377 143 551 q 197 126 143 203 q 338 49 250 49 q 610 121 457 49 l 610 651 q 338 692 456 692 z "},"e":{"ha":729,"x_min":86,"x_max":661,"o":"m 86 372 q 101 568 86 494 q 155 681 117 642 q 243 731 193 719 q 361 743 293 743 q 460 740 429 743 q 528 729 492 738 q 585 703 564 721 q 625 658 607 686 q 661 482 661 606 q 615 369 661 403 q 472 336 568 336 l 143 336 q 167 153 143 218 q 227 69 190 89 q 328 50 264 50 q 647 74 486 50 l 647 32 q 350 -7 511 -7 q 328 -7 339 -7 q 138 77 189 -6 q 86 372 86 160 m 143 392 l 472 392 q 570 410 536 392 q 604 490 604 428 q 593 592 604 551 q 551 654 582 633 q 484 681 521 675 q 376 686 447 686 q 266 678 306 686 q 195 639 226 669 q 153 551 164 608 q 143 392 143 493 z "},"f":{"ha":540,"x_min":35,"x_max":507,"o":"m 35 681 l 35 721 l 160 738 l 160 875 q 192 1039 160 990 q 303 1092 229 1092 q 507 1071 438 1092 l 507 1035 l 318 1036 q 235 997 254 1036 q 217 875 217 958 l 217 738 l 450 738 l 450 681 l 217 681 l 217 0 l 160 0 l 160 681 l 35 681 z "},"g":{"ha":786,"x_min":76,"x_max":754,"o":"m 100 221 q 188 265 135 261 q 81 478 81 315 q 139 676 81 613 q 319 740 197 740 l 753 740 l 753 701 l 613 683 q 676 565 664 633 q 683 488 683 526 q 678 419 683 449 q 659 355 674 390 q 620 292 644 319 q 553 247 596 265 q 454 229 511 229 l 238 229 q 149 199 174 229 q 136 156 136 183 q 166 112 136 129 q 229 94 196 94 l 518 94 q 662 44 611 94 q 713 -92 713 -7 l 713 -171 q 504 -375 713 -375 l 296 -375 q 106 -278 160 -375 q 78 -161 78 -229 l 78 -35 l 107 93 q 82 158 82 117 q 100 221 82 199 m 232 39 q 135 69 174 39 l 135 -161 q 151 -243 135 -210 q 196 -292 168 -276 q 296 -319 244 -319 l 504 -319 q 657 -171 657 -319 l 657 -94 q 513 39 657 39 l 232 39 m 136 478 q 136 432 136 478 q 181 336 136 386 q 310 286 225 286 l 450 286 q 618 410 585 286 q 628 475 628 440 q 590 631 628 578 q 489 683 553 683 l 310 683 q 171 624 208 683 q 136 478 136 571 z "},"h":{"ha":763,"x_min":103,"x_max":678,"o":"m 103 0 l 103 1089 l 160 1089 l 160 651 q 450 750 317 750 q 617 681 556 750 q 678 514 678 611 l 678 0 l 621 0 l 621 514 q 575 644 621 596 q 449 693 529 693 q 308 674 368 693 q 160 610 247 656 l 160 0 l 103 0 z "},"i":{"ha":249,"x_min":86,"x_max":163,"o":"m 86 861 l 86 944 q 108 967 86 967 l 142 967 q 163 944 163 967 l 163 861 q 142 840 163 840 l 108 840 q 86 861 86 840 m 94 0 l 94 738 l 151 738 l 151 0 l 94 0 z "},"j":{"ha":282,"x_min":103,"x_max":181,"o":"m 103 861 l 103 944 q 125 967 103 967 l 158 967 q 181 944 181 967 l 181 861 q 158 840 181 840 l 125 840 q 103 861 103 840 m 114 -375 l 114 738 l 171 738 l 171 -6 q 171 -49 171 -28 q 147 -375 171 -249 l 114 -375 z "},"k":{"ha":692,"x_min":103,"x_max":658,"o":"m 103 0 l 103 1086 l 160 1086 l 160 453 l 233 453 l 575 738 l 658 738 l 289 422 l 657 0 l 582 0 l 233 394 l 160 394 l 160 0 l 103 0 z "},"l":{"ha":414,"x_min":103,"x_max":381,"o":"m 103 263 l 103 1088 l 160 1088 l 160 263 q 200 92 160 131 q 234 67 219 74 q 310 49 249 61 q 381 38 371 38 l 381 0 l 278 0 q 147 63 190 0 q 103 263 103 125 z "},"m":{"ha":1276,"x_min":103,"x_max":1193,"o":"m 103 0 l 103 738 l 140 738 l 160 650 q 447 749 317 749 q 568 718 515 749 q 647 636 621 688 q 795 715 707 682 q 976 749 883 749 q 1131 681 1068 749 q 1193 513 1193 613 l 1193 0 l 1136 0 l 1136 513 q 1090 640 1136 589 q 965 692 1043 692 q 660 601 815 692 q 675 513 675 567 l 675 0 l 618 0 l 618 513 q 572 640 618 589 q 445 692 525 692 q 306 673 365 692 q 160 610 246 654 l 160 0 l 103 0 z "},"n":{"ha":763,"x_min":103,"x_max":678,"o":"m 103 0 l 103 738 l 140 738 l 160 651 q 450 750 317 750 q 617 681 556 750 q 678 514 678 611 l 678 0 l 621 0 l 621 514 q 574 643 621 593 q 448 693 528 693 q 308 674 368 693 q 160 610 247 656 l 160 0 l 103 0 z "},"o":{"ha":793,"x_min":86,"x_max":708,"o":"m 394 -7 q 305 -7 394 -7 q 151 74 215 -7 q 86 368 86 156 q 154 663 86 581 q 398 744 222 744 q 641 656 574 744 q 708 361 708 568 q 641 74 708 154 q 394 -7 574 -7 m 210 637 q 192 620 210 637 q 158 537 174 604 q 143 363 143 469 q 158 194 143 257 q 209 100 174 131 q 285 60 244 69 q 396 50 326 50 q 508 60 465 50 q 586 103 550 71 q 651 358 651 163 q 586 632 651 569 q 508 676 550 665 q 396 688 465 688 q 286 678 326 688 q 210 637 246 669 z "},"p":{"ha":767,"x_min":103,"x_max":682,"o":"m 103 -374 l 103 738 l 139 738 l 158 656 q 278 714 190 682 q 434 746 365 746 q 554 713 503 746 q 632 622 606 679 q 682 372 682 513 q 431 -11 682 -11 q 300 4 379 -11 q 158 44 221 19 l 158 -374 l 103 -374 m 431 46 q 573 117 521 46 q 625 359 625 188 q 571 610 625 531 q 431 689 517 689 q 158 617 311 689 l 158 86 q 431 46 313 46 z "},"q":{"ha":772,"x_min":86,"x_max":672,"o":"m 86 373 q 86 462 86 373 q 150 649 86 551 q 342 746 214 746 q 672 724 519 746 l 672 -375 l 615 -375 l 615 40 q 474 1 553 15 q 329 -14 394 -14 q 213 15 264 -14 q 133 97 161 43 q 86 373 86 194 m 143 372 q 179 138 143 219 q 338 43 221 43 q 615 83 456 43 l 615 689 l 342 689 q 143 372 143 689 z "},"r":{"ha":589,"x_min":103,"x_max":556,"o":"m 103 0 l 103 738 l 139 738 l 160 644 q 251 694 221 679 q 339 728 281 710 q 463 746 397 746 q 556 735 529 746 l 556 679 q 467 689 507 689 q 406 687 428 689 q 360 679 383 685 q 322 669 336 674 q 281 654 307 665 q 244 639 256 643 q 160 597 171 603 l 160 0 l 103 0 z "},"s":{"ha":700,"x_min":68,"x_max":632,"o":"m 68 501 l 68 565 q 113 699 68 654 q 260 744 157 744 q 594 729 436 744 l 594 689 l 260 689 q 154 660 183 689 q 125 565 125 631 l 125 501 q 161 410 125 426 q 201 398 182 400 q 260 396 219 396 l 451 396 q 583 351 535 396 q 632 229 632 307 l 632 161 q 575 19 632 53 q 465 -7 526 -7 q 272 0 403 -7 q 99 11 140 7 l 99 50 l 451 50 q 544 72 519 50 q 575 161 575 101 l 575 229 q 544 308 575 278 q 451 339 513 339 l 260 339 q 110 369 153 339 q 68 501 68 400 z "},"t":{"ha":499,"x_min":35,"x_max":449,"o":"m 35 682 l 35 724 l 158 739 l 174 944 l 215 944 l 215 739 l 449 739 l 449 682 l 215 682 l 215 263 q 256 92 215 131 q 290 67 275 74 q 365 49 304 61 q 436 38 426 38 l 436 0 l 333 0 q 202 63 246 0 q 158 263 158 125 l 158 682 l 35 682 z "},"u":{"ha":763,"x_min":86,"x_max":661,"o":"m 86 225 l 86 739 l 143 739 l 143 225 q 190 96 143 146 q 317 46 236 46 q 458 65 397 46 q 604 128 518 83 l 604 739 l 661 739 l 661 1 l 624 1 l 604 88 q 314 -11 447 -11 q 147 58 208 -11 q 86 225 86 128 z "},"v":{"ha":729,"x_min":35,"x_max":696,"o":"m 35 738 l 94 738 l 363 82 l 635 738 l 696 738 l 392 0 l 333 0 l 35 738 z "},"w":{"ha":1090,"x_min":33,"x_max":1057,"o":"m 35 738 l 96 738 l 349 79 l 589 738 l 649 738 l 556 475 l 735 79 l 997 738 l 1057 738 l 767 0 l 707 0 l 528 401 l 381 0 l 319 0 l 35 738 z "},"x":{"ha":686,"x_min":40,"x_max":647,"o":"m 40 0 l 307 369 l 40 738 l 114 738 l 343 418 l 574 738 l 647 738 l 379 368 l 643 0 l 574 0 l 343 318 l 114 0 l 40 0 z "},"y":{"ha":746,"x_min":36,"x_max":708,"o":"m 36 738 l 97 738 l 294 161 q 403 58 331 61 l 418 60 l 647 738 l 708 738 l 385 -233 l 307 -375 l 274 -375 l 399 0 q 235 153 281 6 l 36 738 z "},"z":{"ha":650,"x_min":51,"x_max":601,"o":"m 51 681 l 51 738 l 601 738 l 601 681 l 146 58 l 601 58 l 601 1 l 72 1 l 72 58 l 528 681 l 51 681 z "},"{":{"ha":429,"x_min":35,"x_max":396,"o":"m 160 583 l 160 911 q 214 1097 160 1025 q 396 1169 268 1169 l 396 1113 q 262 1067 307 1113 q 217 911 217 1021 l 217 583 q 184 503 217 535 q 103 464 151 472 q 183 424 150 457 q 215 349 215 392 l 215 -53 q 260 -193 215 -151 q 390 -235 304 -235 q 396 -235 393 -235 l 396 -292 q 199 -211 249 -292 q 158 -53 158 -147 l 158 343 q 122 411 158 388 q 44 435 85 435 q 35 435 39 435 l 35 492 q 160 583 160 503 z "},"|":{"ha":347,"x_min":147,"x_max":204,"o":"m 147 -100 l 147 1069 l 204 1069 l 204 -100 l 147 -100 z "},"}":{"ha":429,"x_min":35,"x_max":396,"o":"m 40 -235 q 171 -193 126 -235 q 215 -53 215 -151 l 215 349 q 248 424 215 392 q 328 464 281 457 q 247 503 279 472 q 214 583 214 535 l 214 911 q 169 1067 214 1021 q 35 1113 124 1113 l 35 1169 q 217 1097 163 1169 q 271 911 271 1025 l 271 583 q 396 492 271 503 l 396 435 q 386 435 392 435 q 309 411 346 435 q 272 343 272 388 l 272 -53 q 158 -271 272 -224 q 35 -292 108 -292 l 35 -235 q 40 -235 38 -235 z "},"~":{"ha":640,"x_min":86,"x_max":556,"o":"m 245 879 q 257 879 245 879 q 324 838 268 879 q 399 796 381 796 q 431 799 417 796 q 455 808 444 803 q 480 821 465 813 q 501 835 494 829 q 522 851 507 840 q 539 864 536 861 l 556 838 q 542 825 553 835 q 529 812 532 815 q 517 799 526 808 q 502 788 507 790 q 488 777 497 785 q 472 767 478 769 l 457 758 q 403 747 433 747 q 317 789 372 747 q 240 831 261 831 q 200 824 219 831 q 169 812 181 818 q 134 790 158 806 q 100 768 110 774 l 86 794 q 126 829 100 808 q 158 853 153 850 q 176 864 164 857 q 197 872 189 871 q 245 879 222 879 z "},"¡":{"ha":371,"x_min":142,"x_max":219,"o":"m 142 536 l 142 619 q 164 639 142 639 l 197 639 q 219 618 219 639 l 219 538 q 197 513 219 513 l 164 513 q 142 536 142 513 m 150 -375 l 158 367 l 204 367 l 213 -375 l 150 -375 z "},"¢":{"ha":678,"x_min":68,"x_max":610,"o":"m 115 90 q 105 110 115 90 q 81 201 94 131 q 68 381 68 271 q 86 569 68 490 q 142 685 104 647 q 222 734 181 722 q 296 746 264 746 q 335 746 328 746 l 335 865 l 379 865 l 379 742 q 600 708 499 732 l 600 669 q 349 689 435 689 q 234 678 264 689 q 178 635 204 667 q 125 364 125 574 q 176 108 125 174 q 234 62 203 75 q 317 49 265 49 q 564 67 424 49 l 610 74 l 610 32 q 379 -6 497 -1 l 379 -121 l 335 -121 l 335 -8 q 245 -2 282 -8 q 172 27 208 4 q 115 90 136 50 z "},"£":{"ha":832,"x_min":86,"x_max":747,"o":"m 86 0 l 86 40 l 186 57 l 186 476 l 86 476 l 86 511 l 186 526 l 186 701 q 254 950 186 882 q 347 1003 297 993 q 478 1017 419 1017 q 703 1006 554 1017 l 747 1001 l 747 961 l 506 961 q 347 943 394 961 q 283 897 300 925 q 243 701 243 832 l 243 526 l 636 511 l 636 476 l 243 476 l 243 57 l 744 57 l 744 0 l 86 0 z "},"¤":{"ha":643,"x_min":88,"x_max":554,"o":"m 176 607 q 322 661 239 661 q 467 608 406 661 l 531 671 l 554 643 l 492 582 q 546 438 546 521 q 494 288 546 354 l 554 228 l 526 203 l 469 261 q 321 200 406 200 q 171 263 236 200 l 114 204 l 89 231 l 146 289 q 96 435 96 351 q 151 582 96 519 l 88 644 l 114 669 l 176 607 m 322 619 q 284 619 322 619 q 191 565 246 619 q 136 434 136 511 q 190 299 136 357 q 321 242 243 242 q 452 299 399 242 q 506 435 506 357 q 452 566 506 513 q 322 619 399 619 z "},"¥":{"ha":818,"x_min":35,"x_max":785,"o":"m 700 446 l 700 406 l 424 406 l 424 294 l 700 294 l 700 254 l 424 254 l 424 0 l 367 0 l 367 254 l 107 254 l 107 294 l 367 294 l 367 406 l 107 406 l 107 446 l 365 446 l 35 1017 l 99 1017 l 396 503 l 717 1017 l 785 1017 l 425 446 l 700 446 z "},"¦":{"ha":350,"x_min":147,"x_max":204,"o":"m 147 -100 l 147 356 l 204 356 l 204 -100 l 147 -100 m 147 596 l 147 1069 l 204 1069 l 204 596 l 147 596 z "},"§":{"ha":772,"x_min":94,"x_max":681,"o":"m 94 490 l 94 576 q 165 706 94 690 q 94 819 94 722 l 94 917 q 146 1049 94 1010 q 260 1089 197 1089 q 455 1082 324 1089 q 628 1071 586 1075 l 628 1032 l 275 1032 q 151 917 151 1032 l 151 819 q 181 749 151 767 q 275 731 211 731 l 496 731 q 645 695 608 731 q 681 578 682 660 l 681 492 q 613 368 681 375 q 667 330 654 360 q 679 254 679 300 l 679 153 q 617 14 679 44 q 502 -11 565 -11 q 313 -4 439 -11 q 146 7 188 3 l 146 46 l 488 46 q 588 69 554 46 q 622 153 622 92 l 622 254 q 599 326 622 310 q 496 342 576 342 l 275 342 q 199 345 225 342 q 144 363 172 349 q 94 490 94 388 m 151 490 q 175 414 151 428 q 275 400 199 400 l 496 400 q 602 416 582 400 q 622 492 622 432 l 622 578 q 599 656 622 636 q 496 675 575 675 l 275 675 q 176 659 201 675 q 151 575 151 643 l 151 490 z "},"¨":{"ha":603,"x_min":86,"x_max":519,"o":"m 97 780 q 92 786 97 780 q 86 808 86 792 q 97 836 86 825 q 125 847 108 847 q 153 836 142 847 q 165 808 165 825 q 153 780 165 792 q 125 768 142 768 q 97 780 108 768 m 451 780 q 445 786 451 780 q 439 808 439 792 q 451 836 439 825 q 479 847 463 847 q 508 836 496 847 q 519 808 519 825 q 508 780 519 792 q 479 768 496 768 q 451 780 463 768 z "},"©":{"ha":1174,"x_min":94,"x_max":1081,"o":"m 137 251 q 125 287 137 251 q 103 386 113 322 q 94 528 94 450 q 109 688 94 606 q 158 847 124 769 q 260 971 192 925 q 422 1017 328 1017 l 785 1017 q 1081 511 1081 1017 q 953 74 1081 210 q 785 0 885 0 l 422 0 q 290 35 349 0 q 197 126 232 71 q 137 251 161 181 m 422 43 l 785 43 q 966 166 894 43 q 1038 511 1038 289 q 986 828 1038 700 q 908 935 960 897 q 785 974 857 974 l 422 974 q 228 879 307 974 q 138 511 140 774 q 206 199 138 336 q 295 86 239 129 q 422 43 351 43 m 539 204 q 392 270 446 204 q 339 501 339 336 q 393 738 339 665 q 543 810 447 810 q 786 783 639 810 l 786 750 q 539 767 669 767 q 382 503 382 767 q 418 313 382 379 q 539 247 454 247 q 794 269 689 247 l 794 236 q 539 204 681 204 z "},"ª":{"ha":501,"x_min":51,"x_max":451,"o":"m 51 393 l 51 432 l 451 432 l 451 393 l 51 393 m 68 996 q 275 1026 190 1026 q 449 883 449 1026 l 449 525 l 421 525 l 404 593 l 389 586 q 199 519 264 519 q 92 552 133 519 q 51 643 51 585 l 51 707 q 89 798 51 764 q 190 832 126 832 q 351 831 297 831 q 404 832 404 831 q 406 864 406 853 q 404 876 406 875 q 276 985 404 985 q 68 967 193 985 l 68 996 m 96 651 q 199 564 96 564 q 288 578 236 564 q 372 608 339 593 l 404 622 l 404 801 l 199 793 q 96 699 96 790 l 96 651 z "},"«":{"ha":761,"x_min":86,"x_max":675,"o":"m 86 492 l 371 775 l 411 735 l 165 492 l 419 243 l 378 201 l 86 492 m 343 492 l 629 775 l 668 735 l 422 492 l 675 243 l 635 201 l 343 492 z "},"¬":{"ha":736,"x_min":86,"x_max":650,"o":"m 86 378 l 86 436 l 650 436 l 650 221 l 593 221 l 593 378 l 86 378 z "},"­":{"ha":504,"x_min":35,"x_max":471,"o":"m 35 375 l 35 431 l 471 431 l 471 375 l 35 375 z "},"®":{"ha":1174,"x_min":94,"x_max":1081,"o":"m 137 251 q 125 287 137 251 q 103 386 113 322 q 94 528 94 450 q 109 688 94 606 q 158 847 124 769 q 260 971 192 925 q 422 1017 328 1017 l 785 1017 q 1081 511 1081 1017 q 953 74 1081 210 q 785 0 885 0 l 422 0 q 290 35 349 0 q 197 126 232 71 q 137 251 161 181 m 422 43 l 785 43 q 966 166 894 43 q 1038 511 1038 289 q 986 828 1038 700 q 908 935 960 897 q 785 974 857 974 l 422 974 q 228 879 307 974 q 138 511 140 774 q 206 199 138 336 q 295 86 239 129 q 422 43 351 43 m 385 213 l 385 806 l 631 806 q 759 768 711 806 q 807 629 807 731 q 772 510 807 543 q 751 491 758 497 q 726 480 743 485 q 703 475 708 475 q 660 469 664 469 l 806 213 l 756 213 l 611 469 l 428 479 l 428 213 l 385 213 m 428 508 l 639 508 q 736 532 708 508 q 764 629 764 556 q 731 733 764 703 q 639 763 699 763 l 428 763 l 428 508 z "},"¯":{"ha":539,"x_min":86,"x_max":454,"o":"m 86 738 l 86 781 l 454 781 l 454 738 l 86 738 z "},"°":{"ha":453,"x_min":86,"x_max":367,"o":"m 128 777 q 107 798 128 777 q 86 878 86 818 q 128 979 86 938 q 228 1021 169 1021 q 326 979 286 1021 q 367 878 367 938 q 326 777 367 818 q 228 736 286 736 q 128 777 169 736 m 227 985 q 205 985 227 985 q 152 953 183 985 q 121 878 121 922 q 152 803 121 835 q 227 772 183 772 q 301 803 271 772 q 332 878 332 833 q 301 953 332 922 q 227 985 271 985 z "},"±":{"ha":739,"x_min":96,"x_max":646,"o":"m 96 167 l 96 224 l 646 224 l 646 167 l 96 167 m 96 560 l 96 617 l 342 617 l 342 863 l 399 863 l 399 617 l 646 617 l 646 560 l 399 560 l 399 313 l 342 313 l 342 560 l 96 560 z "},"²":{"ha":558,"x_min":51,"x_max":489,"o":"m 54 1142 q 51 1150 51 1142 q 54 1174 51 1158 q 308 1188 169 1188 q 489 999 489 1188 q 450 879 489 942 q 371 771 410 811 q 309 708 332 731 q 256 658 286 685 q 208 617 225 632 q 142 564 147 567 l 488 564 l 488 518 l 58 518 l 58 558 q 107 597 61 561 q 176 653 153 633 q 247 713 200 672 q 321 785 293 754 q 381 854 349 815 q 440 998 440 929 q 410 1104 440 1067 q 297 1142 379 1142 l 54 1142 z "},"³":{"ha":592,"x_min":51,"x_max":490,"o":"m 51 1135 l 51 1165 q 322 1181 110 1181 q 449 1137 407 1181 q 490 1025 490 1093 l 490 976 q 457 892 490 926 q 392 851 424 858 q 458 805 425 840 q 490 717 490 769 l 490 678 q 451 555 490 597 q 315 513 413 513 q 57 531 122 513 l 57 558 l 304 558 q 413 585 381 558 q 444 683 444 613 l 444 715 q 404 800 444 771 q 310 831 364 829 l 113 836 l 113 868 l 310 875 q 408 906 369 878 q 446 981 446 933 l 446 1024 q 317 1135 446 1135 l 51 1135 z "},"´":{"ha":297,"x_min":35,"x_max":264,"o":"m 35 738 l 196 922 l 264 922 l 79 738 l 35 738 z "},"µ":{"ha":849,"x_min":154,"x_max":729,"o":"m 154 -375 l 154 739 l 211 739 l 211 225 q 258 96 211 146 q 385 46 304 46 q 526 65 465 46 q 672 128 586 83 l 672 739 l 729 739 l 729 1 l 692 1 l 672 88 q 392 -11 515 -11 q 211 71 269 -11 l 211 -375 l 154 -375 z "},"¶":{"ha":799,"x_min":68,"x_max":764,"o":"m 68 693 l 68 822 q 133 966 68 915 q 285 1017 197 1017 l 764 1017 l 764 957 l 668 957 l 668 0 l 611 0 l 611 960 l 417 960 l 417 -375 l 360 -375 l 360 510 q 290 493 331 493 q 285 493 288 493 q 125 550 182 493 q 68 693 68 607 m 125 696 q 144 619 125 651 q 192 574 163 588 q 285 550 239 550 l 360 550 l 360 960 l 285 960 q 166 919 207 960 q 125 819 125 879 l 125 696 z "},"·":{"ha":369,"x_min":146,"x_max":226,"o":"m 146 513 l 146 550 q 168 572 146 572 l 203 572 q 226 550 226 572 l 226 513 q 203 490 226 490 l 168 490 q 146 513 146 490 z "},"¸":{"ha":363,"x_min":86,"x_max":278,"o":"m 231 -61 q 231 -51 231 -57 l 278 -51 q 249 -200 278 -160 q 138 -240 221 -240 l 86 -240 l 86 -217 l 140 -204 q 210 -165 190 -194 q 231 -61 231 -136 z "},"¹":{"ha":361,"x_min":28,"x_max":251,"o":"m 251 1179 l 251 518 l 206 518 l 206 1131 l 28 1071 l 28 1103 l 206 1179 l 251 1179 z "},"º":{"ha":533,"x_min":51,"x_max":482,"o":"m 268 518 q 204 518 268 518 q 96 572 140 518 q 51 771 51 626 q 94 969 51 915 q 267 1024 138 1024 q 440 969 397 1024 q 482 770 482 915 q 439 572 482 625 q 268 518 396 518 m 67 394 l 67 433 l 468 433 l 468 394 l 67 394 m 164 966 q 147 959 164 966 q 113 906 131 953 q 94 750 94 860 q 131 601 94 640 q 267 563 168 563 q 401 599 367 563 q 438 768 438 636 q 404 940 438 900 q 284 979 371 979 q 164 966 197 979 z "},"»":{"ha":761,"x_min":86,"x_max":675,"o":"m 86 243 l 339 492 l 94 735 l 133 775 l 419 492 l 126 201 l 86 243 m 343 243 l 596 492 l 350 735 l 392 775 l 675 492 l 383 201 l 343 243 z "},"¼":{"ha":1229,"x_min":28,"x_max":1194,"o":"m 251 1017 l 251 356 l 206 356 l 206 968 l 28 908 l 28 940 l 206 1017 l 251 1017 m 299 0 l 817 1051 l 864 1051 l 346 0 l 299 0 m 1067 257 l 1067 425 l 1089 492 l 1113 492 l 1113 257 l 1194 257 l 1194 225 l 1113 210 l 1113 0 l 1067 0 l 1067 210 l 689 210 l 675 229 l 949 660 l 1000 660 l 746 257 l 1067 257 z "},"½":{"ha":1325,"x_min":28,"x_max":1257,"o":"m 251 1017 l 251 356 l 206 356 l 206 968 l 28 908 l 28 940 l 206 1017 l 251 1017 m 283 0 l 803 1051 l 850 1051 l 331 0 l 283 0 m 822 625 q 819 633 819 625 q 822 657 819 642 q 1076 671 936 671 q 1257 482 1257 671 q 1219 363 1257 425 q 1139 254 1178 294 q 1077 191 1100 214 q 1024 142 1054 168 q 975 100 993 115 q 910 47 915 50 l 1256 47 l 1256 1 l 826 1 l 826 42 q 875 81 829 44 q 944 136 921 117 q 1015 197 968 156 q 1089 268 1061 238 q 1147 338 1117 299 q 1208 481 1208 413 q 1178 588 1208 550 q 1065 625 1147 625 l 822 625 z "},"¾":{"ha":1399,"x_min":51,"x_max":1311,"o":"m 51 972 l 51 1003 q 322 1018 110 1018 q 449 974 407 1018 q 490 863 490 931 l 490 814 q 457 730 490 764 q 392 689 424 696 q 458 642 425 678 q 490 554 490 607 l 490 515 q 451 392 490 435 q 315 350 413 350 q 57 368 122 350 l 57 396 l 304 396 q 413 423 381 396 q 444 521 444 450 l 444 553 q 404 638 444 608 q 310 668 364 667 l 113 674 l 113 706 l 310 713 q 408 743 369 715 q 446 818 446 771 l 446 861 q 317 972 446 972 l 51 972 m 453 0 l 971 1051 l 1018 1051 l 500 0 l 453 0 m 1185 256 l 1185 426 l 1204 493 l 1228 493 l 1228 256 l 1311 256 l 1311 226 l 1228 210 l 1228 1 l 1185 1 l 1185 210 l 806 210 l 792 231 l 1064 660 l 1114 660 l 860 256 l 1185 256 z "},"¿":{"ha":742,"x_min":68,"x_max":708,"o":"m 332 247 q 426 242 375 247 l 426 383 l 486 383 l 486 194 q 322 194 404 194 q 131 24 132 192 l 131 -117 q 181 -267 131 -219 q 343 -315 232 -315 q 350 -315 347 -315 l 708 -315 l 708 -354 q 461 -372 550 -372 q 357 -372 372 -372 q 339 -372 342 -372 q 128 -306 188 -372 q 68 -115 68 -239 l 68 26 q 157 211 67 158 q 332 247 221 247 m 417 549 l 417 631 q 439 653 417 653 l 472 653 q 494 632 494 653 l 494 549 q 474 526 494 526 l 436 526 q 417 549 417 528 z "},"À":{"ha":919,"x_min":78,"x_max":883,"o":"m 282 1292 l 350 1292 l 511 1107 l 467 1107 l 282 1292 m 78 0 l 456 1017 l 521 1017 l 883 0 l 818 0 l 704 328 l 261 328 l 144 0 l 78 0 m 282 385 l 683 385 l 488 942 l 282 385 z "},"Á":{"ha":919,"x_min":78,"x_max":883,"o":"m 467 1107 l 628 1292 l 696 1292 l 511 1107 l 467 1107 m 78 0 l 456 1017 l 521 1017 l 883 0 l 818 0 l 704 328 l 261 328 l 144 0 l 78 0 m 282 385 l 683 385 l 488 942 l 282 385 z "},"Â":{"ha":919,"x_min":78,"x_max":883,"o":"m 294 1107 l 471 1288 l 522 1288 l 682 1107 l 632 1107 l 496 1246 l 344 1107 l 294 1107 m 78 0 l 456 1017 l 521 1017 l 883 0 l 818 0 l 704 328 l 261 328 l 144 0 l 78 0 m 282 385 l 683 385 l 488 942 l 282 385 z "},"Ã":{"ha":919,"x_min":78,"x_max":883,"o":"m 407 1238 q 497 1195 439 1236 q 569 1154 554 1154 q 598 1158 585 1154 q 621 1165 611 1161 q 645 1178 631 1169 q 667 1192 660 1186 q 707 1219 694 1214 l 724 1193 q 675 1150 690 1163 q 629 1122 660 1138 q 568 1108 599 1107 q 483 1149 538 1108 q 407 1190 428 1190 q 367 1184 386 1190 q 336 1172 347 1178 q 302 1150 325 1165 q 268 1128 279 1135 l 254 1154 q 306 1197 288 1182 q 407 1238 357 1238 m 78 0 l 456 1017 l 521 1017 l 883 0 l 818 0 l 704 328 l 261 328 l 144 0 l 78 0 m 282 385 l 683 385 l 488 942 l 282 385 z "},"Ä":{"ha":919,"x_min":78,"x_max":883,"o":"m 283 1119 q 278 1125 283 1119 q 272 1147 272 1131 q 283 1175 272 1164 q 311 1186 294 1186 q 340 1175 328 1186 q 351 1147 351 1164 q 340 1119 351 1131 q 311 1107 328 1107 q 283 1119 294 1107 m 637 1119 q 631 1125 637 1119 q 625 1147 625 1131 q 637 1175 625 1164 q 665 1186 649 1186 q 694 1175 682 1186 q 706 1147 706 1164 q 694 1119 706 1131 q 665 1107 682 1107 q 637 1119 649 1107 m 78 0 l 456 1017 l 521 1017 l 883 0 l 818 0 l 704 328 l 261 328 l 144 0 l 78 0 m 282 385 l 683 385 l 488 942 l 282 385 z "},"Å":{"ha":919,"x_min":78,"x_max":883,"o":"m 390 1257 q 369 1236 390 1257 q 349 1156 349 1215 q 390 1055 349 1096 q 490 1014 432 1014 q 589 1055 549 1014 q 629 1156 629 1096 q 589 1257 629 1215 q 490 1299 549 1299 q 390 1257 432 1299 m 383 1156 q 383 1178 383 1156 q 415 1231 383 1200 q 490 1263 447 1263 q 564 1231 533 1263 q 594 1156 594 1200 q 564 1081 594 1111 q 490 1050 533 1050 q 415 1081 446 1050 q 383 1156 383 1113 m 78 0 l 456 1017 l 521 1017 l 883 0 l 818 0 l 704 328 l 261 328 l 144 0 l 78 0 m 282 385 l 683 385 l 488 942 l 282 385 z "},"Æ":{"ha":1289,"x_min":51,"x_max":1222,"o":"m 811 1017 q 825 1017 818 1017 l 1222 1000 l 1222 960 l 825 960 q 732 939 750 960 q 719 925 724 929 q 712 905 714 921 q 709 884 710 889 q 708 856 708 879 l 708 531 l 1167 522 l 1167 481 l 708 472 l 708 169 q 751 69 708 90 q 840 54 786 54 l 1222 54 l 1222 13 l 840 -6 q 824 -6 832 -6 q 701 28 751 -6 q 651 168 651 63 l 651 339 l 315 339 l 117 0 l 51 0 l 536 826 q 660 981 604 944 q 811 1017 715 1017 m 651 394 l 651 910 l 347 394 l 651 394 z "},"Ç":{"ha":794,"x_min":94,"x_max":743,"o":"m 443 -60 q 443 -50 443 -56 l 490 -50 q 462 -199 490 -158 q 350 -239 433 -239 l 299 -239 l 299 -215 l 353 -203 q 423 -164 403 -193 q 443 -60 443 -135 m 94 511 q 192 939 94 831 q 432 1028 272 1028 q 743 994 564 1028 l 743 953 q 703 956 721 954 q 660 960 685 958 q 608 963 636 961 q 550 967 579 965 q 415 971 501 971 q 271 933 329 971 q 151 508 151 854 q 433 49 151 49 q 697 58 563 49 l 743 63 l 743 22 q 432 -8 579 -8 q 94 511 94 -8 z "},"È":{"ha":800,"x_min":136,"x_max":733,"o":"m 267 1285 l 335 1285 l 496 1100 l 451 1100 l 267 1285 m 136 171 l 136 836 q 185 974 136 932 q 303 1017 233 1017 q 311 1017 307 1017 l 733 1000 l 733 960 l 311 960 q 193 836 193 960 l 193 533 l 678 524 l 678 483 l 193 474 l 193 171 q 236 69 193 92 q 325 53 271 53 l 733 53 l 733 13 l 325 -4 q 299 -4 317 -4 q 253 1 281 -4 q 197 22 226 6 q 136 171 136 57 z "},"É":{"ha":800,"x_min":136,"x_max":733,"o":"m 440 1100 l 601 1285 l 669 1285 l 485 1100 l 440 1100 m 136 171 l 136 836 q 185 974 136 932 q 303 1017 233 1017 q 311 1017 307 1017 l 733 1000 l 733 960 l 311 960 q 193 836 193 960 l 193 533 l 678 524 l 678 483 l 193 474 l 193 171 q 236 69 193 92 q 325 53 271 53 l 733 53 l 733 13 l 325 -4 q 299 -4 317 -4 q 253 1 281 -4 q 197 22 226 6 q 136 171 136 57 z "},"Ê":{"ha":800,"x_min":136,"x_max":733,"o":"m 264 1107 l 440 1288 l 492 1288 l 651 1107 l 601 1107 l 465 1246 l 314 1107 l 264 1107 m 136 171 l 136 836 q 185 974 136 932 q 303 1017 233 1017 q 311 1017 307 1017 l 733 1000 l 733 960 l 311 960 q 193 836 193 960 l 193 533 l 678 524 l 678 483 l 193 474 l 193 171 q 236 69 193 92 q 325 53 271 53 l 733 53 l 733 13 l 325 -4 q 299 -4 317 -4 q 253 1 281 -4 q 197 22 226 6 q 136 171 136 57 z "},"Ë":{"ha":800,"x_min":136,"x_max":733,"o":"m 242 1142 q 236 1148 242 1142 q 231 1171 231 1154 q 242 1199 231 1188 q 269 1210 253 1210 q 298 1199 286 1210 q 310 1171 310 1188 q 298 1142 310 1154 q 269 1131 286 1131 q 242 1142 253 1131 m 595 1142 q 589 1148 595 1142 q 583 1171 583 1154 q 595 1199 583 1188 q 624 1210 607 1210 q 652 1199 640 1210 q 664 1171 664 1188 q 652 1142 664 1154 q 624 1131 640 1131 q 595 1142 607 1131 m 136 171 l 136 836 q 185 974 136 932 q 303 1017 233 1017 q 311 1017 307 1017 l 733 1000 l 733 960 l 311 960 q 193 836 193 960 l 193 533 l 678 524 l 678 483 l 193 474 l 193 171 q 236 69 193 92 q 325 53 271 53 l 733 53 l 733 13 l 325 -4 q 299 -4 317 -4 q 253 1 281 -4 q 197 22 226 6 q 136 171 136 57 z "},"Ì":{"ha":283,"x_min":-42,"x_max":193,"o":"m -42 1292 l 26 1292 l 188 1107 l 143 1107 l -42 1292 m 136 0 l 136 1017 l 193 1017 l 193 0 l 136 0 z "},"Í":{"ha":283,"x_min":136,"x_max":372,"o":"m 143 1107 l 304 1292 l 372 1292 l 188 1107 l 143 1107 m 136 0 l 136 1017 l 193 1017 l 193 0 l 136 0 z "},"Î":{"ha":283,"x_min":-28,"x_max":360,"o":"m -28 1107 l 149 1288 l 200 1288 l 360 1107 l 310 1107 l 174 1246 l 22 1107 l -28 1107 m 136 0 l 136 1017 l 193 1017 l 193 0 l 136 0 z "},"Ï":{"ha":283,"x_min":-51,"x_max":382,"o":"m -40 1119 q -46 1125 -40 1119 q -51 1147 -51 1131 q -40 1175 -51 1164 q -12 1186 -29 1186 q 16 1175 4 1186 q 28 1147 28 1164 q 16 1119 28 1131 q -12 1107 4 1107 q -40 1119 -29 1107 m 313 1119 q 307 1125 313 1119 q 301 1147 301 1131 q 313 1175 301 1164 q 342 1186 325 1186 q 370 1175 358 1186 q 382 1147 382 1164 q 370 1119 382 1131 q 342 1107 358 1107 q 313 1119 325 1107 m 136 0 l 136 1017 l 193 1017 l 193 0 l 136 0 z "},"Ð":{"ha":925,"x_min":46,"x_max":849,"o":"m 46 499 l 46 538 l 136 538 l 136 1017 l 489 1017 q 647 983 579 1017 q 751 897 714 949 q 811 774 789 846 q 849 535 849 657 q 828 327 849 413 q 767 167 808 242 q 654 46 726 92 q 489 0 582 0 l 136 0 l 136 499 l 46 499 m 193 58 l 489 58 q 626 99 567 58 q 721 206 686 139 q 790 506 790 336 q 712 846 790 735 q 489 957 633 957 l 193 957 l 193 538 l 406 538 l 406 499 l 193 499 l 193 58 z "},"Ñ":{"ha":931,"x_min":136,"x_max":840,"o":"m 407 1238 q 497 1195 439 1236 q 569 1154 554 1154 q 598 1158 585 1154 q 621 1165 611 1161 q 645 1178 631 1169 q 667 1192 660 1186 q 707 1219 694 1214 l 724 1193 q 675 1150 690 1163 q 629 1122 660 1138 q 568 1108 599 1107 q 483 1149 538 1108 q 407 1190 428 1190 q 367 1184 386 1190 q 336 1172 347 1178 q 302 1150 325 1165 q 268 1128 279 1135 l 254 1154 q 306 1197 288 1182 q 407 1238 357 1238 m 136 0 l 136 1017 l 196 1017 l 783 107 l 783 1017 l 840 1017 l 840 0 l 783 0 l 193 910 l 193 0 l 136 0 z "},"Ò":{"ha":938,"x_min":111,"x_max":869,"o":"m 285 1292 l 353 1292 l 514 1107 l 469 1107 l 285 1292 m 156 164 q 144 192 156 164 q 122 303 132 219 q 111 515 111 388 q 129 738 111 642 q 176 891 147 835 q 256 977 204 947 q 360 1015 308 1007 q 485 1024 411 1024 q 603 1018 558 1024 q 696 994 649 1013 q 772 941 743 976 q 825 849 800 906 q 869 501 869 743 q 810 129 869 249 q 732 44 782 74 q 628 4 682 14 q 498 -6 574 -6 q 376 0 422 -6 q 283 23 331 6 q 207 74 235 40 q 156 164 179 108 m 192 764 q 185 740 192 764 q 174 651 179 717 q 168 469 168 585 q 184 265 168 353 q 242 128 200 176 q 339 66 283 81 q 490 51 394 51 q 640 67 585 51 q 738 131 696 83 q 796 267 779 178 q 813 494 813 356 q 798 719 813 632 q 761 855 783 806 q 694 929 739 904 q 608 960 650 954 q 506 967 565 967 q 420 965 447 967 q 358 958 393 964 q 301 938 322 951 q 256 903 281 925 q 218 846 232 881 q 192 764 204 811 z "},"Ó":{"ha":938,"x_min":111,"x_max":869,"o":"m 469 1107 l 631 1292 l 699 1292 l 514 1107 l 469 1107 m 156 164 q 144 192 156 164 q 122 303 132 219 q 111 515 111 388 q 129 738 111 642 q 176 891 147 835 q 256 977 204 947 q 360 1015 308 1007 q 485 1024 411 1024 q 603 1018 558 1024 q 696 994 649 1013 q 772 941 743 976 q 825 849 800 906 q 869 501 869 743 q 810 129 869 249 q 732 44 782 74 q 628 4 682 14 q 498 -6 574 -6 q 376 0 422 -6 q 283 23 331 6 q 207 74 235 40 q 156 164 179 108 m 192 764 q 185 740 192 764 q 174 651 179 717 q 168 469 168 585 q 184 265 168 353 q 242 128 200 176 q 339 66 283 81 q 490 51 394 51 q 640 67 585 51 q 738 131 696 83 q 796 267 779 178 q 813 494 813 356 q 798 719 813 632 q 761 855 783 806 q 694 929 739 904 q 608 960 650 954 q 506 967 565 967 q 420 965 447 967 q 358 958 393 964 q 301 938 322 951 q 256 903 281 925 q 218 846 232 881 q 192 764 204 811 z "},"Ô":{"ha":938,"x_min":111,"x_max":869,"o":"m 297 1107 l 474 1288 l 525 1288 l 685 1107 l 635 1107 l 499 1246 l 347 1107 l 297 1107 m 156 164 q 144 192 156 164 q 122 303 132 219 q 111 515 111 388 q 129 738 111 642 q 176 891 147 835 q 256 977 204 947 q 360 1015 308 1007 q 485 1024 411 1024 q 603 1018 558 1024 q 696 994 649 1013 q 772 941 743 976 q 825 849 800 906 q 869 501 869 743 q 810 129 869 249 q 732 44 782 74 q 628 4 682 14 q 498 -6 574 -6 q 376 0 422 -6 q 283 23 331 6 q 207 74 235 40 q 156 164 179 108 m 192 764 q 185 740 192 764 q 174 651 179 717 q 168 469 168 585 q 184 265 168 353 q 242 128 200 176 q 339 66 283 81 q 490 51 394 51 q 640 67 585 51 q 738 131 696 83 q 796 267 779 178 q 813 494 813 356 q 798 719 813 632 q 761 855 783 806 q 694 929 739 904 q 608 960 650 954 q 506 967 565 967 q 420 965 447 967 q 358 958 393 964 q 301 938 322 951 q 256 903 281 925 q 218 846 232 881 q 192 764 204 811 z "},"Õ":{"ha":938,"x_min":111,"x_max":869,"o":"m 410 1238 q 499 1195 442 1236 q 572 1154 557 1154 q 601 1158 588 1154 q 624 1165 614 1161 q 648 1178 633 1169 q 669 1192 663 1186 q 710 1219 697 1214 l 726 1193 q 678 1150 693 1163 q 632 1122 663 1138 q 571 1108 601 1107 q 485 1149 540 1108 q 410 1190 431 1190 q 369 1184 389 1190 q 339 1172 350 1178 q 305 1150 328 1165 q 271 1128 282 1135 l 257 1154 q 308 1197 290 1182 q 410 1238 360 1238 m 156 164 q 144 192 156 164 q 122 303 132 219 q 111 515 111 388 q 129 738 111 642 q 176 891 147 835 q 256 977 204 947 q 360 1015 308 1007 q 485 1024 411 1024 q 603 1018 558 1024 q 696 994 649 1013 q 772 941 743 976 q 825 849 800 906 q 869 501 869 743 q 810 129 869 249 q 732 44 782 74 q 628 4 682 14 q 498 -6 574 -6 q 376 0 422 -6 q 283 23 331 6 q 207 74 235 40 q 156 164 179 108 m 192 764 q 185 740 192 764 q 174 651 179 717 q 168 469 168 585 q 184 265 168 353 q 242 128 200 176 q 339 66 283 81 q 490 51 394 51 q 640 67 585 51 q 738 131 696 83 q 796 267 779 178 q 813 494 813 356 q 798 719 813 632 q 761 855 783 806 q 694 929 739 904 q 608 960 650 954 q 506 967 565 967 q 420 965 447 967 q 358 958 393 964 q 301 938 322 951 q 256 903 281 925 q 218 846 232 881 q 192 764 204 811 z "},"Ö":{"ha":938,"x_min":111,"x_max":869,"o":"m 286 1119 q 281 1125 286 1119 q 275 1147 275 1131 q 286 1175 275 1164 q 314 1186 297 1186 q 342 1175 331 1186 q 354 1147 354 1164 q 342 1119 354 1131 q 314 1107 331 1107 q 286 1119 297 1107 m 640 1119 q 634 1125 640 1119 q 628 1147 628 1131 q 640 1175 628 1164 q 668 1186 651 1186 q 697 1175 685 1186 q 708 1147 708 1164 q 697 1119 708 1131 q 668 1107 685 1107 q 640 1119 651 1107 m 156 164 q 144 192 156 164 q 122 303 132 219 q 111 515 111 388 q 129 738 111 642 q 176 891 147 835 q 256 977 204 947 q 360 1015 308 1007 q 485 1024 411 1024 q 603 1018 558 1024 q 696 994 649 1013 q 772 941 743 976 q 825 849 800 906 q 869 501 869 743 q 810 129 869 249 q 732 44 782 74 q 628 4 682 14 q 498 -6 574 -6 q 376 0 422 -6 q 283 23 331 6 q 207 74 235 40 q 156 164 179 108 m 192 764 q 185 740 192 764 q 174 651 179 717 q 168 469 168 585 q 184 265 168 353 q 242 128 200 176 q 339 66 283 81 q 490 51 394 51 q 640 67 585 51 q 738 131 696 83 q 796 267 779 178 q 813 494 813 356 q 798 719 813 632 q 761 855 783 806 q 694 929 739 904 q 608 960 650 954 q 506 967 565 967 q 420 965 447 967 q 358 958 393 964 q 301 938 322 951 q 256 903 281 925 q 218 846 232 881 q 192 764 204 811 z "},"×":{"ha":617,"x_min":96,"x_max":526,"o":"m 96 319 l 271 494 l 96 668 l 136 710 l 311 535 l 486 710 l 526 669 l 351 494 l 525 319 l 485 279 l 311 454 l 136 279 l 96 319 z "},"Ø":{"ha":938,"x_min":111,"x_max":869,"o":"m 186 907 q 240 968 213 946 q 311 1003 268 990 q 484 1024 383 1024 q 647 1010 585 1024 q 754 956 710 996 l 793 1017 l 839 1017 l 782 928 q 869 501 869 815 q 808 129 869 251 q 731 44 781 74 q 626 4 681 14 q 483 -6 572 -6 q 330 8 393 -6 q 224 60 267 21 l 185 0 l 140 0 l 196 88 q 111 497 111 197 q 186 907 111 796 m 168 501 q 232 142 168 236 l 722 907 q 631 956 685 944 q 508 967 578 967 q 409 965 439 967 q 340 953 379 963 q 279 925 301 943 q 233 874 257 907 q 197 792 208 840 q 168 501 168 672 m 490 51 q 613 61 565 51 q 703 98 661 71 q 767 175 744 125 q 813 528 813 281 q 749 875 813 776 l 257 111 q 490 51 319 51 z "},"Ù":{"ha":944,"x_min":136,"x_max":856,"o":"m 289 1292 l 357 1292 l 518 1107 l 474 1107 l 289 1292 m 136 444 l 136 1017 l 193 1017 l 193 444 q 213 217 193 301 q 282 99 232 133 q 372 57 332 64 q 499 50 411 50 l 500 50 q 710 106 660 50 q 788 283 772 175 q 797 444 797 353 l 797 1017 l 856 1017 l 856 444 q 800 128 856 225 q 763 72 781 94 q 717 33 746 49 q 667 10 688 18 q 613 -1 647 3 q 532 -7 567 -7 q 474 -7 497 -7 q 430 -6 450 -7 q 373 -2 410 -6 q 317 9 336 1 q 268 33 297 17 q 223 71 239 49 q 188 127 207 93 q 158 206 168 161 q 136 444 136 318 z "},"Ú":{"ha":944,"x_min":136,"x_max":856,"o":"m 474 1107 l 635 1292 l 703 1292 l 518 1107 l 474 1107 m 136 444 l 136 1017 l 193 1017 l 193 444 q 213 217 193 301 q 282 99 232 133 q 372 57 332 64 q 499 50 411 50 l 500 50 q 710 106 660 50 q 788 283 772 175 q 797 444 797 353 l 797 1017 l 856 1017 l 856 444 q 800 128 856 225 q 763 72 781 94 q 717 33 746 49 q 667 10 688 18 q 613 -1 647 3 q 532 -7 567 -7 q 474 -7 497 -7 q 430 -6 450 -7 q 373 -2 410 -6 q 317 9 336 1 q 268 33 297 17 q 223 71 239 49 q 188 127 207 93 q 158 206 168 161 q 136 444 136 318 z "},"Û":{"ha":944,"x_min":136,"x_max":856,"o":"m 303 1107 l 479 1288 l 531 1288 l 690 1107 l 640 1107 l 504 1246 l 353 1107 l 303 1107 m 136 444 l 136 1017 l 193 1017 l 193 444 q 213 217 193 301 q 282 99 232 133 q 372 57 332 64 q 499 50 411 50 l 500 50 q 710 106 660 50 q 788 283 772 175 q 797 444 797 353 l 797 1017 l 856 1017 l 856 444 q 800 128 856 225 q 763 72 781 94 q 717 33 746 49 q 667 10 688 18 q 613 -1 647 3 q 532 -7 567 -7 q 474 -7 497 -7 q 430 -6 450 -7 q 373 -2 410 -6 q 317 9 336 1 q 268 33 297 17 q 223 71 239 49 q 188 127 207 93 q 158 206 168 161 q 136 444 136 318 z "},"Ü":{"ha":944,"x_min":136,"x_max":856,"o":"m 290 1119 q 285 1125 290 1119 q 279 1147 279 1131 q 290 1175 279 1164 q 318 1186 301 1186 q 347 1175 335 1186 q 358 1147 358 1164 q 347 1119 358 1131 q 318 1107 335 1107 q 290 1119 301 1107 m 644 1119 q 638 1125 644 1119 q 632 1147 632 1131 q 644 1175 632 1164 q 672 1186 656 1186 q 701 1175 689 1186 q 713 1147 713 1164 q 701 1119 713 1131 q 672 1107 689 1107 q 644 1119 656 1107 m 136 444 l 136 1017 l 193 1017 l 193 444 q 213 217 193 301 q 282 99 232 133 q 372 57 332 64 q 499 50 411 50 l 500 50 q 710 106 660 50 q 788 283 772 175 q 797 444 797 353 l 797 1017 l 856 1017 l 856 444 q 800 128 856 225 q 763 72 781 94 q 717 33 746 49 q 667 10 688 18 q 613 -1 647 3 q 532 -7 567 -7 q 474 -7 497 -7 q 430 -6 450 -7 q 373 -2 410 -6 q 317 9 336 1 q 268 33 297 17 q 223 71 239 49 q 188 127 207 93 q 158 206 168 161 q 136 444 136 318 z "},"Ý":{"ha":864,"x_min":78,"x_max":828,"o":"m 431 1107 l 592 1292 l 660 1292 l 475 1107 l 431 1107 m 467 0 l 410 0 l 410 361 l 78 1017 l 140 1017 l 439 431 l 764 1017 l 828 1017 l 467 361 l 467 0 z "},"Þ":{"ha":771,"x_min":103,"x_max":696,"o":"m 103 0 l 103 1013 l 160 1013 l 160 817 l 451 817 q 696 521 696 817 q 581 236 696 299 q 517 212 546 217 q 451 207 488 207 q 160 225 240 211 l 160 0 l 103 0 m 160 264 l 451 264 q 591 321 543 264 q 639 524 639 378 q 572 721 639 672 q 451 760 519 760 l 160 760 l 160 264 z "},"ß":{"ha":788,"x_min":103,"x_max":756,"o":"m 296 53 l 538 46 q 659 88 621 46 q 699 183 697 129 l 699 249 q 581 339 699 322 q 481 356 531 346 q 397 397 432 365 q 363 484 363 428 q 394 574 363 540 q 542 690 426 608 q 604 758 576 715 q 642 878 642 815 q 583 982 642 942 q 406 1022 524 1022 q 224 962 288 1022 q 160 786 160 901 l 160 0 l 103 0 l 103 786 q 180 997 103 914 q 399 1079 257 1079 q 565 1054 497 1079 q 661 990 632 1029 q 699 871 699 938 q 642 717 699 796 q 583 652 613 674 q 513 601 553 631 q 459 561 472 572 q 433 528 446 550 q 419 476 419 507 q 454 427 419 446 q 538 401 489 408 q 637 382 588 393 q 721 338 686 371 q 756 249 756 306 l 756 183 q 693 38 756 88 q 530 -11 631 -11 q 296 11 429 -11 l 296 53 z "},"à":{"ha":721,"x_min":68,"x_max":636,"o":"m 168 1019 l 236 1019 l 397 835 l 353 835 l 168 1019 m 92 708 q 428 751 257 751 q 577 699 518 751 q 636 538 636 646 l 636 0 l 597 0 l 579 89 l 558 79 q 358 6 425 19 q 253 -8 290 -8 q 121 40 174 -8 q 68 175 68 89 l 68 260 q 117 395 68 346 q 253 444 167 444 q 498 444 417 444 q 579 444 579 444 q 581 513 581 490 q 579 538 581 536 q 422 697 579 696 q 411 697 417 697 q 92 671 299 697 l 92 708 m 125 182 q 163 81 125 113 q 251 49 200 50 q 384 68 303 49 q 522 108 465 88 l 579 128 l 579 404 l 253 388 q 125 257 125 382 l 125 182 z "},"á":{"ha":721,"x_min":68,"x_max":636,"o":"m 344 835 l 506 1019 l 574 1019 l 389 835 l 344 835 m 92 708 q 428 751 257 751 q 577 699 518 751 q 636 538 636 646 l 636 0 l 597 0 l 579 89 l 558 79 q 358 6 425 19 q 253 -8 290 -8 q 121 40 174 -8 q 68 175 68 89 l 68 260 q 117 395 68 346 q 253 444 167 444 q 498 444 417 444 q 579 444 579 444 q 581 513 581 490 q 579 538 581 536 q 422 697 579 696 q 411 697 417 697 q 92 671 299 697 l 92 708 m 125 182 q 163 81 125 113 q 251 49 200 50 q 384 68 303 49 q 522 108 465 88 l 579 128 l 579 404 l 253 388 q 125 257 125 382 l 125 182 z "},"â":{"ha":721,"x_min":68,"x_max":636,"o":"m 178 835 l 354 1015 l 406 1015 l 565 835 l 515 835 l 379 974 l 228 835 l 178 835 m 92 708 q 428 751 257 751 q 577 699 518 751 q 636 538 636 646 l 636 0 l 597 0 l 579 89 l 558 79 q 358 6 425 19 q 253 -8 290 -8 q 121 40 174 -8 q 68 175 68 89 l 68 260 q 117 395 68 346 q 253 444 167 444 q 498 444 417 444 q 579 444 579 444 q 581 513 581 490 q 579 538 581 536 q 422 697 579 696 q 411 697 417 697 q 92 671 299 697 l 92 708 m 125 182 q 163 81 125 113 q 251 49 200 50 q 384 68 303 49 q 522 108 465 88 l 579 128 l 579 404 l 253 388 q 125 257 125 382 l 125 182 z "},"ã":{"ha":721,"x_min":68,"x_max":636,"o":"m 282 975 q 372 933 314 974 q 444 892 429 892 q 473 895 460 892 q 496 903 486 899 q 520 915 506 907 q 542 928 535 924 q 582 957 569 951 l 599 931 q 550 888 565 900 q 504 860 535 875 q 443 845 474 844 q 358 887 413 846 q 282 928 303 928 q 242 922 261 928 q 211 909 222 915 q 177 888 200 903 q 143 865 154 872 l 129 892 q 181 933 163 919 q 282 975 232 975 m 92 708 q 428 751 257 751 q 577 699 518 751 q 636 538 636 646 l 636 0 l 597 0 l 579 89 l 558 79 q 358 6 425 19 q 253 -8 290 -8 q 121 40 174 -8 q 68 175 68 89 l 68 260 q 117 395 68 346 q 253 444 167 444 q 498 444 417 444 q 579 444 579 444 q 581 513 581 490 q 579 538 581 536 q 422 697 579 696 q 411 697 417 697 q 92 671 299 697 l 92 708 m 125 182 q 163 81 125 113 q 251 49 200 50 q 384 68 303 49 q 522 108 465 88 l 579 128 l 579 404 l 253 388 q 125 257 125 382 l 125 182 z "},"ä":{"ha":721,"x_min":68,"x_max":636,"o":"m 164 877 q 158 883 164 877 q 153 906 153 889 q 164 933 153 922 q 192 944 175 944 q 220 933 208 944 q 232 906 232 922 q 220 877 232 889 q 192 865 208 865 q 164 877 175 865 m 517 877 q 511 883 517 877 q 506 906 506 889 q 517 933 506 922 q 546 944 529 944 q 574 933 563 944 q 586 906 586 922 q 574 877 586 889 q 546 865 563 865 q 517 877 529 865 m 92 708 q 428 751 257 751 q 577 699 518 751 q 636 538 636 646 l 636 0 l 597 0 l 579 89 l 558 79 q 358 6 425 19 q 253 -8 290 -8 q 121 40 174 -8 q 68 175 68 89 l 68 260 q 117 395 68 346 q 253 444 167 444 q 498 444 417 444 q 579 444 579 444 q 581 513 581 490 q 579 538 581 536 q 422 697 579 696 q 411 697 417 697 q 92 671 299 697 l 92 708 m 125 182 q 163 81 125 113 q 251 49 200 50 q 384 68 303 49 q 522 108 465 88 l 579 128 l 579 404 l 253 388 q 125 257 125 382 l 125 182 z "},"å":{"ha":721,"x_min":68,"x_max":636,"o":"m 267 834 q 246 855 267 834 q 225 935 225 875 q 267 1036 225 994 q 367 1078 308 1078 q 465 1036 425 1078 q 506 935 506 994 q 465 834 506 875 q 367 793 425 793 q 267 834 308 793 m 291 1010 q 275 994 291 1010 q 260 935 260 978 q 291 860 260 892 q 366 829 322 829 q 440 860 410 829 q 471 935 471 890 q 440 1010 471 979 q 366 1042 410 1042 q 291 1010 322 1042 m 92 708 q 428 751 257 751 q 577 699 518 751 q 636 538 636 646 l 636 0 l 597 0 l 579 89 l 558 79 q 358 6 425 19 q 253 -8 290 -8 q 121 40 174 -8 q 68 175 68 89 l 68 260 q 117 395 68 346 q 253 444 167 444 q 498 444 417 444 q 579 444 579 444 q 581 513 581 490 q 579 538 581 536 q 422 697 579 696 q 411 697 417 697 q 92 671 299 697 l 92 708 m 125 182 q 163 81 125 113 q 251 49 200 50 q 384 68 303 49 q 522 108 465 88 l 579 128 l 579 404 l 253 388 q 125 257 125 382 l 125 182 z "},"æ":{"ha":1225,"x_min":68,"x_max":1158,"o":"m 92 711 q 429 754 243 754 q 547 724 496 754 q 619 629 599 693 q 706 720 644 696 q 876 744 768 744 q 1058 724 1019 744 q 1133 651 1115 694 q 1158 501 1158 586 q 1111 383 1158 417 q 968 349 1064 349 l 638 349 q 644 173 638 217 q 663 112 651 129 q 694 78 674 94 q 824 51 729 51 q 839 51 832 51 q 1144 75 982 51 l 1144 33 q 824 -6 1007 -6 q 647 42 699 -6 q 604 92 625 63 l 581 82 q 360 8 431 22 q 253 -6 290 -6 q 121 43 174 -6 q 68 178 68 92 l 68 224 q 117 359 68 310 q 253 408 167 408 q 498 408 417 408 q 579 408 579 408 q 581 506 581 474 q 579 540 581 539 q 422 700 579 699 q 411 700 417 700 q 92 674 300 700 l 92 711 m 125 185 q 163 84 125 115 q 251 52 200 53 q 384 73 303 51 q 522 117 465 94 l 579 138 l 579 367 l 253 354 q 125 224 125 349 l 125 185 m 968 404 q 1068 422 1035 404 q 1101 488 1101 440 q 1097 565 1101 536 q 1087 615 1093 594 q 1065 650 1081 636 q 1035 672 1049 664 q 994 683 1022 679 q 866 688 954 688 q 730 668 778 688 q 660 589 682 649 q 638 404 639 529 l 968 404 z "},"ç":{"ha":694,"x_min":86,"x_max":628,"o":"m 103 175 q 95 214 103 175 q 86 369 86 253 q 103 563 86 486 q 154 679 119 640 q 229 732 189 718 q 356 746 269 746 q 617 708 443 746 l 617 669 q 366 689 451 689 q 251 678 281 689 q 194 635 221 667 q 143 376 143 572 q 189 115 143 181 q 328 49 235 49 q 581 67 442 49 l 628 74 l 628 32 q 328 -8 493 -7 q 231 6 271 -8 q 156 58 192 19 q 103 175 121 97 m 374 -60 q 374 -50 374 -56 l 421 -50 q 392 -199 421 -158 q 281 -239 364 -239 l 228 -239 l 228 -214 l 283 -203 q 353 -163 333 -193 q 374 -60 374 -133 z "},"è":{"ha":729,"x_min":86,"x_max":661,"o":"m 188 1008 l 256 1008 l 417 824 l 372 824 l 188 1008 m 86 372 q 101 568 86 494 q 155 681 117 642 q 243 731 193 719 q 361 743 293 743 q 460 740 429 743 q 528 729 492 738 q 585 703 564 721 q 625 658 607 686 q 661 482 661 606 q 615 369 661 403 q 472 336 568 336 l 143 336 q 167 153 143 218 q 227 69 190 89 q 328 50 264 50 q 647 74 486 50 l 647 32 q 350 -7 511 -7 q 328 -7 339 -7 q 138 77 189 -6 q 86 372 86 160 m 143 392 l 472 392 q 570 410 536 392 q 604 490 604 428 q 593 592 604 551 q 551 654 582 633 q 484 681 521 675 q 376 686 447 686 q 266 678 306 686 q 195 639 226 669 q 153 551 164 608 q 143 392 143 493 z "},"é":{"ha":729,"x_min":86,"x_max":661,"o":"m 363 824 l 524 1008 l 592 1008 l 407 824 l 363 824 m 86 372 q 101 568 86 494 q 155 681 117 642 q 243 731 193 719 q 361 743 293 743 q 460 740 429 743 q 528 729 492 738 q 585 703 564 721 q 625 658 607 686 q 661 482 661 606 q 615 369 661 403 q 472 336 568 336 l 143 336 q 167 153 143 218 q 227 69 190 89 q 328 50 264 50 q 647 74 486 50 l 647 32 q 350 -7 511 -7 q 328 -7 339 -7 q 138 77 189 -6 q 86 372 86 160 m 143 392 l 472 392 q 570 410 536 392 q 604 490 604 428 q 593 592 604 551 q 551 654 582 633 q 484 681 521 675 q 376 686 447 686 q 266 678 306 686 q 195 639 226 669 q 153 551 164 608 q 143 392 143 493 z "},"ê":{"ha":729,"x_min":86,"x_max":661,"o":"m 185 824 l 361 1004 l 413 1004 l 572 824 l 522 824 l 386 963 l 235 824 l 185 824 m 86 372 q 101 568 86 494 q 155 681 117 642 q 243 731 193 719 q 361 743 293 743 q 460 740 429 743 q 528 729 492 738 q 585 703 564 721 q 625 658 607 686 q 661 482 661 606 q 615 369 661 403 q 472 336 568 336 l 143 336 q 167 153 143 218 q 227 69 190 89 q 328 50 264 50 q 647 74 486 50 l 647 32 q 350 -7 511 -7 q 328 -7 339 -7 q 138 77 189 -6 q 86 372 86 160 m 143 392 l 472 392 q 570 410 536 392 q 604 490 604 428 q 593 592 604 551 q 551 654 582 633 q 484 681 521 675 q 376 686 447 686 q 266 678 306 686 q 195 639 226 669 q 153 551 164 608 q 143 392 143 493 z "},"ë":{"ha":729,"x_min":86,"x_max":661,"o":"m 178 866 q 172 872 178 866 q 167 894 167 878 q 178 922 167 911 q 206 933 189 933 q 234 922 222 933 q 246 894 246 911 q 234 866 246 878 q 206 854 222 854 q 178 866 189 854 m 531 866 q 525 872 531 866 q 519 894 519 878 q 531 922 519 911 q 560 933 543 933 q 588 922 576 933 q 600 894 600 911 q 588 866 600 878 q 560 854 576 854 q 531 866 543 854 m 86 372 q 101 568 86 494 q 155 681 117 642 q 243 731 193 719 q 361 743 293 743 q 460 740 429 743 q 528 729 492 738 q 585 703 564 721 q 625 658 607 686 q 661 482 661 606 q 615 369 661 403 q 472 336 568 336 l 143 336 q 167 153 143 218 q 227 69 190 89 q 328 50 264 50 q 647 74 486 50 l 647 32 q 350 -7 511 -7 q 328 -7 339 -7 q 138 77 189 -6 q 86 372 86 160 m 143 392 l 472 392 q 570 410 536 392 q 604 490 604 428 q 593 592 604 551 q 551 654 582 633 q 484 681 521 675 q 376 686 447 686 q 266 678 306 686 q 195 639 226 669 q 153 551 164 608 q 143 392 143 493 z "},"ì":{"ha":261,"x_min":-76,"x_max":160,"o":"m -76 1013 l -8 1013 l 153 828 l 108 828 l -76 1013 m 103 0 l 103 738 l 160 738 l 160 0 l 103 0 z "},"í":{"ha":261,"x_min":103,"x_max":338,"o":"m 108 828 l 269 1013 l 338 1013 l 153 828 l 108 828 m 103 0 l 103 738 l 160 738 l 160 0 l 103 0 z "},"î":{"ha":261,"x_min":-62,"x_max":325,"o":"m -62 828 l 114 1008 l 165 1008 l 325 828 l 275 828 l 139 967 l -12 828 l -62 828 m 103 0 l 103 738 l 160 738 l 160 0 l 103 0 z "},"ï":{"ha":261,"x_min":-85,"x_max":349,"o":"m -74 840 q -79 845 -74 840 q -85 868 -85 851 q -74 896 -85 885 q -46 907 -62 907 q -17 896 -29 907 q -6 868 -6 885 q -17 840 -6 851 q -46 828 -29 828 q -74 840 -62 828 m 280 840 q 274 845 280 840 q 268 868 268 851 q 280 896 268 885 q 308 907 292 907 q 337 896 325 907 q 349 868 349 885 q 337 840 349 851 q 308 828 325 828 q 280 840 292 828 m 103 0 l 103 738 l 160 738 l 160 0 l 103 0 z "},"ð":{"ha":749,"x_min":68,"x_max":676,"o":"m 315 0 q 122 87 176 0 q 68 363 68 174 q 124 645 68 553 q 315 738 181 738 l 426 738 q 528 715 482 738 q 589 669 575 692 q 460 933 550 843 l 244 847 l 228 888 l 421 965 q 185 1038 325 1038 l 185 1088 q 481 988 365 1088 l 653 1056 l 671 1015 l 515 954 q 676 367 676 774 q 611 85 676 169 q 426 0 546 0 l 315 0 m 178 623 q 165 607 178 623 q 138 526 151 590 q 125 365 125 463 q 138 206 125 268 q 177 112 150 143 q 235 70 204 81 q 315 60 267 60 l 426 60 q 577 140 535 60 q 619 367 619 219 q 588 586 619 510 q 426 681 549 681 l 315 681 q 238 668 269 681 q 178 623 206 656 z "},"ñ":{"ha":763,"x_min":103,"x_max":678,"o":"m 308 964 q 398 922 340 963 q 471 881 456 881 q 499 884 486 881 q 522 892 513 888 q 547 904 532 896 q 567 917 561 913 q 608 946 596 940 l 625 919 q 576 876 592 889 q 531 849 561 864 q 469 834 500 833 q 384 876 439 835 q 308 917 329 917 q 268 910 288 917 q 238 898 249 904 q 203 876 226 892 q 169 854 181 861 l 156 881 q 207 922 189 908 q 308 964 258 964 m 103 0 l 103 738 l 140 738 l 160 651 q 450 750 317 750 q 617 681 556 750 q 678 514 678 611 l 678 0 l 621 0 l 621 514 q 574 643 621 593 q 448 693 528 693 q 308 674 368 693 q 160 610 247 656 l 160 0 l 103 0 z "},"ò":{"ha":793,"x_min":86,"x_max":708,"o":"m 194 1013 l 263 1013 l 424 828 l 379 828 l 194 1013 m 394 -7 q 305 -7 394 -7 q 151 74 215 -7 q 86 368 86 156 q 154 663 86 581 q 398 744 222 744 q 641 656 574 744 q 708 361 708 568 q 641 74 708 154 q 394 -7 574 -7 m 210 637 q 192 620 210 637 q 158 537 174 604 q 143 363 143 469 q 158 194 143 257 q 209 100 174 131 q 285 60 244 69 q 396 50 326 50 q 508 60 465 50 q 586 103 550 71 q 651 358 651 163 q 586 632 651 569 q 508 676 550 665 q 396 688 465 688 q 286 678 326 688 q 210 637 246 669 z "},"ó":{"ha":793,"x_min":86,"x_max":708,"o":"m 374 828 l 535 1013 l 603 1013 l 418 828 l 374 828 m 394 -7 q 305 -7 394 -7 q 151 74 215 -7 q 86 368 86 156 q 154 663 86 581 q 398 744 222 744 q 641 656 574 744 q 708 361 708 568 q 641 74 708 154 q 394 -7 574 -7 m 210 637 q 192 620 210 637 q 158 537 174 604 q 143 363 143 469 q 158 194 143 257 q 209 100 174 131 q 285 60 244 69 q 396 50 326 50 q 508 60 465 50 q 586 103 550 71 q 651 358 651 163 q 586 632 651 569 q 508 676 550 665 q 396 688 465 688 q 286 678 326 688 q 210 637 246 669 z "},"ô":{"ha":793,"x_min":86,"x_max":708,"o":"m 206 828 l 382 1008 l 433 1008 l 593 828 l 543 828 l 407 967 l 256 828 l 206 828 m 394 -7 q 305 -7 394 -7 q 151 74 215 -7 q 86 368 86 156 q 154 663 86 581 q 398 744 222 744 q 641 656 574 744 q 708 361 708 568 q 641 74 708 154 q 394 -7 574 -7 m 210 637 q 192 620 210 637 q 158 537 174 604 q 143 363 143 469 q 158 194 143 257 q 209 100 174 131 q 285 60 244 69 q 396 50 326 50 q 508 60 465 50 q 586 103 550 71 q 651 358 651 163 q 586 632 651 569 q 508 676 550 665 q 396 688 465 688 q 286 678 326 688 q 210 637 246 669 z "},"õ":{"ha":793,"x_min":86,"x_max":708,"o":"m 319 958 q 409 916 351 957 q 482 875 467 875 q 510 878 497 875 q 533 886 524 882 q 558 899 543 890 q 578 911 572 907 q 619 940 607 935 l 636 914 q 588 871 603 883 q 542 843 572 858 q 481 828 511 828 q 395 870 450 829 q 319 911 340 911 q 279 905 299 911 q 249 892 260 899 q 215 871 238 886 q 181 849 192 856 l 167 875 q 218 917 200 903 q 319 958 269 958 m 394 -7 q 305 -7 394 -7 q 151 74 215 -7 q 86 368 86 156 q 154 663 86 581 q 398 744 222 744 q 641 656 574 744 q 708 361 708 568 q 641 74 708 154 q 394 -7 574 -7 m 210 637 q 192 620 210 637 q 158 537 174 604 q 143 363 143 469 q 158 194 143 257 q 209 100 174 131 q 285 60 244 69 q 396 50 326 50 q 508 60 465 50 q 586 103 550 71 q 651 358 651 163 q 586 632 651 569 q 508 676 550 665 q 396 688 465 688 q 286 678 326 688 q 210 637 246 669 z "},"ö":{"ha":793,"x_min":86,"x_max":708,"o":"m 192 840 q 186 845 192 840 q 181 868 181 851 q 192 896 181 885 q 219 907 203 907 q 248 896 236 907 q 260 868 260 885 q 248 840 260 851 q 219 828 236 828 q 192 840 203 828 m 545 840 q 539 845 545 840 q 533 868 533 851 q 545 896 533 885 q 574 907 557 907 q 602 896 590 907 q 614 868 614 885 q 602 840 614 851 q 574 828 590 828 q 545 840 557 828 m 394 -7 q 305 -7 394 -7 q 151 74 215 -7 q 86 368 86 156 q 154 663 86 581 q 398 744 222 744 q 641 656 574 744 q 708 361 708 568 q 641 74 708 154 q 394 -7 574 -7 m 210 637 q 192 620 210 637 q 158 537 174 604 q 143 363 143 469 q 158 194 143 257 q 209 100 174 131 q 285 60 244 69 q 396 50 326 50 q 508 60 465 50 q 586 103 550 71 q 651 358 651 163 q 586 632 651 569 q 508 676 550 665 q 396 688 465 688 q 286 678 326 688 q 210 637 246 669 z "},"÷":{"ha":749,"x_min":86,"x_max":664,"o":"m 86 461 l 86 519 l 664 519 l 664 461 l 86 461 m 340 228 l 340 292 q 363 314 340 314 l 396 314 q 418 292 418 314 l 418 228 q 396 206 418 206 l 363 206 q 340 228 340 206 m 340 676 l 340 740 q 363 764 340 764 l 396 764 q 418 740 418 764 l 418 676 q 396 654 418 654 l 363 654 q 340 676 340 654 z "},"ø":{"ha":793,"x_min":86,"x_max":708,"o":"m 150 75 q 86 366 86 151 q 154 663 86 581 q 396 744 222 744 q 606 690 538 744 l 640 738 l 688 738 l 633 665 q 708 367 708 581 q 641 74 708 154 q 410 -7 574 -7 q 176 50 247 -7 l 140 0 l 96 0 l 150 75 m 188 126 l 571 644 q 396 688 519 688 q 306 682 340 688 q 238 658 272 676 q 185 606 203 640 q 143 358 143 524 q 188 126 143 193 m 396 50 q 508 60 465 50 q 586 103 550 71 q 651 352 651 160 q 599 618 651 544 l 213 97 q 396 50 265 50 z "},"ù":{"ha":763,"x_min":86,"x_max":661,"o":"m 171 1013 l 239 1013 l 400 828 l 356 828 l 171 1013 m 86 225 l 86 739 l 143 739 l 143 225 q 190 96 143 146 q 317 46 236 46 q 458 65 397 46 q 604 128 518 83 l 604 739 l 661 739 l 661 1 l 624 1 l 604 88 q 314 -11 447 -11 q 147 58 208 -11 q 86 225 86 128 z "},"ú":{"ha":763,"x_min":86,"x_max":661,"o":"m 351 828 l 513 1013 l 581 1013 l 396 828 l 351 828 m 86 225 l 86 739 l 143 739 l 143 225 q 190 96 143 146 q 317 46 236 46 q 458 65 397 46 q 604 128 518 83 l 604 739 l 661 739 l 661 1 l 624 1 l 604 88 q 314 -11 447 -11 q 147 58 208 -11 q 86 225 86 128 z "},"û":{"ha":763,"x_min":86,"x_max":661,"o":"m 181 828 l 357 1008 l 408 1008 l 568 828 l 518 828 l 382 967 l 231 828 l 181 828 m 86 225 l 86 739 l 143 739 l 143 225 q 190 96 143 146 q 317 46 236 46 q 458 65 397 46 q 604 128 518 83 l 604 739 l 661 739 l 661 1 l 624 1 l 604 88 q 314 -11 447 -11 q 147 58 208 -11 q 86 225 86 128 z "},"ü":{"ha":763,"x_min":86,"x_max":661,"o":"m 168 840 q 163 845 168 840 q 157 868 157 851 q 168 896 157 885 q 196 907 179 907 q 224 896 213 907 q 236 868 236 885 q 224 840 236 851 q 196 828 213 828 q 168 840 179 828 m 522 840 q 516 845 522 840 q 510 868 510 851 q 522 896 510 885 q 550 907 533 907 q 578 896 567 907 q 590 868 590 885 q 578 840 590 851 q 550 828 567 828 q 522 840 533 828 m 86 225 l 86 739 l 143 739 l 143 225 q 190 96 143 146 q 317 46 236 46 q 458 65 397 46 q 604 128 518 83 l 604 739 l 661 739 l 661 1 l 624 1 l 604 88 q 314 -11 447 -11 q 147 58 208 -11 q 86 225 86 128 z "},"ý":{"ha":746,"x_min":36,"x_max":708,"o":"m 350 828 l 511 1013 l 579 1013 l 394 828 l 350 828 m 36 738 l 97 738 l 294 161 q 403 58 331 61 l 418 60 l 647 738 l 708 738 l 385 -233 l 307 -375 l 274 -375 l 399 0 q 235 153 281 6 l 36 738 z "},"þ":{"ha":776,"x_min":119,"x_max":708,"o":"m 119 -375 l 119 1086 l 176 1086 l 176 654 q 307 715 211 679 q 469 750 403 750 q 584 718 535 750 q 658 631 633 686 q 708 371 708 524 q 644 67 708 158 q 574 9 619 32 q 470 -14 528 -14 q 325 1 413 -14 q 176 40 238 15 l 176 -375 l 119 -375 m 467 43 q 608 119 564 43 q 651 364 651 196 q 601 613 651 532 q 463 692 551 693 q 176 615 374 692 l 176 82 q 467 43 307 46 z "},"ÿ":{"ha":746,"x_min":36,"x_max":708,"o":"m 167 840 q 161 845 167 840 q 156 868 156 851 q 167 896 156 885 q 194 907 178 907 q 223 896 211 907 q 235 868 235 885 q 223 840 235 851 q 194 828 211 828 q 167 840 178 828 m 520 840 q 514 845 520 840 q 508 868 508 851 q 520 896 508 885 q 549 907 532 907 q 577 896 565 907 q 589 868 589 885 q 577 840 589 851 q 549 828 565 828 q 520 840 532 828 m 36 738 l 97 738 l 294 161 q 403 58 331 61 l 418 60 l 647 738 l 708 738 l 385 -233 l 307 -375 l 274 -375 l 399 0 q 235 153 281 6 l 36 738 z "},"Ā":{"ha":919,"x_min":78,"x_max":883,"o":"m 304 1107 l 304 1150 l 672 1150 l 672 1107 l 304 1107 m 78 0 l 456 1017 l 521 1017 l 883 0 l 818 0 l 704 328 l 261 328 l 144 0 l 78 0 m 282 385 l 683 385 l 488 942 l 282 385 z "},"ā":{"ha":721,"x_min":68,"x_max":636,"o":"m 188 835 l 188 878 l 556 878 l 556 835 l 188 835 m 92 708 q 428 751 257 751 q 577 699 518 751 q 636 538 636 646 l 636 0 l 597 0 l 579 89 l 558 79 q 358 6 425 19 q 253 -8 290 -8 q 121 40 174 -8 q 68 175 68 89 l 68 260 q 117 395 68 346 q 253 444 167 444 q 498 444 417 444 q 579 444 579 444 q 581 513 581 490 q 579 538 581 536 q 422 697 579 696 q 411 697 417 697 q 92 671 299 697 l 92 708 m 125 182 q 163 81 125 113 q 251 49 200 50 q 384 68 303 49 q 522 108 465 88 l 579 128 l 579 404 l 253 388 q 125 257 125 382 l 125 182 z "},"Ă":{"ha":919,"x_min":78,"x_max":883,"o":"m 336 1265 l 371 1265 q 407 1177 371 1213 q 490 1142 443 1142 q 585 1176 549 1142 q 621 1265 621 1211 l 656 1265 q 606 1149 656 1192 q 495 1107 557 1107 q 385 1151 433 1107 q 336 1265 336 1194 m 78 0 l 456 1017 l 521 1017 l 883 0 l 818 0 l 704 328 l 261 328 l 144 0 l 78 0 m 282 385 l 683 385 l 488 942 l 282 385 z "},"ă":{"ha":721,"x_min":68,"x_max":636,"o":"m 217 993 l 251 993 q 288 905 251 940 q 371 869 324 869 q 465 904 429 869 q 501 993 501 939 l 536 993 q 487 877 536 919 q 376 835 438 835 q 265 878 314 835 q 217 993 217 922 m 92 708 q 428 751 257 751 q 577 699 518 751 q 636 538 636 646 l 636 0 l 597 0 l 579 89 l 558 79 q 358 6 425 19 q 253 -8 290 -8 q 121 40 174 -8 q 68 175 68 89 l 68 260 q 117 395 68 346 q 253 444 167 444 q 498 444 417 444 q 579 444 579 444 q 581 513 581 490 q 579 538 581 536 q 422 697 579 696 q 411 697 417 697 q 92 671 299 697 l 92 708 m 125 182 q 163 81 125 113 q 251 49 200 50 q 384 68 303 49 q 522 108 465 88 l 579 128 l 579 404 l 253 388 q 125 257 125 382 l 125 182 z "},"Ą":{"ha":919,"x_min":78,"x_max":897,"o":"m 867 0 q 768 -128 768 -51 q 789 -172 768 -150 q 897 -210 822 -210 l 897 -251 q 856 -253 883 -253 q 787 -231 828 -253 q 729 -168 746 -208 q 722 -131 722 -153 q 739 -81 722 -108 q 838 0 764 -32 l 867 0 m 78 0 l 456 1017 l 521 1017 l 883 0 l 818 0 l 704 328 l 261 328 l 144 0 l 78 0 m 282 385 l 683 385 l 488 942 l 282 385 z "},"ą":{"ha":758,"x_min":86,"x_max":681,"o":"m 650 0 q 551 -128 551 -51 q 572 -172 551 -150 q 681 -210 606 -210 l 681 -251 q 639 -253 667 -253 q 570 -231 611 -253 q 513 -168 529 -208 q 506 -131 506 -153 q 522 -81 506 -108 q 621 0 547 -32 l 650 0 m 110 708 q 446 751 275 751 q 595 699 536 751 q 654 538 654 646 l 654 0 l 615 0 l 597 89 l 575 79 q 376 6 443 19 q 271 -8 308 -8 q 139 40 192 -8 q 86 175 86 89 l 86 260 q 135 395 86 346 q 271 444 185 444 q 515 444 433 444 q 597 444 597 444 q 597 513 597 490 q 597 538 597 536 q 440 697 597 696 q 429 697 435 697 q 110 671 317 697 l 110 708 m 143 182 q 181 81 143 113 q 269 49 218 50 q 402 68 321 49 q 540 108 483 88 l 597 128 l 597 404 l 271 388 q 143 257 143 382 l 143 182 z "},"Ć":{"ha":794,"x_min":94,"x_max":743,"o":"m 431 1111 l 592 1296 l 660 1296 l 475 1111 l 431 1111 m 94 511 q 192 939 94 831 q 432 1028 272 1028 q 743 994 564 1028 l 743 953 q 703 956 721 954 q 660 960 685 958 q 608 963 636 961 q 550 967 579 965 q 415 971 501 971 q 271 933 329 971 q 151 508 151 854 q 433 49 151 49 q 697 58 563 49 l 743 63 l 743 22 q 432 -8 579 -8 q 94 511 94 -8 z "},"ć":{"ha":694,"x_min":86,"x_max":628,"o":"m 354 829 l 515 1014 l 583 1014 l 399 829 l 354 829 m 103 175 q 95 214 103 175 q 86 369 86 253 q 103 563 86 486 q 154 678 119 640 q 229 731 189 717 q 359 744 269 744 q 617 708 449 744 l 617 669 q 366 688 451 688 q 251 677 281 688 q 194 633 221 667 q 143 364 143 571 q 167 167 143 238 q 229 73 192 96 q 325 50 267 50 q 581 69 442 50 l 628 75 l 628 33 q 328 -7 493 -6 q 231 7 271 -7 q 156 59 192 21 q 103 175 121 97 z "},"Ĉ":{"ha":794,"x_min":94,"x_max":743,"o":"m 268 1111 l 444 1292 l 496 1292 l 656 1111 l 606 1111 l 469 1250 l 318 1111 l 268 1111 m 94 511 q 192 939 94 831 q 432 1028 272 1028 q 743 994 564 1028 l 743 953 q 703 956 721 954 q 660 960 685 958 q 608 963 636 961 q 550 967 579 965 q 415 971 501 971 q 271 933 329 971 q 151 508 151 854 q 433 49 151 49 q 697 58 563 49 l 743 63 l 743 22 q 432 -8 579 -8 q 94 511 94 -8 z "},"ĉ":{"ha":694,"x_min":86,"x_max":628,"o":"m 186 829 l 363 1010 l 414 1010 l 574 829 l 524 829 l 388 968 l 236 829 l 186 829 m 103 175 q 95 214 103 175 q 86 369 86 253 q 103 563 86 486 q 154 678 119 640 q 229 731 189 717 q 359 744 269 744 q 617 708 449 744 l 617 669 q 366 688 451 688 q 251 677 281 688 q 194 633 221 667 q 143 364 143 571 q 167 167 143 238 q 229 73 192 96 q 325 50 267 50 q 581 69 442 50 l 628 75 l 628 33 q 328 -7 493 -6 q 231 7 271 -7 q 156 59 192 21 q 103 175 121 97 z "},"Ċ":{"ha":794,"x_min":94,"x_max":743,"o":"m 439 1135 l 439 1217 q 461 1239 439 1239 l 494 1239 q 517 1217 517 1239 l 517 1135 q 494 1113 517 1113 l 461 1113 q 439 1135 439 1113 m 94 511 q 192 939 94 831 q 432 1028 272 1028 q 743 994 564 1028 l 743 953 q 703 956 721 954 q 660 960 685 958 q 608 963 636 961 q 550 967 579 965 q 415 971 501 971 q 271 933 329 971 q 151 508 151 854 q 433 49 151 49 q 697 58 563 49 l 743 63 l 743 22 q 432 -8 579 -8 q 94 511 94 -8 z "},"ċ":{"ha":694,"x_min":86,"x_max":628,"o":"m 353 853 l 353 935 q 375 957 353 957 l 408 957 q 431 935 431 957 l 431 853 q 408 831 431 831 l 375 831 q 353 853 353 831 m 103 175 q 95 214 103 175 q 86 369 86 253 q 103 563 86 486 q 154 678 119 640 q 229 731 189 717 q 359 744 269 744 q 617 708 449 744 l 617 669 q 366 688 451 688 q 251 677 281 688 q 194 633 221 667 q 143 364 143 571 q 167 167 143 238 q 229 73 192 96 q 325 50 267 50 q 581 69 442 50 l 628 75 l 628 33 q 328 -7 493 -6 q 231 7 271 -7 q 156 59 192 21 q 103 175 121 97 z "},"Č":{"ha":794,"x_min":94,"x_max":743,"o":"m 275 1292 l 324 1292 l 465 1153 l 613 1292 l 663 1292 l 492 1111 l 439 1111 l 275 1292 m 94 511 q 192 939 94 831 q 432 1028 272 1028 q 743 994 564 1028 l 743 953 q 703 956 721 954 q 660 960 685 958 q 608 963 636 961 q 550 967 579 965 q 415 971 501 971 q 271 933 329 971 q 151 508 151 854 q 433 49 151 49 q 697 58 563 49 l 743 63 l 743 22 q 432 -8 579 -8 q 94 511 94 -8 z "},"č":{"ha":694,"x_min":86,"x_max":628,"o":"m 194 1010 l 243 1010 l 385 871 l 532 1010 l 582 1010 l 411 829 l 358 829 l 194 1010 m 103 175 q 95 214 103 175 q 86 369 86 253 q 103 563 86 486 q 154 678 119 640 q 229 731 189 717 q 359 744 269 744 q 617 708 449 744 l 617 669 q 366 688 451 688 q 251 677 281 688 q 194 633 221 667 q 143 364 143 571 q 167 167 143 238 q 229 73 192 96 q 325 50 267 50 q 581 69 442 50 l 628 75 l 628 33 q 328 -7 493 -6 q 231 7 271 -7 q 156 59 192 21 q 103 175 121 97 z "},"Ď":{"ha":925,"x_min":136,"x_max":857,"o":"m 283 1281 l 332 1281 l 474 1142 l 621 1281 l 671 1281 l 500 1100 l 447 1100 l 283 1281 m 136 0 l 136 1017 l 497 1017 q 655 983 588 1017 q 760 897 722 949 q 819 774 797 846 q 857 535 857 657 q 837 327 857 413 q 776 167 817 242 q 663 46 735 92 q 497 0 590 0 l 136 0 m 193 58 l 497 58 q 669 128 599 58 q 800 506 800 256 q 497 960 800 960 l 193 960 l 193 58 z "},"ď":{"ha":767,"x_min":86,"x_max":804,"o":"m 86 365 q 338 749 86 749 q 469 733 389 749 q 611 693 549 718 l 611 1090 l 665 1090 l 665 0 l 628 0 l 610 82 q 490 24 578 56 q 334 -8 403 -8 q 214 25 265 -8 q 136 117 163 58 q 86 365 86 225 m 338 692 q 194 622 246 692 q 143 377 143 551 q 197 126 143 203 q 338 49 250 49 q 610 121 457 49 l 610 651 q 338 692 456 692 m 746 1024 l 782 1085 l 804 1054 l 799 929 l 768 806 l 753 869 l 746 1024 z "},"Đ":{"ha":925,"x_min":46,"x_max":849,"o":"m 46 499 l 46 538 l 136 538 l 136 1017 l 489 1017 q 647 983 579 1017 q 751 897 714 949 q 811 774 789 846 q 849 535 849 657 q 828 327 849 413 q 767 167 808 242 q 654 46 726 92 q 489 0 582 0 l 136 0 l 136 499 l 46 499 m 193 58 l 489 58 q 626 99 567 58 q 721 206 686 139 q 790 506 790 336 q 712 846 790 735 q 489 957 633 957 l 193 957 l 193 538 l 406 538 l 406 499 l 193 499 l 193 58 z "},"đ":{"ha":767,"x_min":86,"x_max":776,"o":"m 86 365 q 338 749 86 749 q 469 733 389 749 q 611 693 549 718 l 611 878 l 433 878 l 433 917 l 611 917 l 611 1090 l 665 1090 l 665 917 l 776 917 l 776 878 l 665 878 l 665 0 l 629 0 l 610 82 q 490 24 578 56 q 334 -8 403 -8 q 214 25 265 -8 q 136 117 163 58 q 86 365 86 225 m 338 692 q 195 621 247 692 q 143 378 143 550 q 197 128 143 207 q 338 49 251 49 q 610 121 457 49 l 610 651 q 338 692 456 692 z "},"Ē":{"ha":800,"x_min":136,"x_max":733,"o":"m 272 1104 l 272 1147 l 640 1147 l 640 1104 l 272 1104 m 136 171 l 136 836 q 185 974 136 932 q 303 1017 233 1017 q 311 1017 307 1017 l 733 1000 l 733 960 l 311 960 q 193 836 193 960 l 193 533 l 678 524 l 678 483 l 193 474 l 193 171 q 236 69 193 92 q 325 53 271 53 l 733 53 l 733 13 l 325 -4 q 299 -4 317 -4 q 253 1 281 -4 q 197 22 226 6 q 136 171 136 57 z "},"ē":{"ha":729,"x_min":86,"x_max":661,"o":"m 193 828 l 193 871 l 561 871 l 561 828 l 193 828 m 86 372 q 101 568 86 494 q 155 681 117 642 q 243 731 193 719 q 361 743 293 743 q 460 740 429 743 q 528 729 492 738 q 585 703 564 721 q 625 658 607 686 q 661 482 661 606 q 615 369 661 403 q 472 336 568 336 l 143 336 q 167 153 143 218 q 227 69 190 89 q 328 50 264 50 q 647 74 486 50 l 647 32 q 350 -7 511 -7 q 328 -7 339 -7 q 138 77 189 -6 q 86 372 86 160 m 143 392 l 472 392 q 570 410 536 392 q 604 490 604 428 q 593 592 604 551 q 551 654 582 633 q 484 681 521 675 q 376 686 447 686 q 266 678 306 686 q 195 639 226 669 q 153 551 164 608 q 143 392 143 493 z "},"Ė":{"ha":800,"x_min":136,"x_max":733,"o":"m 419 1128 l 419 1210 q 442 1232 419 1232 l 475 1232 q 497 1210 497 1232 l 497 1128 q 475 1106 497 1106 l 442 1106 q 419 1128 419 1106 m 136 171 l 136 836 q 185 974 136 932 q 303 1017 233 1017 q 311 1017 307 1017 l 733 1000 l 733 960 l 311 960 q 193 836 193 960 l 193 533 l 678 524 l 678 483 l 193 474 l 193 171 q 236 69 193 92 q 325 53 271 53 l 733 53 l 733 13 l 325 -4 q 299 -4 317 -4 q 253 1 281 -4 q 197 22 226 6 q 136 171 136 57 z "},"ė":{"ha":729,"x_min":86,"x_max":661,"o":"m 356 850 l 356 932 q 378 954 356 954 l 411 954 q 433 932 433 954 l 433 850 q 411 828 433 828 l 378 828 q 356 850 356 828 m 86 372 q 101 568 86 494 q 155 681 117 642 q 243 731 193 719 q 361 743 293 743 q 460 740 429 743 q 528 729 492 738 q 585 703 564 721 q 625 658 607 686 q 661 482 661 606 q 615 369 661 403 q 472 336 568 336 l 143 336 q 167 153 143 218 q 227 69 190 89 q 328 50 264 50 q 647 74 486 50 l 647 32 q 350 -7 511 -7 q 328 -7 339 -7 q 138 77 189 -6 q 86 372 86 160 m 143 392 l 472 392 q 570 410 536 392 q 604 490 604 428 q 593 592 604 551 q 551 654 582 633 q 484 681 521 675 q 376 686 447 686 q 266 678 306 686 q 195 639 226 669 q 153 551 164 608 q 143 392 143 493 z "},"Ę":{"ha":800,"x_min":136,"x_max":764,"o":"m 733 14 q 635 -114 635 -37 q 656 -158 635 -136 q 764 -196 689 -196 l 764 -237 q 722 -239 750 -239 q 653 -217 694 -239 q 596 -154 613 -194 q 589 -117 589 -139 q 606 -67 589 -94 q 704 14 631 -18 l 733 14 m 136 171 l 136 836 q 185 974 136 932 q 303 1017 233 1017 q 311 1017 307 1017 l 733 1000 l 733 960 l 311 960 q 193 836 193 960 l 193 533 l 678 524 l 678 483 l 193 474 l 193 171 q 236 69 193 92 q 325 53 271 53 l 733 53 l 733 13 l 325 -4 q 299 -4 317 -4 q 253 1 281 -4 q 197 22 226 6 q 136 171 136 57 z "},"ę":{"ha":729,"x_min":86,"x_max":678,"o":"m 647 32 q 549 -96 549 -19 q 569 -142 549 -118 q 678 -178 603 -178 l 678 -219 q 636 -221 664 -221 q 567 -199 608 -221 q 510 -136 526 -176 q 503 -99 503 -121 q 519 -47 503 -76 q 618 32 544 0 l 647 32 m 86 372 q 101 568 86 494 q 155 681 117 642 q 243 731 193 719 q 361 743 293 743 q 460 740 429 743 q 528 729 492 738 q 585 703 564 721 q 625 658 607 686 q 661 482 661 606 q 615 369 661 403 q 472 336 568 336 l 143 336 q 167 153 143 218 q 227 69 190 89 q 328 50 264 50 q 647 74 486 50 l 647 32 q 350 -7 511 -7 q 328 -7 339 -7 q 138 77 189 -6 q 86 372 86 160 m 143 392 l 472 392 q 570 410 536 392 q 604 490 604 428 q 593 592 604 551 q 551 654 582 633 q 484 681 521 675 q 376 686 447 686 q 266 678 306 686 q 195 639 226 669 q 153 551 164 608 q 143 392 143 493 z "},"Ě":{"ha":800,"x_min":136,"x_max":733,"o":"m 268 1281 l 317 1281 l 458 1142 l 606 1281 l 656 1281 l 485 1100 l 432 1100 l 268 1281 m 136 171 l 136 836 q 185 974 136 932 q 303 1017 233 1017 q 311 1017 307 1017 l 733 1000 l 733 960 l 311 960 q 193 836 193 960 l 193 533 l 678 524 l 678 483 l 193 474 l 193 171 q 236 69 193 92 q 325 53 271 53 l 733 53 l 733 13 l 325 -4 q 299 -4 317 -4 q 253 1 281 -4 q 197 22 226 6 q 136 171 136 57 z "},"ě":{"ha":729,"x_min":86,"x_max":661,"o":"m 201 1006 l 250 1006 l 392 867 l 539 1006 l 589 1006 l 418 825 l 365 825 l 201 1006 m 86 372 q 101 568 86 494 q 155 681 117 642 q 243 731 193 719 q 361 743 293 743 q 460 740 429 743 q 528 729 492 738 q 585 703 564 721 q 625 658 607 686 q 661 482 661 606 q 615 369 661 403 q 472 336 568 336 l 143 336 q 167 153 143 218 q 227 69 190 89 q 328 50 264 50 q 647 74 486 50 l 647 32 q 350 -7 511 -7 q 328 -7 339 -7 q 138 77 189 -6 q 86 372 86 160 m 143 392 l 472 392 q 570 410 536 392 q 604 490 604 428 q 593 592 604 551 q 551 654 582 633 q 484 681 521 675 q 376 686 447 686 q 266 678 306 686 q 195 639 226 669 q 153 551 164 608 q 143 392 143 493 z "},"Ĝ":{"ha":857,"x_min":94,"x_max":775,"o":"m 265 1111 l 442 1292 l 493 1292 l 653 1111 l 603 1111 l 467 1250 l 315 1111 l 265 1111 m 123 206 q 114 243 123 206 q 99 347 104 279 q 94 512 94 415 q 100 676 94 608 q 124 814 106 743 q 176 928 143 885 q 266 1000 208 972 q 391 1028 324 1028 q 569 1016 458 1028 q 753 990 679 1004 l 753 944 q 727 947 751 944 q 665 954 703 950 q 583 961 626 958 q 405 971 469 971 q 295 951 340 971 q 222 894 250 931 q 178 800 194 858 q 151 511 151 699 q 206 153 151 256 q 411 50 261 51 q 535 67 458 50 q 665 100 613 83 l 718 117 l 718 482 l 443 482 l 443 518 q 681 540 524 540 q 775 536 725 540 l 775 0 l 736 0 l 721 72 q 584 19 674 46 q 411 -7 494 -7 q 403 -7 407 -7 q 267 20 325 -7 q 175 90 208 47 q 123 206 142 133 z "},"ĝ":{"ha":786,"x_min":76,"x_max":754,"o":"m 196 829 l 372 1010 l 424 1010 l 583 829 l 533 829 l 397 968 l 246 829 l 196 829 m 107 93 q 82 159 82 117 q 109 232 82 201 q 188 265 136 263 q 81 478 81 315 q 139 676 81 613 q 319 740 197 740 l 753 740 l 753 701 l 613 683 q 676 565 664 633 q 683 488 683 526 q 678 419 683 449 q 659 355 674 390 q 620 292 644 319 q 553 247 596 265 q 454 229 511 229 l 238 229 q 149 199 174 229 q 136 156 136 183 q 166 112 136 129 q 229 94 196 94 l 518 94 q 662 44 611 94 q 713 -92 713 -7 l 713 -171 q 504 -375 713 -375 l 296 -375 q 106 -278 160 -375 q 78 -161 78 -229 l 78 -35 l 107 93 m 232 39 q 135 69 174 39 l 135 -161 q 151 -243 135 -210 q 196 -292 168 -276 q 296 -319 244 -319 l 504 -319 q 657 -171 657 -319 l 657 -94 q 513 39 657 39 l 232 39 m 136 471 q 156 375 136 417 q 310 286 196 286 l 450 286 q 604 371 561 286 q 628 480 628 417 q 610 592 628 543 q 489 683 575 683 l 310 683 q 171 624 208 683 q 136 471 136 571 z "},"Ğ":{"ha":857,"x_min":94,"x_max":775,"o":"m 313 1269 l 347 1269 q 383 1181 347 1217 q 467 1146 419 1146 q 561 1181 525 1146 q 597 1269 597 1215 l 632 1269 q 583 1153 632 1196 q 472 1111 533 1111 q 361 1155 410 1111 q 313 1269 313 1199 m 123 206 q 114 243 123 206 q 99 347 104 279 q 94 512 94 415 q 100 676 94 608 q 124 814 106 743 q 176 928 143 885 q 266 1000 208 972 q 391 1028 324 1028 q 569 1016 458 1028 q 753 990 679 1004 l 753 944 q 727 947 751 944 q 665 954 703 950 q 583 961 626 958 q 405 971 469 971 q 295 951 340 971 q 222 894 250 931 q 178 800 194 858 q 151 511 151 699 q 206 153 151 256 q 411 50 261 51 q 535 67 458 50 q 665 100 613 83 l 718 117 l 718 482 l 443 482 l 443 518 q 681 540 524 540 q 775 536 725 540 l 775 0 l 736 0 l 721 72 q 584 19 674 46 q 411 -7 494 -7 q 403 -7 407 -7 q 267 20 325 -7 q 175 90 208 47 q 123 206 142 133 z "},"ğ":{"ha":786,"x_min":76,"x_max":754,"o":"m 225 986 l 260 986 q 296 898 260 933 q 379 863 332 863 q 474 897 438 863 q 510 986 510 932 l 544 986 q 495 870 544 913 q 384 828 446 828 q 274 872 322 828 q 225 986 225 915 m 107 93 q 82 159 82 117 q 109 232 82 201 q 188 265 136 263 q 81 478 81 315 q 139 676 81 613 q 319 740 197 740 l 753 740 l 753 701 l 613 683 q 676 565 664 633 q 683 488 683 526 q 678 419 683 449 q 659 355 674 390 q 620 292 644 319 q 553 247 596 265 q 454 229 511 229 l 238 229 q 149 199 174 229 q 136 156 136 183 q 166 112 136 129 q 229 94 196 94 l 518 94 q 662 44 611 94 q 713 -92 713 -7 l 713 -171 q 504 -375 713 -375 l 296 -375 q 106 -278 160 -375 q 78 -161 78 -229 l 78 -35 l 107 93 m 232 39 q 135 69 174 39 l 135 -161 q 151 -243 135 -210 q 196 -292 168 -276 q 296 -319 244 -319 l 504 -319 q 657 -171 657 -319 l 657 -94 q 513 39 657 39 l 232 39 m 136 471 q 156 375 136 417 q 310 286 196 286 l 450 286 q 604 371 561 286 q 628 480 628 417 q 610 592 628 543 q 489 683 575 683 l 310 683 q 171 624 208 683 q 136 471 136 571 z "},"Ġ":{"ha":857,"x_min":94,"x_max":775,"o":"m 429 1133 l 429 1215 q 451 1238 429 1238 l 485 1238 q 507 1215 507 1238 l 507 1133 q 485 1111 507 1111 l 451 1111 q 429 1133 429 1111 m 123 206 q 114 243 123 206 q 99 347 104 279 q 94 512 94 415 q 100 676 94 608 q 124 814 106 743 q 176 928 143 885 q 266 1000 208 972 q 391 1028 324 1028 q 569 1016 458 1028 q 753 990 679 1004 l 753 944 q 727 947 751 944 q 665 954 703 950 q 583 961 626 958 q 405 971 469 971 q 295 951 340 971 q 222 894 250 931 q 178 800 194 858 q 151 511 151 699 q 206 153 151 256 q 411 50 261 51 q 535 67 458 50 q 665 100 613 83 l 718 117 l 718 482 l 443 482 l 443 518 q 681 540 524 540 q 775 536 725 540 l 775 0 l 736 0 l 721 72 q 584 19 674 46 q 411 -7 494 -7 q 403 -7 407 -7 q 267 20 325 -7 q 175 90 208 47 q 123 206 142 133 z "},"ġ":{"ha":786,"x_min":76,"x_max":754,"o":"m 356 851 l 356 933 q 378 956 356 956 l 411 956 q 433 933 433 956 l 433 851 q 411 829 433 829 l 378 829 q 356 851 356 829 m 107 93 q 82 159 82 117 q 109 232 82 201 q 188 265 136 263 q 81 478 81 315 q 139 676 81 613 q 319 740 197 740 l 753 740 l 753 701 l 613 683 q 676 565 664 633 q 683 488 683 526 q 678 419 683 449 q 659 355 674 390 q 620 292 644 319 q 553 247 596 265 q 454 229 511 229 l 238 229 q 149 199 174 229 q 136 156 136 183 q 166 112 136 129 q 229 94 196 94 l 518 94 q 662 44 611 94 q 713 -92 713 -7 l 713 -171 q 504 -375 713 -375 l 296 -375 q 106 -278 160 -375 q 78 -161 78 -229 l 78 -35 l 107 93 m 232 39 q 135 69 174 39 l 135 -161 q 151 -243 135 -210 q 196 -292 168 -276 q 296 -319 244 -319 l 504 -319 q 657 -171 657 -319 l 657 -94 q 513 39 657 39 l 232 39 m 136 471 q 156 375 136 417 q 310 286 196 286 l 450 286 q 604 371 561 286 q 628 480 628 417 q 610 592 628 543 q 489 683 575 683 l 310 683 q 171 624 208 683 q 136 471 136 571 z "},"Ģ":{"ha":857,"x_min":94,"x_max":775,"o":"m 419 -187 l 419 -114 q 440 -90 419 -90 l 469 -90 q 490 -114 490 -90 l 490 -243 q 474 -290 490 -276 q 443 -304 458 -304 l 439 -304 l 422 -303 l 422 -283 q 450 -258 450 -283 l 450 -208 l 440 -208 q 419 -187 419 -208 m 123 206 q 114 243 123 206 q 99 347 104 279 q 94 512 94 415 q 100 676 94 608 q 124 814 106 743 q 176 928 143 885 q 266 1000 208 972 q 391 1028 324 1028 q 569 1016 458 1028 q 753 990 679 1004 l 753 944 q 727 947 751 944 q 665 954 703 950 q 583 961 626 958 q 405 971 469 971 q 295 951 340 971 q 222 894 250 931 q 178 800 194 858 q 151 511 151 699 q 206 153 151 256 q 411 50 261 51 q 535 67 458 50 q 665 100 613 83 l 718 117 l 718 482 l 443 482 l 443 518 q 681 540 524 540 q 775 536 725 540 l 775 0 l 736 0 l 721 72 q 584 19 674 46 q 411 -7 494 -7 q 403 -7 407 -7 q 267 20 325 -7 q 175 90 208 47 q 123 206 142 133 z "},"ģ":{"ha":785,"x_min":78,"x_max":753,"o":"m 357 844 l 357 975 q 373 1022 357 1008 q 403 1036 389 1036 l 407 1036 l 424 1033 l 424 1015 q 397 989 397 1015 l 397 940 l 407 940 q 428 918 428 940 l 428 844 q 407 822 428 822 l 378 822 q 357 844 357 822 m 107 90 q 79 159 79 115 q 108 233 79 203 q 188 265 136 263 q 81 478 81 314 q 140 676 81 613 q 319 740 199 740 l 753 740 l 753 701 l 613 683 q 642 651 632 664 q 668 590 653 638 q 683 495 683 542 q 678 419 683 449 q 659 355 674 390 q 620 292 644 319 q 553 247 596 265 q 454 229 510 229 l 238 229 q 150 200 174 229 q 138 164 138 185 q 238 94 138 108 l 511 60 q 656 5 600 49 q 713 -115 713 -39 l 713 -161 q 678 -297 713 -236 q 613 -354 657 -333 q 504 -375 568 -375 l 296 -375 q 137 -319 196 -375 q 78 -161 78 -264 l 78 -35 l 107 90 m 135 -161 q 196 -292 135 -258 q 296 -318 244 -318 l 504 -318 q 615 -279 575 -318 q 656 -161 656 -240 l 656 -122 q 506 3 656 -17 l 238 39 q 147 64 181 47 l 135 71 l 135 -161 m 310 683 q 175 629 213 683 q 138 481 138 575 q 181 336 138 386 q 310 286 225 286 l 450 286 q 585 342 543 286 q 626 488 626 397 q 590 631 626 578 q 489 683 553 683 l 310 683 z "},"Ĥ":{"ha":910,"x_min":136,"x_max":819,"o":"m 285 1107 l 461 1288 l 513 1288 l 672 1107 l 622 1107 l 486 1246 l 335 1107 l 285 1107 m 136 0 l 136 1017 l 193 1017 l 193 519 l 763 519 l 763 1017 l 819 1017 l 819 0 l 763 0 l 763 464 l 193 464 l 193 0 l 136 0 z "},"ĥ":{"ha":763,"x_min":-49,"x_max":696,"o":"m -49 1172 l 128 1353 l 179 1353 l 339 1172 l 289 1172 l 153 1311 l 1 1172 l -49 1172 m 121 0 l 121 1089 l 178 1089 l 178 651 q 468 750 335 750 q 635 681 574 750 q 696 514 696 611 l 696 0 l 639 0 l 639 514 q 593 644 639 596 q 467 693 547 693 q 326 674 386 693 q 178 610 265 656 l 178 0 l 121 0 z "},"Ħ":{"ha":918,"x_min":49,"x_max":907,"o":"m 49 736 l 49 775 l 136 775 l 136 1017 l 193 1017 l 193 775 l 763 775 l 763 1017 l 819 1017 l 819 775 l 907 775 l 907 736 l 819 736 l 819 0 l 763 0 l 763 464 l 193 464 l 193 0 l 136 0 l 136 736 l 49 736 m 193 519 l 763 519 l 763 736 l 193 736 l 193 519 z "},"ħ":{"ha":763,"x_min":1,"x_max":678,"o":"m 1 867 l 1 904 l 103 904 l 103 1089 l 161 1089 l 161 904 l 356 904 l 356 867 l 161 867 l 161 651 q 454 750 318 750 q 458 750 456 750 q 619 681 560 750 q 678 515 678 613 l 678 0 l 619 0 l 619 514 q 574 645 618 596 q 450 694 529 694 q 308 674 371 693 q 161 610 246 654 l 161 0 l 103 0 l 103 867 l 1 867 z "},"Ĩ":{"ha":283,"x_min":-69,"x_max":400,"o":"m 83 1238 q 173 1195 115 1236 q 246 1154 231 1154 q 274 1158 261 1154 q 297 1165 288 1161 q 322 1178 307 1169 q 342 1192 336 1186 q 383 1219 371 1214 l 400 1193 q 351 1150 367 1163 q 306 1122 336 1138 q 244 1108 275 1107 q 159 1149 214 1108 q 83 1190 104 1190 q 43 1184 63 1190 q 13 1172 24 1178 q -22 1150 1 1165 q -56 1128 -44 1135 l -69 1154 q -18 1197 -36 1182 q 83 1238 33 1238 m 136 0 l 136 1017 l 193 1017 l 193 0 l 136 0 z "},"ĩ":{"ha":261,"x_min":-104,"x_max":365,"o":"m 49 958 q 138 916 81 957 q 211 875 196 875 q 240 878 226 875 q 263 886 253 882 q 287 899 272 890 q 308 911 301 907 q 349 940 336 935 l 365 914 q 317 871 332 883 q 271 843 301 858 q 210 828 240 828 q 124 870 179 829 q 49 911 69 911 q 8 905 28 911 q -22 892 -11 899 q -56 871 -33 886 q -90 849 -79 856 l -104 875 q -53 917 -71 903 q 49 958 -1 958 m 103 0 l 103 738 l 160 738 l 160 0 l 103 0 z "},"Ī":{"ha":283,"x_min":-19,"x_max":349,"o":"m -19 1107 l -19 1150 l 349 1150 l 349 1107 l -19 1107 m 136 0 l 136 1017 l 193 1017 l 193 0 l 136 0 z "},"ī":{"ha":261,"x_min":-53,"x_max":315,"o":"m -53 828 l -53 871 l 315 871 l 315 828 l -53 828 m 103 0 l 103 738 l 160 738 l 160 0 l 103 0 z "},"Į":{"ha":283,"x_min":38,"x_max":213,"o":"m 182 0 q 83 -128 83 -51 q 104 -172 83 -150 q 213 -210 138 -210 l 213 -251 q 171 -253 199 -253 q 102 -231 143 -253 q 44 -168 61 -208 q 38 -131 38 -153 q 53 -81 38 -108 q 153 0 79 -32 l 182 0 m 136 0 l 136 1017 l 193 1017 l 193 0 l 136 0 z "},"į":{"ha":249,"x_min":14,"x_max":189,"o":"m 158 0 q 60 -128 60 -51 q 81 -172 60 -150 q 189 -210 114 -210 l 189 -251 q 147 -253 175 -253 q 78 -231 119 -253 q 21 -168 38 -208 q 14 -131 14 -153 q 31 -81 14 -108 q 129 0 56 -32 l 158 0 m 104 861 l 104 944 q 126 967 104 967 l 160 967 q 181 944 181 967 l 181 861 q 160 840 181 840 l 126 840 q 104 861 104 840 m 113 0 l 113 738 l 169 738 l 169 0 l 113 0 z "},"İ":{"ha":283,"x_min":126,"x_max":204,"o":"m 126 1129 l 126 1211 q 149 1233 126 1233 l 182 1233 q 204 1211 204 1233 l 204 1129 q 182 1107 204 1107 l 149 1107 q 126 1129 126 1107 m 136 0 l 136 1017 l 193 1017 l 193 0 l 136 0 z "},"ı":{"ha":261,"x_min":103,"x_max":160,"o":"m 103 0 l 103 738 l 160 738 l 160 0 l 103 0 z "},"Ĵ":{"ha":489,"x_min":60,"x_max":564,"o":"m 176 1107 l 353 1288 l 404 1288 l 564 1107 l 514 1107 l 378 1246 l 226 1107 l 176 1107 m 65 68 q 169 46 139 46 q 226 47 200 46 q 278 65 253 49 q 323 124 304 82 q 342 229 342 165 l 342 1017 l 399 1017 l 399 229 q 326 25 399 76 q 203 -8 279 -8 q 60 29 117 -8 l 65 68 z "},"ĵ":{"ha":257,"x_min":-74,"x_max":314,"o":"m -74 829 l 103 1024 l 156 1024 l 314 829 l 269 829 l 128 979 l -28 829 l -74 829 m 97 -375 l 97 738 l 156 738 l 156 -6 q 156 -49 156 -28 q 133 -375 156 -243 l 97 -375 z "},"Ķ":{"ha":822,"x_min":136,"x_max":771,"o":"m 403 -182 l 403 -108 q 424 -85 403 -85 l 453 -85 q 474 -108 474 -85 l 474 -237 q 458 -285 474 -271 q 426 -299 442 -299 l 422 -299 l 406 -297 l 406 -278 q 433 -253 433 -278 l 433 -203 l 424 -203 q 403 -182 403 -203 m 136 0 l 136 1017 l 193 1017 l 193 539 l 372 539 l 701 1017 l 771 1017 l 424 510 l 771 0 l 700 0 l 371 481 l 194 481 l 194 0 l 136 0 z "},"ķ":{"ha":692,"x_min":103,"x_max":658,"o":"m 340 -181 l 340 -107 q 361 -83 340 -83 l 392 -83 q 411 -107 411 -83 l 411 -236 q 395 -283 411 -269 q 364 -297 379 -297 l 360 -297 l 343 -294 l 343 -276 q 371 -251 371 -276 l 371 -201 l 361 -201 q 340 -181 340 -201 m 103 0 l 103 1086 l 160 1086 l 160 453 l 233 453 l 575 738 l 658 738 l 289 422 l 657 0 l 582 0 l 233 394 l 160 394 l 160 0 l 103 0 z "},"ĸ":{"ha":678,"x_min":103,"x_max":644,"o":"m 103 0 l 103 738 l 160 738 l 160 397 l 304 397 l 574 738 l 644 738 l 356 369 l 625 0 l 553 0 l 303 340 l 160 340 l 160 0 l 103 0 z "},"Ĺ":{"ha":775,"x_min":136,"x_max":724,"o":"m 147 1103 l 308 1288 l 376 1288 l 192 1103 l 147 1103 m 136 175 l 136 1017 l 193 1017 l 193 175 q 236 75 193 96 q 325 57 271 57 l 724 57 l 724 0 l 325 0 q 197 28 246 0 q 136 175 136 63 z "},"ĺ":{"ha":414,"x_min":103,"x_max":381,"o":"m 124 1171 l 285 1356 l 353 1356 l 168 1171 l 124 1171 m 103 263 l 103 1088 l 160 1088 l 160 263 q 200 92 160 131 q 234 67 219 74 q 310 49 249 61 q 381 38 371 38 l 381 0 l 278 0 q 147 63 190 0 q 103 263 103 125 z "},"Ļ":{"ha":775,"x_min":136,"x_max":724,"o":"m 404 -181 l 404 -107 q 425 -83 404 -83 l 456 -83 q 475 -107 475 -83 l 475 -236 q 459 -283 475 -269 q 428 -297 443 -297 l 424 -297 l 407 -294 l 407 -276 q 435 -251 435 -276 l 435 -201 l 425 -201 q 404 -181 404 -201 m 136 175 l 136 1017 l 193 1017 l 193 175 q 236 75 193 96 q 325 57 271 57 l 724 57 l 724 0 l 325 0 q 197 28 246 0 q 136 175 136 63 z "},"ļ":{"ha":414,"x_min":103,"x_max":381,"o":"m 171 -181 l 171 -107 q 192 -83 171 -83 l 222 -83 q 242 -107 242 -83 l 242 -236 q 226 -283 242 -269 q 194 -297 210 -297 l 190 -297 l 174 -294 l 174 -276 q 201 -251 201 -276 l 201 -201 l 192 -201 q 171 -181 171 -201 m 103 263 l 103 1088 l 160 1088 l 160 263 q 200 92 160 131 q 234 67 219 74 q 310 49 249 61 q 381 38 371 38 l 381 0 l 278 0 q 147 63 190 0 q 103 263 103 125 z "},"Ľ":{"ha":775,"x_min":136,"x_max":724,"o":"m 136 175 l 136 1017 l 193 1017 l 193 175 q 236 75 193 96 q 325 57 271 57 l 724 57 l 724 0 l 325 0 q 197 28 246 0 q 136 175 136 63 m 308 1072 l 365 1072 l 365 979 l 356 793 l 319 793 l 308 979 l 308 1072 z "},"ľ":{"ha":414,"x_min":103,"x_max":381,"o":"m 103 263 l 103 1088 l 160 1088 l 160 263 q 211 79 160 115 q 301 51 232 64 q 381 38 371 38 l 381 0 l 274 0 q 144 60 185 0 q 103 263 103 119 m 288 1086 l 344 1086 l 344 993 l 335 807 l 299 807 l 288 993 l 288 1086 z "},"Ł":{"ha":774,"x_min":22,"x_max":724,"o":"m 136 1017 l 193 1017 l 193 603 l 369 679 l 369 633 l 193 557 l 193 175 q 236 75 193 96 q 325 57 271 57 l 724 57 l 724 0 l 325 0 q 197 28 246 0 q 136 175 136 63 l 136 531 l 22 481 l 22 529 l 136 579 l 136 1017 z "},"ł":{"ha":428,"x_min":15,"x_max":394,"o":"m 117 1088 l 174 1088 l 174 664 l 363 757 l 361 710 l 174 617 l 174 263 q 201 108 174 149 q 285 57 228 67 q 394 38 385 38 l 394 0 l 288 0 q 160 60 203 0 q 117 263 117 121 l 117 590 l 15 540 l 15 588 l 117 638 l 117 1088 z "},"Ń":{"ha":931,"x_min":136,"x_max":840,"o":"m 478 1107 l 639 1292 l 707 1292 l 522 1107 l 478 1107 m 136 0 l 136 1017 l 196 1017 l 783 107 l 783 1017 l 840 1017 l 840 0 l 783 0 l 193 910 l 193 0 l 136 0 z "},"ń":{"ha":763,"x_min":103,"x_max":678,"o":"m 367 833 l 528 1018 l 596 1018 l 411 833 l 367 833 m 103 0 l 103 738 l 140 738 l 160 651 q 450 750 317 750 q 617 681 556 750 q 678 514 678 611 l 678 0 l 621 0 l 621 514 q 574 643 621 593 q 448 693 528 693 q 308 674 368 693 q 160 610 247 656 l 160 0 l 103 0 z "},"Ņ":{"ha":931,"x_min":136,"x_max":840,"o":"m 454 -185 l 454 -111 q 475 -87 454 -87 l 506 -87 q 525 -111 525 -87 l 525 -240 q 509 -287 525 -274 q 478 -301 493 -301 l 474 -301 l 457 -300 l 457 -281 q 485 -256 485 -281 l 485 -206 l 475 -206 q 454 -185 454 -206 m 136 0 l 136 1017 l 196 1017 l 783 107 l 783 1017 l 840 1017 l 840 0 l 783 0 l 193 910 l 193 0 l 136 0 z "},"ņ":{"ha":763,"x_min":103,"x_max":678,"o":"m 356 -181 l 356 -107 q 376 -83 356 -83 l 406 -83 q 426 -107 426 -83 l 426 -236 q 410 -283 426 -269 q 379 -297 394 -297 l 375 -297 l 358 -294 l 358 -276 q 386 -251 386 -276 l 386 -201 l 376 -201 q 356 -181 356 -201 m 103 0 l 103 738 l 140 738 l 160 651 q 450 750 317 750 q 617 681 556 750 q 678 514 678 611 l 678 0 l 621 0 l 621 514 q 574 643 621 593 q 448 693 528 693 q 308 674 368 693 q 160 610 247 656 l 160 0 l 103 0 z "},"Ň":{"ha":931,"x_min":136,"x_max":840,"o":"m 300 1288 l 349 1288 l 490 1149 l 638 1288 l 688 1288 l 517 1107 l 464 1107 l 300 1288 m 136 0 l 136 1017 l 196 1017 l 783 107 l 783 1017 l 840 1017 l 840 0 l 783 0 l 193 910 l 193 0 l 136 0 z "},"ň":{"ha":763,"x_min":103,"x_max":678,"o":"m 201 1014 l 250 1014 l 392 875 l 539 1014 l 589 1014 l 418 833 l 365 833 l 201 1014 m 103 0 l 103 738 l 140 738 l 160 651 q 450 750 317 750 q 617 681 556 750 q 678 514 678 611 l 678 0 l 621 0 l 621 514 q 574 643 621 593 q 448 693 528 693 q 308 674 368 693 q 160 610 247 656 l 160 0 l 103 0 z "},"Ŋ":{"ha":929,"x_min":136,"x_max":839,"o":"m 136 0 l 136 1017 l 196 1017 l 782 114 l 782 1017 l 839 1017 l 839 -117 q 781 -311 839 -265 q 588 -357 724 -357 l 588 -314 l 622 -308 q 655 -303 646 -306 q 684 -297 664 -301 q 713 -287 704 -293 q 735 -270 721 -281 q 756 -246 750 -260 q 769 -214 761 -232 q 782 -111 782 -181 l 782 0 l 196 907 l 194 0 l 136 0 z "},"ŋ":{"ha":779,"x_min":103,"x_max":678,"o":"m 103 0 l 103 738 l 138 738 l 160 651 q 249 701 219 686 q 333 733 278 715 q 440 750 388 750 q 613 680 547 750 q 678 514 678 610 l 678 -125 q 569 -317 674 -264 q 461 -351 524 -340 l 436 -319 q 621 -126 618 -274 l 621 514 q 569 640 621 588 q 440 693 518 693 q 333 679 386 693 q 251 651 281 665 q 160 607 221 638 l 160 0 l 103 0 z "},"Ō":{"ha":938,"x_min":111,"x_max":869,"o":"m 307 1107 l 307 1150 l 675 1150 l 675 1107 l 307 1107 m 156 164 q 144 192 156 164 q 122 303 132 219 q 111 515 111 388 q 129 738 111 642 q 176 891 147 835 q 256 977 204 947 q 360 1015 308 1007 q 485 1024 411 1024 q 603 1018 558 1024 q 696 994 649 1013 q 772 941 743 976 q 825 849 800 906 q 869 501 869 743 q 810 129 869 249 q 732 44 782 74 q 628 4 682 14 q 498 -6 574 -6 q 376 0 422 -6 q 283 23 331 6 q 207 74 235 40 q 156 164 179 108 m 192 764 q 185 740 192 764 q 174 651 179 717 q 168 469 168 585 q 184 265 168 353 q 242 128 200 176 q 339 66 283 81 q 490 51 394 51 q 640 67 585 51 q 738 131 696 83 q 796 267 779 178 q 813 494 813 356 q 798 719 813 632 q 761 855 783 806 q 694 929 739 904 q 608 960 650 954 q 506 967 565 967 q 420 965 447 967 q 358 958 393 964 q 301 938 322 951 q 256 903 281 925 q 218 846 232 881 q 192 764 204 811 z "},"ō":{"ha":793,"x_min":86,"x_max":708,"o":"m 213 828 l 213 871 l 581 871 l 581 828 l 213 828 m 394 -7 q 305 -7 394 -7 q 151 74 215 -7 q 86 368 86 156 q 154 663 86 581 q 398 744 222 744 q 641 656 574 744 q 708 361 708 568 q 641 74 708 154 q 394 -7 574 -7 m 210 637 q 192 620 210 637 q 158 537 174 604 q 143 363 143 469 q 158 194 143 257 q 209 100 174 131 q 285 60 244 69 q 396 50 326 50 q 508 60 465 50 q 586 103 550 71 q 651 358 651 163 q 586 632 651 569 q 508 676 550 665 q 396 688 465 688 q 286 678 326 688 q 210 637 246 669 z "},"Ő":{"ha":938,"x_min":111,"x_max":869,"o":"m 374 1107 l 535 1292 l 603 1292 l 418 1107 l 374 1107 m 564 1107 l 725 1292 l 794 1292 l 610 1107 l 564 1107 m 156 164 q 144 192 156 164 q 122 303 132 219 q 111 515 111 388 q 129 738 111 642 q 176 891 147 835 q 256 977 204 947 q 360 1015 308 1007 q 485 1024 411 1024 q 603 1018 558 1024 q 696 994 649 1013 q 772 941 743 976 q 825 849 800 906 q 869 501 869 743 q 810 129 869 249 q 732 44 782 74 q 628 4 682 14 q 498 -6 574 -6 q 376 0 422 -6 q 283 23 331 6 q 207 74 235 40 q 156 164 179 108 m 192 764 q 185 740 192 764 q 174 651 179 717 q 168 469 168 585 q 184 265 168 353 q 242 128 200 176 q 339 66 283 81 q 490 51 394 51 q 640 67 585 51 q 738 131 696 83 q 796 267 779 178 q 813 494 813 356 q 798 719 813 632 q 761 855 783 806 q 694 929 739 904 q 608 960 650 954 q 506 967 565 967 q 420 965 447 967 q 358 958 393 964 q 301 938 322 951 q 256 903 281 925 q 218 846 232 881 q 192 764 204 811 z "},"ő":{"ha":793,"x_min":86,"x_max":708,"o":"m 279 828 l 440 1013 l 508 1013 l 324 828 l 279 828 m 469 828 l 631 1013 l 700 1013 l 515 828 l 469 828 m 394 -7 q 305 -7 394 -7 q 151 74 215 -7 q 86 368 86 156 q 154 663 86 581 q 398 744 222 744 q 641 656 574 744 q 708 361 708 568 q 641 74 708 154 q 394 -7 574 -7 m 210 637 q 192 620 210 637 q 158 537 174 604 q 143 363 143 469 q 158 194 143 257 q 209 100 174 131 q 285 60 244 69 q 396 50 326 50 q 508 60 465 50 q 586 103 550 71 q 651 358 651 163 q 586 632 651 569 q 508 676 550 665 q 396 688 465 688 q 286 678 326 688 q 210 637 246 669 z "},"Œ":{"ha":1464,"x_min":111,"x_max":1382,"o":"m 197 791 q 191 766 197 791 q 176 669 185 742 q 168 474 168 596 q 183 265 168 353 q 240 128 199 176 q 338 66 282 81 q 481 51 393 51 q 619 63 568 51 q 710 102 671 74 q 771 183 750 131 q 813 510 813 289 q 776 814 813 721 q 733 896 757 865 q 669 942 710 926 q 522 967 604 967 q 409 965 439 967 q 340 953 379 963 q 279 925 301 943 q 233 874 257 907 q 197 791 208 840 m 154 164 q 142 192 154 164 q 121 303 131 219 q 111 514 111 386 q 129 738 111 642 q 176 891 147 835 q 256 977 204 947 q 358 1015 307 1007 q 517 1024 410 1024 q 700 991 624 1024 q 817 857 776 958 q 868 979 822 942 q 978 1017 914 1017 q 988 1017 983 1017 l 1382 1000 l 1382 960 l 988 960 q 869 840 869 960 q 869 643 869 719 q 869 533 869 567 l 1326 524 l 1326 483 l 869 474 l 869 171 q 913 69 869 92 q 1001 53 947 53 l 1382 53 l 1382 13 l 1001 -4 q 985 -4 993 -4 q 869 28 915 -4 q 815 156 822 60 q 699 27 775 60 q 490 -6 624 -6 q 297 17 360 -6 q 206 74 235 40 q 154 164 178 108 z "},"œ":{"ha":1294,"x_min":86,"x_max":1226,"o":"m 396 -7 q 151 74 215 -7 q 86 368 86 156 q 154 663 86 581 q 396 744 222 744 q 579 706 513 744 q 675 588 646 668 q 761 713 700 682 q 946 743 822 743 q 1150 703 1101 743 q 1218 586 1204 660 q 1226 472 1226 542 q 1038 336 1226 336 l 708 336 q 708 326 708 331 q 752 108 708 167 q 893 50 796 50 q 1213 74 1051 50 l 1213 32 q 915 -7 1078 -7 q 751 29 804 -7 q 676 144 699 65 q 581 28 647 63 q 396 -7 515 -7 m 210 637 q 192 620 210 637 q 158 537 174 604 q 143 363 143 469 q 158 194 143 257 q 209 100 174 131 q 285 60 244 69 q 410 50 326 50 q 544 74 493 50 q 650 363 650 122 q 586 628 650 564 q 508 675 551 663 q 395 688 464 688 q 286 678 326 688 q 210 637 246 669 m 1038 392 q 1135 410 1101 392 q 1169 490 1169 428 q 1158 592 1169 551 q 1117 654 1147 633 q 1049 681 1086 675 q 930 686 1013 686 q 801 667 847 686 q 731 588 754 649 q 708 406 708 526 q 708 392 708 399 l 1038 392 z "},"Ŕ":{"ha":806,"x_min":103,"x_max":758,"o":"m 379 1100 l 540 1285 l 608 1285 l 424 1100 l 379 1100 m 103 0 l 103 1017 l 503 1017 q 693 936 635 1017 q 744 729 744 863 q 644 467 744 524 q 539 439 600 442 l 758 0 l 699 0 l 476 438 q 160 453 169 446 l 160 0 l 103 0 m 160 497 l 503 497 q 572 504 544 497 q 628 533 600 511 q 686 722 686 578 q 636 913 686 867 q 503 958 586 958 l 160 958 l 160 497 z "},"ŕ":{"ha":589,"x_min":103,"x_max":556,"o":"m 317 829 l 478 1014 l 546 1014 l 361 829 l 317 829 m 103 0 l 103 738 l 139 738 l 160 644 q 251 694 221 679 q 339 728 281 710 q 463 746 397 746 q 556 735 529 746 l 556 679 q 467 689 507 689 q 406 687 428 689 q 360 679 383 685 q 322 669 336 674 q 281 654 307 665 q 244 639 256 643 q 160 597 171 603 l 160 0 l 103 0 z "},"Ŗ":{"ha":806,"x_min":103,"x_max":758,"o":"m 372 -181 l 372 -107 q 393 -83 372 -83 l 422 -83 q 443 -107 443 -83 l 443 -236 q 427 -283 443 -269 q 396 -297 411 -297 l 392 -297 l 375 -294 l 375 -276 q 403 -251 403 -276 l 403 -201 l 393 -201 q 372 -181 372 -201 m 103 0 l 103 1017 l 503 1017 q 693 936 635 1017 q 744 729 744 863 q 644 467 744 524 q 539 439 600 442 l 758 0 l 699 0 l 476 438 q 160 453 169 446 l 160 0 l 103 0 m 160 497 l 503 497 q 572 504 544 497 q 628 533 600 511 q 686 722 686 578 q 636 913 686 867 q 503 958 586 958 l 160 958 l 160 497 z "},"ŗ":{"ha":589,"x_min":90,"x_max":551,"o":"m 92 -181 l 92 -107 q 113 -83 92 -83 l 142 -83 q 163 -107 163 -83 l 163 -236 q 147 -283 163 -269 q 115 -297 131 -297 l 111 -297 l 94 -294 l 94 -276 q 122 -251 122 -276 l 122 -201 l 113 -201 q 92 -181 92 -201 m 99 0 l 99 738 l 135 738 l 156 644 q 247 694 217 679 q 335 728 276 710 q 459 746 393 746 q 551 735 525 746 l 551 679 q 463 689 503 689 q 401 687 424 689 q 356 679 379 685 q 317 669 332 674 q 277 654 303 665 q 242 639 251 643 q 156 597 167 603 l 156 0 l 99 0 z "},"Ř":{"ha":806,"x_min":103,"x_max":758,"o":"m 215 1283 l 264 1283 l 406 1144 l 553 1283 l 603 1283 l 432 1103 l 379 1103 l 215 1283 m 103 0 l 103 1017 l 503 1017 q 693 936 635 1017 q 744 729 744 863 q 644 467 744 524 q 539 439 600 442 l 758 0 l 699 0 l 476 438 q 160 453 169 446 l 160 0 l 103 0 m 160 497 l 503 497 q 572 504 544 497 q 628 533 600 511 q 686 722 686 578 q 636 913 686 867 q 503 958 586 958 l 160 958 l 160 497 z "},"ř":{"ha":589,"x_min":103,"x_max":556,"o":"m 136 1010 l 185 1010 l 326 871 l 474 1010 l 524 1010 l 353 829 l 300 829 l 136 1010 m 103 0 l 103 738 l 139 738 l 160 644 q 251 694 221 679 q 339 728 281 710 q 463 746 397 746 q 556 735 529 746 l 556 679 q 467 689 507 689 q 406 687 428 689 q 360 679 383 685 q 322 669 336 674 q 281 654 307 665 q 244 639 256 643 q 160 597 171 603 l 160 0 l 103 0 z "},"Ś":{"ha":813,"x_min":111,"x_max":744,"o":"m 407 1108 l 568 1293 l 636 1293 l 451 1108 l 407 1108 m 111 686 l 111 778 q 181 972 111 918 q 383 1025 251 1025 q 703 996 515 1025 l 703 956 l 382 968 q 363 968 372 968 q 219 929 271 968 q 168 778 168 890 l 168 686 q 213 558 168 589 q 351 528 257 528 l 522 528 q 697 469 649 528 q 744 311 744 411 l 744 217 q 658 28 744 76 q 472 -11 586 -11 q 301 -3 418 -11 q 139 14 185 6 l 139 57 q 387 46 258 46 q 549 52 515 46 q 617 75 583 58 q 688 217 688 111 l 688 311 q 649 431 688 392 q 522 469 611 469 l 354 469 q 150 538 199 469 q 119 604 126 571 q 111 686 111 638 z "},"ś":{"ha":700,"x_min":68,"x_max":632,"o":"m 333 835 l 494 1019 l 563 1019 l 378 835 l 333 835 m 68 501 l 68 565 q 113 699 68 654 q 260 744 157 744 q 594 729 436 744 l 594 689 l 260 689 q 154 660 183 689 q 125 565 125 631 l 125 501 q 161 410 125 426 q 201 398 182 400 q 260 396 219 396 l 451 396 q 583 351 535 396 q 632 229 632 307 l 632 161 q 575 19 632 53 q 465 -7 526 -7 q 272 0 403 -7 q 99 11 140 7 l 99 50 l 451 50 q 544 72 519 50 q 575 161 575 101 l 575 229 q 544 308 575 278 q 451 339 513 339 l 260 339 q 110 369 153 339 q 68 501 68 400 z "},"Ŝ":{"ha":813,"x_min":111,"x_max":744,"o":"m 235 1108 l 411 1289 l 463 1289 l 622 1108 l 572 1108 l 436 1247 l 285 1108 l 235 1108 m 111 686 l 111 778 q 181 972 111 918 q 383 1025 251 1025 q 703 996 515 1025 l 703 956 l 382 968 q 363 968 372 968 q 219 929 271 968 q 168 778 168 890 l 168 686 q 213 558 168 589 q 351 528 257 528 l 522 528 q 697 469 649 528 q 744 311 744 411 l 744 217 q 658 28 744 76 q 472 -11 586 -11 q 301 -3 418 -11 q 139 14 185 6 l 139 57 q 387 46 258 46 q 549 52 515 46 q 617 75 583 58 q 688 217 688 111 l 688 311 q 649 431 688 392 q 522 469 611 469 l 354 469 q 150 538 199 469 q 119 604 126 571 q 111 686 111 638 z "},"ŝ":{"ha":700,"x_min":68,"x_max":632,"o":"m 154 828 l 331 1008 l 382 1008 l 542 828 l 492 828 l 356 967 l 204 828 l 154 828 m 68 501 l 68 565 q 113 699 68 654 q 260 744 157 744 q 594 729 436 744 l 594 689 l 260 689 q 154 660 183 689 q 125 565 125 631 l 125 501 q 161 410 125 426 q 201 398 182 400 q 260 396 219 396 l 451 396 q 583 351 535 396 q 632 229 632 307 l 632 161 q 575 19 632 53 q 465 -7 526 -7 q 272 0 403 -7 q 99 11 140 7 l 99 50 l 451 50 q 544 72 519 50 q 575 161 575 101 l 575 229 q 544 308 575 278 q 451 339 513 339 l 260 339 q 110 369 153 339 q 68 501 68 400 z "},"Ş":{"ha":813,"x_min":111,"x_max":744,"o":"m 428 -72 q 428 -62 428 -68 l 475 -62 q 447 -211 475 -171 q 335 -251 418 -251 l 283 -251 l 283 -228 l 338 -215 q 408 -176 388 -206 q 428 -72 428 -147 m 111 686 l 111 778 q 181 972 111 918 q 383 1025 251 1025 q 703 996 515 1025 l 703 956 l 382 968 q 363 968 372 968 q 219 929 271 968 q 168 778 168 890 l 168 686 q 213 558 168 589 q 351 528 257 528 l 522 528 q 697 469 649 528 q 744 311 744 411 l 744 217 q 658 28 744 76 q 472 -11 586 -11 q 301 -3 418 -11 q 139 14 185 6 l 139 57 q 387 46 258 46 q 549 52 515 46 q 617 75 583 58 q 688 217 688 111 l 688 311 q 649 431 688 392 q 522 469 611 469 l 354 469 q 150 538 199 469 q 119 604 126 571 q 111 686 111 638 z "},"ş":{"ha":700,"x_min":68,"x_max":632,"o":"m 349 -64 q 349 -54 349 -60 l 396 -54 q 367 -203 396 -162 q 256 -243 339 -243 l 204 -243 l 204 -219 l 258 -207 q 328 -168 308 -197 q 349 -64 349 -139 m 68 501 l 68 565 q 113 699 68 654 q 260 744 157 744 q 594 729 436 744 l 594 689 l 260 689 q 154 660 183 689 q 125 565 125 631 l 125 501 q 161 410 125 426 q 201 398 182 400 q 260 396 219 396 l 451 396 q 583 351 535 396 q 632 229 632 307 l 632 161 q 575 19 632 53 q 465 -7 526 -7 q 272 0 403 -7 q 99 11 140 7 l 99 50 l 451 50 q 544 72 519 50 q 575 161 575 101 l 575 229 q 544 308 575 278 q 451 339 513 339 l 260 339 q 110 369 153 339 q 68 501 68 400 z "},"Š":{"ha":813,"x_min":111,"x_max":744,"o":"m 246 1289 l 294 1289 l 436 1150 l 583 1289 l 633 1289 l 463 1108 l 410 1108 l 246 1289 m 111 686 l 111 778 q 181 972 111 918 q 383 1025 251 1025 q 703 996 515 1025 l 703 956 l 382 968 q 363 968 372 968 q 219 929 271 968 q 168 778 168 890 l 168 686 q 213 558 168 589 q 351 528 257 528 l 522 528 q 697 469 649 528 q 744 311 744 411 l 744 217 q 658 28 744 76 q 472 -11 586 -11 q 301 -3 418 -11 q 139 14 185 6 l 139 57 q 387 46 258 46 q 549 52 515 46 q 617 75 583 58 q 688 217 688 111 l 688 311 q 649 431 688 392 q 522 469 611 469 l 354 469 q 150 538 199 469 q 119 604 126 571 q 111 686 111 638 z "},"š":{"ha":700,"x_min":68,"x_max":632,"o":"m 167 1015 l 215 1015 l 357 876 l 504 1015 l 554 1015 l 383 835 l 331 835 l 167 1015 m 68 501 l 68 565 q 113 699 68 654 q 260 744 157 744 q 594 729 436 744 l 594 689 l 260 689 q 154 660 183 689 q 125 565 125 631 l 125 501 q 161 410 125 426 q 201 398 182 400 q 260 396 219 396 l 451 396 q 583 351 535 396 q 632 229 632 307 l 632 161 q 575 19 632 53 q 465 -7 526 -7 q 272 0 403 -7 q 99 11 140 7 l 99 50 l 451 50 q 544 72 519 50 q 575 161 575 101 l 575 229 q 544 308 575 278 q 451 339 513 339 l 260 339 q 110 369 153 339 q 68 501 68 400 z "},"Ţ":{"ha":826,"x_min":64,"x_max":779,"o":"m 393 -74 q 393 -64 393 -69 l 440 -64 q 412 -212 440 -172 q 300 -253 383 -253 l 249 -253 l 249 -229 l 303 -217 q 373 -178 353 -207 q 393 -74 393 -149 m 64 960 l 64 1017 l 779 1017 l 779 960 l 446 960 l 446 0 l 389 0 l 389 960 l 64 960 z "},"ţ":{"ha":499,"x_min":35,"x_max":449,"o":"m 264 -81 q 264 -71 264 -76 l 311 -71 q 283 -219 311 -179 q 171 -260 254 -260 l 119 -260 l 119 -236 l 174 -224 q 244 -185 224 -214 q 264 -81 264 -156 m 35 682 l 35 724 l 158 739 l 174 944 l 215 944 l 215 739 l 449 739 l 449 682 l 215 682 l 215 263 q 256 92 215 131 q 290 67 275 74 q 365 49 304 61 q 436 38 426 38 l 436 0 l 333 0 q 202 63 246 0 q 158 263 158 125 l 158 682 l 35 682 z "},"Ť":{"ha":826,"x_min":64,"x_max":779,"o":"m 224 1288 l 272 1288 l 414 1149 l 561 1288 l 611 1288 l 440 1107 l 388 1107 l 224 1288 m 64 960 l 64 1017 l 779 1017 l 779 960 l 446 960 l 446 0 l 389 0 l 389 960 l 64 960 z "},"ť":{"ha":482,"x_min":35,"x_max":449,"o":"m 35 682 l 35 724 l 158 739 l 174 944 l 215 944 l 215 739 l 449 739 l 449 682 l 215 682 l 215 264 q 253 94 215 132 q 286 69 272 75 q 363 51 300 64 q 436 39 426 39 l 436 1 l 328 1 q 201 62 244 1 q 158 264 158 122 l 158 682 l 35 682 m 319 1047 l 356 1110 l 378 1078 l 374 953 l 343 831 l 326 893 l 319 1047 z "},"Ŧ":{"ha":826,"x_min":60,"x_max":775,"o":"m 60 960 l 60 1017 l 775 1017 l 775 960 l 442 960 l 442 599 l 636 599 l 636 560 l 442 560 l 442 0 l 385 0 l 385 560 l 208 560 l 208 599 l 385 599 l 385 960 l 60 960 z "},"ŧ":{"ha":482,"x_min":35,"x_max":449,"o":"m 35 682 l 35 724 l 158 739 l 174 944 l 215 944 l 215 739 l 449 739 l 449 682 l 215 682 l 215 457 l 379 457 l 379 418 l 215 418 l 215 264 q 264 81 215 114 q 293 67 283 68 q 432 40 413 40 l 432 1 l 328 1 q 199 61 240 1 q 158 264 158 121 l 158 418 l 46 418 l 46 457 l 158 457 l 158 682 l 35 682 z "},"Ũ":{"ha":944,"x_min":136,"x_max":856,"o":"m 414 1236 q 503 1194 446 1235 q 576 1153 561 1153 q 605 1156 592 1153 q 628 1164 618 1160 q 652 1176 638 1168 q 672 1189 667 1185 q 714 1218 701 1213 l 731 1192 q 682 1149 697 1161 q 636 1121 667 1136 q 575 1106 606 1106 q 490 1148 544 1107 q 414 1189 435 1189 q 374 1183 393 1189 q 343 1170 354 1176 q 309 1149 332 1164 q 275 1126 286 1133 l 261 1153 q 313 1194 294 1181 q 414 1236 364 1236 m 136 444 l 136 1017 l 193 1017 l 193 444 q 213 217 193 301 q 282 99 232 133 q 372 57 332 64 q 499 50 411 50 l 500 50 q 710 106 660 50 q 788 283 772 175 q 797 444 797 353 l 797 1017 l 856 1017 l 856 444 q 800 128 856 225 q 763 72 781 94 q 717 33 746 49 q 667 10 688 18 q 613 -1 647 3 q 532 -7 567 -7 q 474 -7 497 -7 q 430 -6 450 -7 q 373 -2 410 -6 q 317 9 336 1 q 268 33 297 17 q 223 71 239 49 q 188 127 207 93 q 158 206 168 161 q 136 444 136 318 z "},"ũ":{"ha":763,"x_min":86,"x_max":661,"o":"m 292 958 q 381 916 324 957 q 454 875 439 875 q 483 878 469 875 q 506 886 496 882 q 530 899 515 890 q 550 911 544 907 q 592 940 579 935 l 608 914 q 560 871 575 883 q 514 843 544 858 q 453 828 483 828 q 367 870 422 829 q 292 911 313 911 q 251 905 271 911 q 221 892 232 899 q 187 871 210 886 q 153 849 164 856 l 139 875 q 190 917 172 903 q 292 958 242 958 m 86 225 l 86 739 l 143 739 l 143 225 q 190 96 143 146 q 317 46 236 46 q 458 65 397 46 q 604 128 518 83 l 604 739 l 661 739 l 661 1 l 624 1 l 604 88 q 314 -11 447 -11 q 147 58 208 -11 q 86 225 86 128 z "},"Ū":{"ha":944,"x_min":136,"x_max":856,"o":"m 311 1107 l 311 1150 l 679 1150 l 679 1107 l 311 1107 m 136 444 l 136 1017 l 193 1017 l 193 444 q 213 217 193 301 q 282 99 232 133 q 372 57 332 64 q 499 50 411 50 l 500 50 q 710 106 660 50 q 788 283 772 175 q 797 444 797 353 l 797 1017 l 856 1017 l 856 444 q 800 128 856 225 q 763 72 781 94 q 717 33 746 49 q 667 10 688 18 q 613 -1 647 3 q 532 -7 567 -7 q 474 -7 497 -7 q 430 -6 450 -7 q 373 -2 410 -6 q 317 9 336 1 q 268 33 297 17 q 223 71 239 49 q 188 127 207 93 q 158 206 168 161 q 136 444 136 318 z "},"ū":{"ha":763,"x_min":86,"x_max":661,"o":"m 189 828 l 189 871 l 557 871 l 557 828 l 189 828 m 86 225 l 86 739 l 143 739 l 143 225 q 190 96 143 146 q 317 46 236 46 q 458 65 397 46 q 604 128 518 83 l 604 739 l 661 739 l 661 1 l 624 1 l 604 88 q 314 -11 447 -11 q 147 58 208 -11 q 86 225 86 128 z "},"Ŭ":{"ha":944,"x_min":136,"x_max":856,"o":"m 336 1265 l 371 1265 q 407 1177 371 1213 q 490 1142 443 1142 q 585 1176 549 1142 q 621 1265 621 1211 l 656 1265 q 606 1149 656 1192 q 495 1107 557 1107 q 385 1151 433 1107 q 336 1265 336 1194 m 136 444 l 136 1017 l 193 1017 l 193 444 q 213 217 193 301 q 282 99 232 133 q 372 57 332 64 q 499 50 411 50 l 500 50 q 710 106 660 50 q 788 283 772 175 q 797 444 797 353 l 797 1017 l 856 1017 l 856 444 q 800 128 856 225 q 763 72 781 94 q 717 33 746 49 q 667 10 688 18 q 613 -1 647 3 q 532 -7 567 -7 q 474 -7 497 -7 q 430 -6 450 -7 q 373 -2 410 -6 q 317 9 336 1 q 268 33 297 17 q 223 71 239 49 q 188 127 207 93 q 158 206 168 161 q 136 444 136 318 z "},"ŭ":{"ha":763,"x_min":86,"x_max":661,"o":"m 218 986 l 253 986 q 289 898 253 933 q 372 863 325 863 q 467 897 431 863 q 503 986 503 932 l 538 986 q 488 870 538 913 q 377 828 439 828 q 267 872 315 828 q 218 986 218 915 m 86 225 l 86 739 l 143 739 l 143 225 q 190 96 143 146 q 317 46 236 46 q 458 65 397 46 q 604 128 518 83 l 604 739 l 661 739 l 661 1 l 624 1 l 604 88 q 314 -11 447 -11 q 147 58 208 -11 q 86 225 86 128 z "},"Ů":{"ha":944,"x_min":136,"x_max":856,"o":"m 397 1148 q 376 1168 397 1148 q 356 1249 356 1189 q 397 1350 356 1308 q 497 1392 439 1392 q 596 1350 556 1392 q 636 1249 636 1308 q 596 1148 636 1189 q 497 1107 556 1107 q 397 1148 439 1107 m 422 1324 q 406 1308 422 1324 q 390 1249 390 1292 q 422 1174 390 1206 q 497 1143 453 1143 q 571 1174 540 1143 q 601 1249 601 1204 q 571 1324 601 1293 q 497 1356 540 1356 q 422 1324 453 1356 m 136 444 l 136 1017 l 193 1017 l 193 444 q 213 217 193 301 q 282 99 232 133 q 372 57 332 64 q 499 50 411 50 l 500 50 q 710 106 660 50 q 788 283 772 175 q 797 444 797 353 l 797 1017 l 856 1017 l 856 444 q 800 128 856 225 q 763 72 781 94 q 717 33 746 49 q 667 10 688 18 q 613 -1 647 3 q 532 -7 567 -7 q 474 -7 497 -7 q 430 -6 450 -7 q 373 -2 410 -6 q 317 9 336 1 q 268 33 297 17 q 223 71 239 49 q 188 127 207 93 q 158 206 168 161 q 136 444 136 318 z "},"ů":{"ha":763,"x_min":86,"x_max":661,"o":"m 275 869 q 254 889 275 869 q 233 969 233 910 q 275 1071 233 1029 q 375 1113 317 1113 q 474 1071 433 1113 q 514 969 514 1029 q 474 869 514 910 q 375 828 433 828 q 275 869 317 828 m 374 1076 q 352 1076 374 1076 q 299 1045 331 1076 q 268 970 268 1014 q 299 895 268 926 q 374 864 331 864 q 449 894 418 864 q 479 969 479 925 q 449 1045 479 1014 q 374 1076 418 1076 m 86 225 l 86 739 l 143 739 l 143 225 q 190 96 143 146 q 317 46 236 46 q 458 65 397 46 q 604 128 518 83 l 604 739 l 661 739 l 661 1 l 624 1 l 604 88 q 314 -11 447 -11 q 147 58 208 -11 q 86 225 86 128 z "},"Ű":{"ha":944,"x_min":136,"x_max":856,"o":"m 378 1107 l 539 1292 l 607 1292 l 422 1107 l 378 1107 m 568 1107 l 729 1292 l 799 1292 l 614 1107 l 568 1107 m 136 444 l 136 1017 l 193 1017 l 193 444 q 213 217 193 301 q 282 99 232 133 q 372 57 332 64 q 499 50 411 50 l 500 50 q 710 106 660 50 q 788 283 772 175 q 797 444 797 353 l 797 1017 l 856 1017 l 856 444 q 800 128 856 225 q 763 72 781 94 q 717 33 746 49 q 667 10 688 18 q 613 -1 647 3 q 532 -7 567 -7 q 474 -7 497 -7 q 430 -6 450 -7 q 373 -2 410 -6 q 317 9 336 1 q 268 33 297 17 q 223 71 239 49 q 188 127 207 93 q 158 206 168 161 q 136 444 136 318 z "},"ű":{"ha":763,"x_min":86,"x_max":676,"o":"m 256 828 l 417 1013 l 485 1013 l 300 828 l 256 828 m 446 828 l 607 1013 l 676 1013 l 492 828 l 446 828 m 86 225 l 86 739 l 143 739 l 143 225 q 190 96 143 146 q 317 46 236 46 q 458 65 397 46 q 604 128 518 83 l 604 739 l 661 739 l 661 1 l 624 1 l 604 88 q 314 -11 447 -11 q 147 58 208 -11 q 86 225 86 128 z "},"Ų":{"ha":944,"x_min":136,"x_max":856,"o":"m 511 -6 q 413 -133 413 -57 q 433 -178 413 -156 q 542 -215 467 -215 l 542 -257 q 500 -258 528 -258 q 431 -236 472 -258 q 374 -174 390 -214 q 367 -136 367 -158 q 383 -86 367 -114 q 482 -6 408 -37 l 511 -6 m 136 444 l 136 1017 l 193 1017 l 193 444 q 213 217 193 301 q 282 99 232 133 q 372 57 332 64 q 499 50 411 50 l 500 50 q 710 106 660 50 q 788 283 772 175 q 797 444 797 353 l 797 1017 l 856 1017 l 856 444 q 800 128 856 225 q 763 72 781 94 q 717 33 746 49 q 667 10 688 18 q 613 -1 647 3 q 532 -7 567 -7 q 474 -7 497 -7 q 430 -6 450 -7 q 373 -2 410 -6 q 317 9 336 1 q 268 33 297 17 q 223 71 239 49 q 188 127 207 93 q 158 206 168 161 q 136 444 136 318 z "},"ų":{"ha":839,"x_min":108,"x_max":711,"o":"m 681 1 q 582 -126 582 -50 q 603 -172 582 -149 q 711 -208 636 -208 l 711 -250 q 669 -251 697 -251 q 601 -229 642 -251 q 543 -167 560 -207 q 536 -129 536 -151 q 553 -78 536 -107 q 651 1 578 -31 l 681 1 m 108 225 l 108 739 l 165 739 l 165 225 q 212 96 165 146 q 339 46 258 46 q 480 65 419 46 q 626 128 540 83 l 626 739 l 683 739 l 683 1 l 646 1 l 626 88 q 336 -11 469 -11 q 169 58 231 -11 q 108 225 108 128 z "},"Ŵ":{"ha":1343,"x_min":78,"x_max":1307,"o":"m 503 1104 l 679 1285 l 731 1285 l 890 1104 l 840 1104 l 704 1243 l 553 1104 l 503 1104 m 78 1017 l 139 1017 l 472 83 l 782 1017 l 846 1017 l 719 631 l 931 81 l 1247 1017 l 1307 1017 l 965 0 l 900 0 l 689 540 l 504 0 l 439 0 l 78 1017 z "},"ŵ":{"ha":1090,"x_min":33,"x_max":1057,"o":"m 364 825 l 540 1006 l 592 1006 l 751 825 l 701 825 l 565 964 l 414 825 l 364 825 m 35 738 l 96 738 l 349 79 l 589 738 l 649 738 l 556 475 l 735 79 l 997 738 l 1057 738 l 767 0 l 707 0 l 528 401 l 381 0 l 319 0 l 35 738 z "},"Ŷ":{"ha":864,"x_min":78,"x_max":828,"o":"m 254 1104 l 431 1285 l 482 1285 l 642 1104 l 592 1104 l 456 1243 l 304 1104 l 254 1104 m 467 0 l 410 0 l 410 361 l 78 1017 l 140 1017 l 439 431 l 764 1017 l 828 1017 l 467 361 l 467 0 z "},"ŷ":{"ha":746,"x_min":36,"x_max":708,"o":"m 179 828 l 356 1008 l 407 1008 l 567 828 l 517 828 l 381 967 l 229 828 l 179 828 m 36 738 l 97 738 l 294 161 q 403 58 331 61 l 418 60 l 647 738 l 708 738 l 385 -233 l 307 -375 l 274 -375 l 399 0 q 235 153 281 6 l 36 738 z "},"Ÿ":{"ha":864,"x_min":78,"x_max":828,"o":"m 247 1119 q 242 1125 247 1119 q 236 1147 236 1131 q 247 1175 236 1164 q 275 1186 258 1186 q 303 1175 292 1186 q 315 1147 315 1164 q 303 1119 315 1131 q 275 1107 292 1107 q 247 1119 258 1107 m 601 1119 q 595 1125 601 1119 q 589 1147 589 1131 q 601 1175 589 1164 q 629 1186 613 1186 q 658 1175 646 1186 q 669 1147 669 1164 q 658 1119 669 1131 q 629 1107 646 1107 q 601 1119 613 1107 m 467 0 l 410 0 l 410 361 l 78 1017 l 140 1017 l 439 431 l 764 1017 l 828 1017 l 467 361 l 467 0 z "},"Ź":{"ha":768,"x_min":60,"x_max":717,"o":"m 385 1107 l 546 1292 l 614 1292 l 429 1107 l 385 1107 m 60 0 l 60 57 l 643 960 l 60 960 l 60 1017 l 717 1017 l 717 960 l 133 57 l 717 57 l 717 0 l 60 0 z "},"ź":{"ha":650,"x_min":51,"x_max":601,"o":"m 304 824 l 465 1008 l 533 1008 l 349 824 l 304 824 m 51 681 l 51 738 l 601 738 l 601 681 l 146 58 l 601 58 l 601 1 l 72 1 l 72 58 l 528 681 l 51 681 z "},"Ż":{"ha":768,"x_min":60,"x_max":717,"o":"m 350 1129 l 350 1211 q 372 1233 350 1233 l 406 1233 q 428 1211 428 1233 l 428 1129 q 406 1107 428 1107 l 372 1107 q 350 1129 350 1107 m 60 0 l 60 57 l 643 960 l 60 960 l 60 1017 l 717 1017 l 717 960 l 133 57 l 717 57 l 717 0 l 60 0 z "},"ż":{"ha":650,"x_min":51,"x_max":601,"o":"m 288 850 l 288 932 q 310 954 288 954 l 343 954 q 365 932 365 954 l 365 850 q 343 828 365 828 l 310 828 q 288 850 288 828 m 51 681 l 51 738 l 601 738 l 601 681 l 146 58 l 601 58 l 601 1 l 72 1 l 72 58 l 528 681 l 51 681 z "},"Ž":{"ha":768,"x_min":60,"x_max":717,"o":"m 194 1288 l 243 1288 l 385 1149 l 532 1288 l 582 1288 l 411 1107 l 358 1107 l 194 1288 m 60 0 l 60 57 l 643 960 l 60 960 l 60 1017 l 717 1017 l 717 960 l 133 57 l 717 57 l 717 0 l 60 0 z "},"ž":{"ha":650,"x_min":51,"x_max":601,"o":"m 153 1008 l 201 1008 l 343 869 l 490 1008 l 540 1008 l 369 828 l 317 828 l 153 1008 m 51 681 l 51 738 l 601 738 l 601 681 l 146 58 l 601 58 l 601 1 l 72 1 l 72 58 l 528 681 l 51 681 z "},"ƒ":{"ha":829,"x_min":35,"x_max":796,"o":"m 151 -226 q 256 -165 217 -226 q 310 -40 296 -97 q 340 122 329 50 l 411 574 l 269 574 l 279 632 l 421 632 l 432 703 q 501 986 464 913 q 597 1097 544 1072 q 679 1111 629 1111 q 796 1089 729 1111 l 790 1054 l 668 1054 q 526 888 572 1054 q 490 703 513 836 l 479 631 l 678 631 l 668 574 l 469 574 l 399 122 q 333 -150 364 -92 q 292 -217 315 -183 q 151 -283 244 -283 q 79 -275 115 -283 q 35 -261 43 -267 l 40 -226 l 151 -226 z "},"ˆ":{"ha":557,"x_min":86,"x_max":474,"o":"m 86 738 l 263 918 l 314 918 l 474 738 l 424 738 l 288 876 l 136 738 l 86 738 z "},"ˇ":{"ha":557,"x_min":86,"x_max":474,"o":"m 86 918 l 135 918 l 276 779 l 424 918 l 474 918 l 303 738 l 250 738 l 86 918 z "},"˘":{"ha":488,"x_min":86,"x_max":406,"o":"m 86 894 l 121 894 q 157 806 121 842 q 240 771 193 771 q 335 806 299 771 q 371 894 371 840 l 406 894 q 356 778 406 821 q 245 736 307 736 q 135 780 183 736 q 86 894 86 824 z "},"˙":{"ha":249,"x_min":81,"x_max":158,"o":"m 81 793 l 81 875 q 103 897 81 897 l 136 897 q 158 875 158 897 l 158 793 q 136 771 158 771 l 103 771 q 81 793 81 771 z "},"˚":{"ha":453,"x_min":86,"x_max":367,"o":"m 128 777 q 107 798 128 777 q 86 878 86 818 q 128 979 86 938 q 228 1021 169 1021 q 326 979 286 1021 q 367 878 367 938 q 326 777 367 818 q 228 736 286 736 q 128 777 169 736 m 227 985 q 205 985 227 985 q 152 953 183 985 q 121 878 121 922 q 152 803 121 835 q 227 772 183 772 q 301 803 271 772 q 332 878 332 833 q 301 953 332 922 q 227 985 271 985 z "},"˛":{"ha":342,"x_min":82,"x_max":257,"o":"m 226 0 q 128 -128 128 -51 q 149 -172 128 -150 q 257 -210 182 -210 l 257 -251 q 215 -253 243 -253 q 147 -231 188 -253 q 89 -168 106 -208 q 82 -131 82 -153 q 97 -81 82 -108 q 197 0 124 -32 l 226 0 z "},"˜":{"ha":640,"x_min":86,"x_max":556,"o":"m 239 878 q 328 835 271 876 q 401 794 386 794 q 430 798 417 794 q 453 806 443 801 q 477 818 463 810 q 497 831 492 826 q 539 860 526 854 l 556 833 q 507 790 522 803 q 461 763 492 778 q 400 748 431 747 q 315 790 369 749 q 239 831 260 831 q 199 824 218 831 q 168 812 179 818 q 134 790 157 806 q 100 768 111 775 l 86 794 q 138 836 119 822 q 239 878 189 878 z "},"˝":{"ha":494,"x_min":35,"x_max":456,"o":"m 35 738 l 196 922 l 264 922 l 79 738 l 35 738 m 225 738 l 386 922 l 456 922 l 271 738 l 225 738 z "},"̸":{"ha":908,"x_min":119,"x_max":790,"o":"m 119 225 l 119 792 q 187 958 119 900 q 358 1017 254 1017 l 558 1017 q 734 955 678 1017 q 790 792 790 893 l 790 225 q 558 0 790 0 l 358 0 q 187 54 254 0 q 119 225 119 108 m 176 225 q 201 129 176 167 l 669 924 q 558 960 633 960 l 358 960 q 224 915 272 960 q 176 792 176 869 l 176 225 m 358 57 l 558 57 q 733 225 733 57 l 733 792 q 706 900 733 860 l 236 97 q 358 57 278 57 z "},"Ω":{"ha":1094,"x_min":110,"x_max":983,"o":"m 116 418 q 113 443 116 418 q 110 539 110 468 q 120 672 110 610 q 160 802 131 735 q 235 917 189 869 q 363 996 282 965 q 547 1026 443 1026 q 976 532 976 1026 q 750 57 976 215 l 983 43 l 983 0 l 667 0 l 667 58 q 863 267 806 150 q 919 535 919 385 q 847 836 919 718 q 547 969 767 969 q 167 528 167 969 q 219 276 167 375 q 424 58 272 176 l 424 0 l 118 0 l 118 43 l 349 58 q 144 303 188 175 q 116 418 122 368 z "},"π":{"ha":854,"x_min":35,"x_max":819,"o":"m 35 681 l 35 738 l 753 738 l 753 681 l 574 681 l 574 231 q 601 92 574 133 q 692 51 629 51 l 819 51 l 819 18 q 692 -7 738 -7 q 559 46 601 -7 q 517 231 517 99 l 517 681 l 211 681 l 211 0 l 154 0 l 154 681 l 35 681 z "},"Ḃ":{"ha":829,"x_min":136,"x_max":771,"o":"m 400 1128 l 400 1210 q 422 1232 400 1232 l 456 1232 q 478 1210 478 1232 l 478 1128 q 456 1106 478 1106 l 422 1106 q 400 1128 400 1106 m 136 0 l 136 1017 l 501 1017 q 704 946 643 1017 q 765 772 765 875 q 720 607 765 669 q 604 532 675 544 q 717 454 663 518 q 771 283 771 390 q 717 89 771 167 q 501 0 654 0 l 136 0 m 194 58 l 501 58 q 714 286 714 58 q 654 440 714 378 q 506 503 594 503 q 501 503 503 503 l 194 503 l 194 58 m 194 561 l 501 561 q 650 614 594 561 q 708 769 708 667 q 501 960 708 960 l 194 960 l 194 561 z "},"ḃ":{"ha":767,"x_min":93,"x_max":682,"o":"m 93 1200 l 93 1282 q 115 1304 93 1304 l 149 1304 q 171 1282 171 1304 l 171 1200 q 149 1178 171 1178 l 115 1178 q 93 1200 93 1178 m 103 0 l 103 1090 l 157 1090 l 157 693 q 299 733 219 718 q 431 749 379 749 q 682 365 682 749 q 632 117 682 225 q 554 25 606 58 q 434 -8 503 -8 q 278 24 365 -8 q 158 82 190 56 l 139 0 l 103 0 m 431 49 q 571 128 517 49 q 625 378 625 207 q 573 621 625 550 q 431 692 521 692 q 158 651 313 692 l 158 121 q 431 49 311 49 z "},"Ḋ":{"ha":925,"x_min":136,"x_max":857,"o":"m 424 1132 l 424 1214 q 446 1236 424 1236 l 479 1236 q 501 1214 501 1236 l 501 1132 q 479 1110 501 1110 l 446 1110 q 424 1132 424 1110 m 136 0 l 136 1017 l 497 1017 q 655 983 588 1017 q 760 897 722 949 q 819 774 797 846 q 857 535 857 657 q 837 327 857 413 q 776 167 817 242 q 663 46 735 92 q 497 0 590 0 l 136 0 m 193 58 l 497 58 q 669 128 599 58 q 800 506 800 256 q 497 960 800 960 l 193 960 l 193 58 z "},"ḋ":{"ha":767,"x_min":86,"x_max":676,"o":"m 599 1197 l 599 1279 q 621 1301 599 1301 l 654 1301 q 676 1279 676 1301 l 676 1197 q 654 1175 676 1175 l 621 1175 q 599 1197 599 1175 m 86 365 q 338 749 86 749 q 469 733 389 749 q 611 693 549 718 l 611 1090 l 665 1090 l 665 0 l 628 0 l 610 82 q 490 24 578 56 q 334 -8 403 -8 q 214 25 265 -8 q 136 117 163 58 q 86 365 86 225 m 338 692 q 194 622 246 692 q 143 377 143 551 q 197 126 143 203 q 338 49 250 49 q 610 121 457 49 l 610 651 q 338 692 456 692 z "},"Ḟ":{"ha":800,"x_min":136,"x_max":733,"o":"m 390 1154 l 390 1236 q 413 1258 390 1258 l 446 1258 q 468 1236 468 1258 l 468 1154 q 446 1132 468 1132 l 413 1132 q 390 1154 390 1132 m 136 0 l 136 836 q 185 974 136 932 q 303 1017 233 1017 q 311 1017 307 1017 l 733 1000 l 733 960 l 311 960 q 193 836 193 960 l 193 533 l 678 524 l 678 483 l 193 474 l 193 0 l 136 0 z "},"ḟ":{"ha":540,"x_min":35,"x_max":507,"o":"m 306 1207 l 306 1289 q 328 1311 306 1311 l 361 1311 q 383 1289 383 1311 l 383 1207 q 361 1185 383 1185 l 328 1185 q 306 1207 306 1185 m 35 681 l 35 721 l 160 738 l 160 875 q 192 1039 160 990 q 303 1092 229 1092 q 507 1071 438 1092 l 507 1035 l 318 1036 q 235 997 254 1036 q 217 875 217 958 l 217 738 l 450 738 l 450 681 l 217 681 l 217 0 l 160 0 l 160 681 l 35 681 z "},"Ṁ":{"ha":1108,"x_min":94,"x_max":1026,"o":"m 518 1129 l 518 1211 q 540 1233 518 1233 l 574 1233 q 596 1211 596 1233 l 596 1129 q 574 1107 596 1107 l 540 1107 q 518 1129 518 1107 m 94 0 l 190 1017 l 272 1017 l 560 96 l 840 1017 l 922 1017 l 1026 0 l 969 0 l 874 926 l 590 0 l 529 0 l 240 926 l 151 0 l 94 0 z "},"ṁ":{"ha":1276,"x_min":103,"x_max":1193,"o":"m 607 854 l 607 936 q 629 958 607 958 l 663 958 q 685 936 685 958 l 685 854 q 663 832 685 832 l 629 832 q 607 854 607 832 m 103 0 l 103 738 l 140 738 l 160 650 q 447 749 317 749 q 568 718 515 749 q 647 636 621 688 q 795 715 707 682 q 976 749 883 749 q 1131 681 1068 749 q 1193 513 1193 613 l 1193 0 l 1136 0 l 1136 513 q 1090 640 1136 589 q 965 692 1043 692 q 660 601 815 692 q 675 513 675 567 l 675 0 l 618 0 l 618 513 q 572 640 618 589 q 445 692 525 692 q 306 673 365 692 q 160 610 246 654 l 160 0 l 103 0 z "},"Ṗ":{"ha":808,"x_min":103,"x_max":742,"o":"m 376 1169 l 376 1251 q 399 1274 376 1274 l 432 1274 q 454 1251 454 1274 l 454 1169 q 432 1147 454 1147 l 399 1147 q 376 1169 376 1147 m 103 0 l 103 1017 l 497 1017 q 660 969 590 1017 q 742 733 742 911 q 725 593 742 651 q 686 505 708 535 q 626 458 664 475 q 563 439 589 442 q 495 436 536 436 q 310 444 454 436 q 160 456 165 453 l 160 0 l 103 0 m 160 494 l 497 494 q 634 542 585 494 q 683 726 683 590 q 683 733 683 729 q 621 922 683 876 q 497 958 572 958 l 160 958 l 160 494 z "},"ṗ":{"ha":767,"x_min":103,"x_max":682,"o":"m 363 857 l 363 939 q 385 961 363 961 l 418 961 q 440 939 440 961 l 440 857 q 418 835 440 835 l 385 835 q 363 857 363 835 m 103 -374 l 103 738 l 139 738 l 158 656 q 278 714 190 682 q 434 746 365 746 q 554 713 503 746 q 632 622 606 679 q 682 372 682 513 q 431 -11 682 -11 q 300 4 379 -11 q 158 44 221 19 l 158 -374 l 103 -374 m 431 46 q 573 117 521 46 q 625 359 625 188 q 571 610 625 531 q 431 689 517 689 q 158 617 311 689 l 158 86 q 431 46 313 46 z "},"Ṡ":{"ha":813,"x_min":111,"x_max":744,"o":"m 392 1136 l 392 1218 q 414 1240 392 1240 l 447 1240 q 469 1218 469 1240 l 469 1136 q 447 1114 469 1114 l 414 1114 q 392 1136 392 1114 m 111 686 l 111 778 q 181 972 111 918 q 383 1025 251 1025 q 703 996 515 1025 l 703 956 l 382 968 q 363 968 372 968 q 219 929 271 968 q 168 778 168 890 l 168 686 q 213 558 168 589 q 351 528 257 528 l 522 528 q 697 469 649 528 q 744 311 744 411 l 744 217 q 658 28 744 76 q 472 -11 586 -11 q 301 -3 418 -11 q 139 14 185 6 l 139 57 q 387 46 258 46 q 549 52 515 46 q 617 75 583 58 q 688 217 688 111 l 688 311 q 649 431 688 392 q 522 469 611 469 l 354 469 q 150 538 199 469 q 119 604 126 571 q 111 686 111 638 z "},"ṡ":{"ha":700,"x_min":68,"x_max":632,"o":"m 325 856 l 325 938 q 347 960 325 960 l 381 960 q 403 938 403 960 l 403 856 q 381 833 403 833 l 347 833 q 325 856 325 833 m 68 501 l 68 565 q 113 699 68 654 q 260 744 157 744 q 594 729 436 744 l 594 689 l 260 689 q 154 660 183 689 q 125 565 125 631 l 125 501 q 161 410 125 426 q 201 398 182 400 q 260 396 219 396 l 451 396 q 583 351 535 396 q 632 229 632 307 l 632 161 q 575 19 632 53 q 465 -7 526 -7 q 272 0 403 -7 q 99 11 140 7 l 99 50 l 451 50 q 544 72 519 50 q 575 161 575 101 l 575 229 q 544 308 575 278 q 451 339 513 339 l 260 339 q 110 369 153 339 q 68 501 68 400 z "},"Ṫ":{"ha":826,"x_min":64,"x_max":779,"o":"m 378 1129 l 378 1211 q 400 1233 378 1233 l 433 1233 q 456 1211 456 1233 l 456 1129 q 433 1107 456 1107 l 400 1107 q 378 1129 378 1107 m 64 960 l 64 1017 l 779 1017 l 779 960 l 446 960 l 446 0 l 389 0 l 389 960 l 64 960 z "},"ṫ":{"ha":499,"x_min":35,"x_max":449,"o":"m 156 1051 l 156 1133 q 178 1156 156 1156 l 211 1156 q 233 1133 233 1156 l 233 1051 q 211 1029 233 1029 l 178 1029 q 156 1051 156 1029 m 35 682 l 35 724 l 158 739 l 174 944 l 215 944 l 215 739 l 449 739 l 449 682 l 215 682 l 215 263 q 256 92 215 131 q 290 67 275 74 q 365 49 304 61 q 436 38 426 38 l 436 0 l 333 0 q 202 63 246 0 q 158 263 158 125 l 158 682 l 35 682 z "},"Ẁ":{"ha":1343,"x_min":78,"x_max":1307,"o":"m 490 1289 l 558 1289 l 719 1104 l 675 1104 l 490 1289 m 78 1017 l 139 1017 l 472 83 l 782 1017 l 846 1017 l 719 631 l 931 81 l 1247 1017 l 1307 1017 l 965 0 l 900 0 l 689 540 l 504 0 l 439 0 l 78 1017 z "},"ẁ":{"ha":1090,"x_min":33,"x_max":1057,"o":"m 350 1010 l 418 1010 l 579 825 l 535 825 l 350 1010 m 35 738 l 96 738 l 349 79 l 589 738 l 649 738 l 556 475 l 735 79 l 997 738 l 1057 738 l 767 0 l 707 0 l 528 401 l 381 0 l 319 0 l 35 738 z "},"Ẃ":{"ha":1343,"x_min":78,"x_max":1307,"o":"m 675 1104 l 836 1289 l 904 1289 l 719 1104 l 675 1104 m 78 1017 l 139 1017 l 472 83 l 782 1017 l 846 1017 l 719 631 l 931 81 l 1247 1017 l 1307 1017 l 965 0 l 900 0 l 689 540 l 504 0 l 439 0 l 78 1017 z "},"ẃ":{"ha":1090,"x_min":33,"x_max":1057,"o":"m 535 825 l 696 1010 l 764 1010 l 579 825 l 535 825 m 35 738 l 96 738 l 349 79 l 589 738 l 649 738 l 556 475 l 735 79 l 997 738 l 1057 738 l 767 0 l 707 0 l 528 401 l 381 0 l 319 0 l 35 738 z "},"Ẅ":{"ha":1343,"x_min":78,"x_max":1307,"o":"m 492 1117 q 486 1123 492 1117 q 481 1146 481 1129 q 492 1174 481 1163 q 519 1185 503 1185 q 548 1174 536 1185 q 560 1146 560 1163 q 548 1117 560 1129 q 519 1106 536 1106 q 492 1117 503 1106 m 845 1117 q 839 1123 845 1117 q 833 1146 833 1129 q 845 1174 833 1163 q 874 1185 857 1185 q 902 1174 890 1185 q 914 1146 914 1163 q 902 1117 914 1129 q 874 1106 890 1106 q 845 1117 857 1106 m 78 1017 l 139 1017 l 472 83 l 782 1017 l 846 1017 l 719 631 l 931 81 l 1247 1017 l 1307 1017 l 965 0 l 900 0 l 689 540 l 504 0 l 439 0 l 78 1017 z "},"ẅ":{"ha":1090,"x_min":33,"x_max":1057,"o":"m 351 838 q 346 844 351 838 q 340 867 340 850 q 351 894 340 883 q 379 906 363 906 q 408 894 396 906 q 419 867 419 883 q 408 838 419 850 q 379 826 396 826 q 351 838 363 826 m 705 838 q 699 844 705 838 q 693 867 693 850 q 705 894 693 883 q 733 906 717 906 q 762 894 750 906 q 774 867 774 883 q 762 838 774 850 q 733 826 750 826 q 705 838 717 826 m 35 738 l 96 738 l 349 79 l 589 738 l 649 738 l 556 475 l 735 79 l 997 738 l 1057 738 l 767 0 l 707 0 l 528 401 l 381 0 l 319 0 l 35 738 z "},"Ỳ":{"ha":864,"x_min":78,"x_max":828,"o":"m 246 1292 l 314 1292 l 475 1107 l 431 1107 l 246 1292 m 467 0 l 410 0 l 410 361 l 78 1017 l 140 1017 l 439 431 l 764 1017 l 828 1017 l 467 361 l 467 0 z "},"ỳ":{"ha":746,"x_min":36,"x_max":708,"o":"m 169 1013 l 238 1013 l 399 828 l 354 828 l 169 1013 m 36 738 l 97 738 l 294 161 q 403 58 331 61 l 418 60 l 647 738 l 708 738 l 385 -233 l 307 -375 l 274 -375 l 399 0 q 235 153 281 6 l 36 738 z "},"–":{"ha":725,"x_min":35,"x_max":692,"o":"m 35 369 l 35 428 l 692 428 l 692 369 l 35 369 z "},"—":{"ha":1035,"x_min":35,"x_max":1001,"o":"m 35 372 l 35 431 l 1001 431 l 1001 372 l 35 372 z "},"‘":{"ha":282,"x_min":97,"x_max":186,"o":"m 97 803 l 97 944 q 117 1004 97 986 q 156 1022 136 1022 l 160 1022 l 181 1019 l 181 997 q 178 997 179 997 q 147 963 147 997 l 147 917 l 160 917 q 186 889 186 917 l 186 803 q 160 774 186 774 l 122 774 q 97 803 97 774 z "},"’":{"ha":282,"x_min":97,"x_max":188,"o":"m 97 906 l 97 993 q 125 1021 97 1021 l 161 1021 q 188 993 188 1021 l 186 850 q 167 790 186 808 q 128 772 147 772 l 124 772 l 103 775 l 103 799 q 106 799 104 799 q 136 832 136 799 l 136 879 l 124 879 q 97 906 97 879 z "},"‚":{"ha":282,"x_min":97,"x_max":186,"o":"m 97 26 l 97 113 q 124 142 97 142 l 161 142 q 186 113 186 142 l 186 -31 q 167 -90 186 -72 q 128 -108 147 -108 l 124 -108 l 103 -106 l 103 -82 q 106 -82 104 -82 q 136 -49 136 -82 l 136 0 l 124 0 q 97 26 97 0 z "},"“":{"ha":431,"x_min":89,"x_max":343,"o":"m 253 803 l 253 944 q 272 1004 253 986 q 303 1022 292 1022 q 317 1022 314 1022 l 338 1019 l 338 997 q 335 997 336 997 q 304 963 304 997 l 304 917 l 317 917 q 343 889 343 917 l 343 803 q 317 774 343 774 l 281 774 q 253 803 253 774 m 89 803 l 89 944 q 108 1004 89 986 q 147 1022 128 1022 l 151 1022 l 172 1019 l 172 997 q 169 997 171 997 q 139 963 139 997 l 139 917 l 150 917 q 169 909 161 917 q 178 889 178 901 l 178 803 q 150 774 178 774 l 114 774 q 89 803 89 774 z "},"”":{"ha":429,"x_min":89,"x_max":343,"o":"m 89 906 l 89 993 q 115 1021 89 1021 l 151 1021 q 178 993 178 1021 l 178 850 q 158 790 178 808 q 119 772 139 772 l 115 772 l 94 775 l 94 799 q 97 799 96 799 q 126 832 126 799 l 126 879 l 115 879 q 89 906 89 879 m 253 906 l 253 993 q 281 1021 253 1021 l 318 1021 q 343 993 343 1021 l 343 850 q 323 790 343 808 q 292 772 303 772 q 281 772 282 772 l 258 775 l 258 799 q 261 799 260 799 q 293 832 293 799 l 293 879 l 281 879 q 253 906 253 879 z "},"„":{"ha":429,"x_min":89,"x_max":343,"o":"m 89 28 l 89 114 q 115 143 89 143 l 151 143 q 178 114 178 143 l 178 -28 q 158 -87 178 -69 q 119 -106 139 -106 l 115 -106 l 94 -103 l 94 -81 q 97 -81 96 -81 q 126 -46 126 -81 l 126 1 l 115 1 q 89 28 89 1 m 253 28 l 253 114 q 281 143 253 143 l 318 143 q 343 114 343 143 l 343 -28 q 323 -87 343 -69 q 292 -106 303 -106 q 281 -106 282 -106 l 258 -103 l 258 -81 q 261 -81 260 -81 q 293 -46 293 -81 l 293 1 l 281 1 q 253 28 253 1 z "},"†":{"ha":546,"x_min":35,"x_max":513,"o":"m 35 700 l 35 740 l 243 750 l 251 1069 l 294 1069 l 303 750 l 513 740 l 513 700 l 303 690 l 293 -100 l 250 -100 l 243 690 l 35 700 z "},"‡":{"ha":579,"x_min":35,"x_max":513,"o":"m 35 260 l 35 300 l 246 310 l 243 690 l 35 700 l 35 740 l 243 750 l 253 1069 l 294 1069 l 303 750 l 513 740 l 513 700 l 303 690 l 299 310 l 513 300 l 513 260 l 297 250 l 293 -100 l 250 -100 l 247 250 l 35 260 z "},"•":{"ha":440,"x_min":146,"x_max":297,"o":"m 146 497 l 146 561 q 192 611 146 611 l 249 611 q 297 561 297 611 l 297 497 q 249 453 297 453 l 192 453 q 146 497 146 453 z "},"…":{"ha":1125,"x_min":139,"x_max":975,"o":"m 894 22 l 894 106 q 918 128 894 128 l 953 128 q 975 106 975 128 l 975 22 q 953 0 975 0 l 918 0 q 901 6 908 0 q 894 22 894 13 m 517 22 l 517 106 q 540 128 517 128 l 575 128 q 597 106 597 128 l 597 22 q 575 0 597 0 l 540 0 q 524 6 531 0 q 517 22 517 13 m 139 22 l 139 106 q 163 128 139 128 l 197 128 q 219 106 219 128 l 219 22 q 197 0 219 0 l 163 0 q 146 6 153 0 q 139 22 139 13 z "},"‰":{"ha":1915,"x_min":72,"x_max":1844,"o":"m 72 658 l 72 843 q 111 976 72 935 q 251 1017 150 1017 l 392 1017 q 529 976 490 1017 q 568 843 568 935 l 568 658 q 529 526 568 567 q 389 485 490 485 l 249 485 q 111 526 150 485 q 72 658 72 567 m 117 658 q 147 557 117 585 q 249 529 176 529 l 389 529 q 494 556 465 529 q 524 658 524 583 l 524 843 q 495 944 524 915 q 392 972 467 972 l 251 972 q 146 946 175 972 q 117 843 117 919 l 117 658 m 329 0 l 938 1017 l 990 1017 l 382 0 l 329 0 m 758 178 l 758 363 q 797 495 758 454 q 938 536 836 536 l 1078 536 q 1215 495 1176 536 q 1254 363 1254 454 l 1254 178 q 1215 45 1254 86 q 1075 4 1176 4 l 935 4 q 797 45 836 4 q 758 178 758 86 m 803 178 q 833 76 803 104 q 935 49 863 49 l 1075 49 q 1181 76 1151 49 q 1210 178 1210 103 l 1210 363 q 1181 463 1210 435 q 1078 492 1153 492 l 938 492 q 832 465 861 492 q 803 363 803 439 l 803 178 m 1349 178 l 1349 363 q 1388 495 1349 454 q 1528 536 1426 536 l 1668 536 q 1806 495 1767 536 q 1844 363 1844 454 l 1844 178 q 1806 45 1844 86 q 1665 4 1767 4 l 1525 4 q 1388 45 1426 4 q 1349 178 1349 86 m 1393 178 q 1423 76 1393 104 q 1525 49 1453 49 l 1665 49 q 1771 76 1742 49 q 1800 178 1800 103 l 1800 363 q 1772 463 1800 435 q 1668 492 1743 492 l 1528 492 q 1422 465 1451 492 q 1393 363 1393 439 l 1393 178 z "},"‹":{"ha":493,"x_min":86,"x_max":419,"o":"m 86 492 l 372 774 l 411 735 l 164 492 l 419 243 l 378 203 l 86 492 z "},"›":{"ha":493,"x_min":86,"x_max":419,"o":"m 86 243 l 339 492 l 92 735 l 133 774 l 419 492 l 125 203 l 86 243 z "},"⁄":{"ha":257,"x_min":-154,"x_max":411,"o":"m -154 0 l 364 1051 l 411 1051 l -107 0 l -154 0 z "},"⁰":{"ha":688,"x_min":103,"x_max":585,"o":"m 103 669 l 103 1024 q 144 1142 103 1107 q 265 1176 186 1176 l 428 1176 q 585 1024 585 1176 l 585 669 q 545 547 585 578 q 428 517 506 517 l 265 517 q 117 588 146 517 q 103 669 103 619 m 149 675 q 176 585 149 608 q 271 563 203 563 l 422 563 q 517 588 494 563 q 539 675 539 613 l 539 1018 q 513 1103 539 1076 q 422 1131 488 1131 l 271 1131 q 176 1105 203 1131 q 149 1018 149 1079 l 149 675 z "},"⁴":{"ha":571,"x_min":28,"x_max":547,"o":"m 419 775 l 419 943 l 442 1010 l 465 1010 l 465 775 l 547 775 l 547 743 l 465 726 l 465 518 l 419 518 l 419 726 l 42 726 l 28 747 l 300 1176 l 351 1176 l 97 775 l 419 775 z "},"⁵":{"ha":611,"x_min":94,"x_max":544,"o":"m 300 908 l 393 907 q 508 870 472 907 q 544 758 544 833 l 544 669 q 503 549 544 588 q 393 511 463 511 q 94 524 168 511 l 94 558 l 388 558 q 499 675 499 558 l 499 753 q 450 853 499 835 q 390 861 426 861 l 235 861 q 165 835 194 861 q 135 771 136 808 l 94 771 l 115 1176 l 525 1176 l 525 1131 l 157 1131 l 142 853 q 225 903 165 893 q 300 908 271 908 z "},"⁶":{"ha":640,"x_min":92,"x_max":571,"o":"m 167 1147 q 211 1175 189 1168 q 271 1183 233 1182 q 384 1185 308 1185 q 549 1172 460 1185 l 549 1138 l 265 1138 q 164 1056 190 1138 q 139 871 139 982 q 425 885 267 885 q 540 854 510 885 q 571 764 571 824 l 571 663 q 531 553 571 590 q 425 517 492 517 l 276 517 q 204 531 235 517 q 93 844 93 578 q 167 1147 93 1083 m 139 839 q 275 563 139 563 l 422 563 q 525 667 525 563 l 525 761 q 501 824 525 810 q 422 839 476 839 l 139 839 z "},"⁷":{"ha":519,"x_min":25,"x_max":493,"o":"m 25 1133 l 25 1179 l 476 1179 l 493 1151 l 239 518 l 190 518 l 436 1133 l 25 1133 z "},"⁸":{"ha":688,"x_min":113,"x_max":576,"o":"m 113 660 l 113 740 q 142 813 113 786 q 206 844 172 840 q 135 890 157 856 q 113 965 113 924 l 113 1021 q 155 1147 113 1111 q 274 1183 197 1183 l 426 1183 q 539 1146 501 1183 q 576 1021 576 1108 l 576 965 q 555 896 576 929 q 489 857 533 863 q 550 816 524 851 q 576 740 576 781 l 576 660 q 431 515 576 515 l 264 515 q 144 554 176 515 q 113 660 113 593 m 158 665 q 183 585 158 608 q 269 561 207 561 l 425 561 q 504 585 478 561 q 531 665 531 610 l 531 735 q 501 804 531 781 q 436 828 472 828 l 267 828 q 188 803 218 828 q 158 736 158 778 l 158 665 m 158 971 q 187 898 158 922 q 258 874 215 874 l 431 874 q 503 901 475 874 q 531 971 531 928 l 531 1015 q 503 1112 531 1086 q 414 1138 476 1138 l 279 1138 q 187 1111 215 1138 q 158 1015 158 1085 l 158 971 z "},"⁹":{"ha":640,"x_min":78,"x_max":557,"o":"m 78 938 l 78 1039 q 117 1148 78 1111 q 224 1185 157 1185 l 372 1185 q 444 1172 414 1185 q 556 857 556 1124 q 503 576 556 644 q 451 532 478 544 q 297 515 417 515 q 100 529 176 515 l 100 564 l 382 564 q 481 636 454 564 q 510 831 508 708 q 224 818 394 818 q 108 848 139 818 q 78 938 78 878 m 124 940 q 148 877 124 892 q 226 863 172 863 l 510 863 q 375 1139 510 1139 l 226 1139 q 124 1035 124 1139 l 124 940 z "},"₀":{"ha":688,"x_min":103,"x_max":585,"o":"m 103 -125 l 103 229 q 144 347 103 313 q 265 382 186 382 l 428 382 q 585 229 585 382 l 585 -125 q 545 -247 585 -217 q 428 -278 506 -278 l 265 -278 q 117 -207 146 -278 q 103 -125 103 -175 m 149 -119 q 176 -209 149 -186 q 271 -232 203 -232 l 422 -232 q 517 -207 494 -232 q 539 -119 539 -182 l 539 224 q 513 309 539 282 q 422 336 488 336 l 271 336 q 176 310 203 336 q 149 224 149 285 l 149 -119 z "},"₁":{"ha":361,"x_min":28,"x_max":251,"o":"m 251 385 l 251 -276 l 206 -276 l 206 336 l 28 276 l 28 308 l 206 385 l 251 385 z "},"₂":{"ha":558,"x_min":51,"x_max":489,"o":"m 54 347 q 51 356 51 347 q 54 379 51 364 q 308 393 169 393 q 489 204 489 393 q 450 85 489 147 q 371 -24 410 17 q 309 -87 332 -64 q 256 -136 286 -110 q 208 -178 225 -162 q 142 -231 147 -228 l 488 -231 l 488 -276 l 58 -276 l 58 -236 q 107 -197 61 -233 q 176 -142 153 -161 q 247 -81 200 -122 q 321 -10 293 -40 q 381 60 349 21 q 440 203 440 135 q 410 310 440 272 q 297 347 379 347 l 54 347 z "},"₃":{"ha":592,"x_min":51,"x_max":490,"o":"m 51 340 l 51 371 q 322 386 110 386 q 449 342 407 386 q 490 231 490 299 l 490 182 q 457 98 490 132 q 392 57 424 64 q 458 10 425 46 q 490 -78 490 -25 l 490 -117 q 451 -240 490 -197 q 315 -282 413 -282 q 57 -264 122 -282 l 57 -236 l 304 -236 q 413 -209 381 -236 q 444 -111 444 -182 l 444 -79 q 404 6 444 -24 q 310 36 364 35 l 113 42 l 113 74 l 310 81 q 408 111 369 83 q 446 186 446 139 l 446 229 q 317 340 446 340 l 51 340 z "},"₄":{"ha":571,"x_min":28,"x_max":547,"o":"m 419 -19 l 419 149 l 442 215 l 465 215 l 465 -19 l 547 -19 l 547 -51 l 465 -68 l 465 -276 l 419 -276 l 419 -68 l 42 -68 l 28 -47 l 300 382 l 351 382 l 97 -19 l 419 -19 z "},"₅":{"ha":611,"x_min":94,"x_max":544,"o":"m 300 114 l 393 113 q 508 76 472 113 q 544 -36 544 39 l 544 -125 q 503 -245 544 -207 q 393 -283 463 -283 q 94 -271 168 -283 l 94 -236 l 388 -236 q 499 -119 499 -236 l 499 -42 q 450 58 499 40 q 390 67 426 67 l 235 67 q 165 40 194 67 q 135 -24 136 14 l 94 -24 l 115 382 l 525 382 l 525 336 l 157 336 l 142 58 q 225 108 165 99 q 300 114 271 114 z "},"₆":{"ha":640,"x_min":92,"x_max":571,"o":"m 167 353 q 211 381 189 374 q 274 390 233 388 q 391 392 314 392 q 549 378 468 392 l 549 343 l 265 343 q 164 261 190 343 q 139 76 139 188 q 425 90 267 90 q 540 60 510 90 q 571 -31 571 29 l 571 -132 q 531 -241 571 -204 q 425 -278 492 -278 l 276 -278 q 204 -264 235 -278 q 93 50 93 -217 q 167 353 93 289 m 139 44 q 275 -232 139 -232 l 422 -232 q 525 -128 525 -232 l 525 -33 q 501 30 525 15 q 422 44 476 44 l 139 44 z "},"₇":{"ha":519,"x_min":25,"x_max":493,"o":"m 25 339 l 25 385 l 476 385 l 493 357 l 239 -276 l 190 -276 l 436 339 l 25 339 z "},"₈":{"ha":688,"x_min":113,"x_max":576,"o":"m 113 -54 q 142 19 113 -8 q 206 50 172 46 q 135 95 157 61 q 113 171 113 129 l 113 226 q 155 353 113 317 q 274 389 197 389 l 426 389 q 539 351 501 389 q 576 226 576 314 l 576 171 q 555 101 576 135 q 489 63 533 68 q 550 22 524 57 q 576 -54 576 -14 l 576 -135 q 431 -279 576 -279 l 264 -279 q 144 -240 176 -279 q 113 -135 113 -201 l 113 -54 m 158 -58 l 158 -129 q 183 -210 158 -186 q 269 -233 207 -233 l 425 -233 q 504 -209 478 -233 q 531 -129 531 -185 l 531 -60 q 501 10 531 -14 q 436 33 472 33 l 267 33 q 188 8 218 33 q 158 -58 158 -17 m 158 176 q 187 103 158 128 q 258 79 215 79 l 431 79 q 503 106 475 79 q 531 176 531 133 l 531 221 q 503 317 531 292 q 414 343 476 343 l 279 343 q 187 317 215 343 q 158 221 158 290 l 158 176 z "},"₉":{"ha":640,"x_min":78,"x_max":557,"o":"m 78 143 l 78 244 q 117 353 78 317 q 224 390 157 390 l 372 390 q 444 378 414 390 q 556 63 556 329 q 503 -218 556 -150 q 451 -262 478 -250 q 382 -276 425 -275 q 262 -278 339 -278 q 100 -265 185 -278 l 100 -231 l 382 -231 q 481 -158 454 -231 q 510 36 508 -86 q 224 24 394 24 q 108 53 139 24 q 78 143 78 83 m 124 146 q 148 83 124 97 q 226 68 172 68 l 510 68 q 375 344 510 344 l 226 344 q 124 240 124 344 l 124 146 z "},"€":{"ha":833,"x_min":35,"x_max":800,"o":"m 274 972 q 291 984 274 972 q 362 1012 308 996 q 519 1028 415 1028 q 794 996 622 1028 l 794 954 q 736 958 772 956 q 513 971 614 971 q 361 952 411 971 q 283 905 311 933 q 239 831 254 876 q 214 635 214 760 l 585 628 l 585 594 l 214 588 l 214 411 l 585 404 l 585 369 q 522 369 561 369 q 401 367 483 368 q 266 365 319 365 q 213 360 213 364 q 214 353 214 357 q 285 134 214 218 q 482 49 357 50 q 531 49 496 49 q 753 63 632 49 l 800 68 l 800 28 q 482 -8 654 -8 q 335 24 396 -8 q 240 96 275 57 q 181 204 206 135 q 157 363 157 274 l 35 369 l 35 404 l 157 411 l 157 588 l 35 594 l 35 626 l 157 635 q 157 660 157 639 q 158 703 157 681 q 165 769 158 725 q 182 843 171 813 q 217 911 193 874 q 274 972 240 949 z "},"ℓ":{"ha":564,"x_min":51,"x_max":460,"o":"m 458 840 q 188 408 458 653 l 188 261 q 238 76 188 110 q 330 49 258 63 q 408 36 401 36 l 408 -1 l 301 -1 q 172 59 213 -1 q 131 261 131 119 l 131 361 q 71 318 108 336 l 51 344 q 131 422 86 376 l 131 878 q 177 986 132 946 q 295 1026 222 1026 q 413 971 368 1026 q 458 840 458 915 m 394 799 q 395 809 394 799 q 397 843 397 819 q 390 897 397 867 q 349 949 382 928 q 283 969 315 969 q 216 942 244 969 q 188 869 188 915 l 188 486 q 215 517 194 494 q 247 552 236 540 q 277 588 257 564 q 308 628 297 613 q 336 668 319 643 q 362 711 353 693 q 381 753 371 729 q 394 799 390 778 z "},"№":{"ha":1510,"x_min":122,"x_max":1442,"o":"m 122 0 l 122 904 q 169 1003 122 971 q 228 1025 201 1025 q 351 944 321 1025 l 692 92 q 747 50 708 50 q 786 66 765 50 q 808 119 807 82 l 808 789 q 996 1021 808 1021 l 1258 1021 q 1401 958 1361 1018 q 1442 774 1442 899 q 1401 589 1442 649 q 1258 529 1360 529 l 1167 529 q 1022 599 1060 529 q 983 854 983 669 l 1029 854 q 1089 597 1029 642 q 1169 575 1117 575 l 1254 575 q 1361 619 1326 575 q 1396 749 1396 664 q 1385 877 1396 835 q 1352 939 1375 919 q 1307 965 1329 958 q 1250 971 1285 971 l 993 971 q 865 792 865 971 l 865 110 q 826 20 865 50 q 747 -10 786 -10 q 639 68 668 -10 l 299 921 q 240 967 281 967 q 201 949 221 967 q 181 896 181 932 l 181 0 l 122 0 z "},"™":{"ha":971,"x_min":35,"x_max":947,"o":"m 35 974 l 35 1017 l 394 1017 l 394 974 l 236 974 l 236 532 l 193 532 l 193 974 l 35 974 m 449 532 l 486 1017 l 525 1017 l 703 606 l 863 1017 l 904 1017 l 947 532 l 906 532 l 871 918 l 721 532 l 686 532 l 519 919 l 490 532 l 449 532 z "},"℮":{"ha":1040,"x_min":103,"x_max":939,"o":"m 939 358 q 261 358 600 358 q 257 343 257 358 l 257 158 q 335 76 257 124 q 506 29 414 29 q 669 62 597 29 q 786 146 740 94 l 864 146 q 705 31 783 61 q 521 0 626 0 q 216 105 329 0 q 103 368 103 210 q 219 636 103 526 q 514 740 336 740 q 811 648 692 740 q 939 358 931 556 m 257 394 q 269 382 257 382 l 765 382 q 775 382 769 382 q 783 392 783 388 l 783 576 q 696 667 783 621 q 529 714 608 714 q 386 688 450 714 q 290 632 322 661 q 257 585 257 603 l 257 394 z "},"∂":{"ha":922,"x_min":97,"x_max":783,"o":"m 97 315 q 449 622 97 622 q 726 546 619 622 q 652 867 722 764 q 415 971 582 971 q 161 896 282 971 l 144 929 q 283 1005 226 982 q 419 1028 339 1028 q 698 901 613 1028 q 783 538 783 775 q 636 75 783 222 q 421 -7 554 -7 q 192 76 288 -7 q 97 315 97 158 m 449 567 q 227 506 300 567 q 154 317 154 446 q 234 119 154 188 q 431 50 314 50 q 556 85 501 50 q 642 172 611 121 q 694 289 674 224 q 726 506 726 396 q 605 547 688 528 q 449 567 522 567 z "},"∆":{"ha":1018,"x_min":35,"x_max":985,"o":"m 35 0 l 490 1017 l 544 1017 l 985 0 l 35 0 m 124 57 l 897 57 l 519 936 l 124 57 z "},"∏":{"ha":843,"x_min":35,"x_max":808,"o":"m 35 960 l 35 1017 l 808 1017 l 808 960 l 688 960 l 688 0 l 631 0 l 631 960 l 211 960 l 211 0 l 154 0 l 154 960 l 35 960 z "},"∑":{"ha":796,"x_min":68,"x_max":763,"o":"m 68 1017 l 763 1017 l 763 960 l 138 960 l 433 375 l 138 -217 l 763 -217 l 763 -278 l 68 -278 l 68 -217 l 365 375 l 68 960 l 68 1017 z "},"−":{"ha":618,"x_min":35,"x_max":585,"o":"m 35 467 l 35 522 l 585 522 l 585 467 l 35 467 z "},"√":{"ha":839,"x_min":35,"x_max":806,"o":"m 35 440 l 35 497 l 192 497 l 381 86 l 749 1111 l 806 1111 l 410 0 l 361 0 l 157 440 l 35 440 z "},"∞":{"ha":1124,"x_min":86,"x_max":1039,"o":"m 95 381 q 91 401 95 381 q 86 474 86 421 q 93 563 86 526 q 119 638 100 600 q 299 714 161 714 q 442 656 371 714 q 561 526 514 599 q 679 655 604 596 q 824 714 754 714 q 940 693 894 714 q 1006 633 985 672 q 1039 474 1039 569 q 933 253 1039 299 q 817 235 890 235 q 674 290 743 235 q 561 426 606 346 q 449 289 517 343 q 308 235 382 235 q 191 253 235 235 q 126 307 147 272 q 95 381 104 342 m 299 657 q 174 615 206 657 q 143 477 143 574 q 178 336 143 381 q 299 292 213 292 q 535 475 419 292 q 420 603 485 550 q 299 657 356 657 m 826 292 q 949 339 917 292 q 982 476 982 386 q 951 611 982 565 q 826 657 921 657 q 701 600 769 657 q 588 475 632 543 q 826 292 697 292 z "},"∫":{"ha":625,"x_min":35,"x_max":592,"o":"m 35 -226 l 165 -226 q 249 -182 226 -226 q 269 -135 261 -157 q 279 -64 276 -112 q 283 122 283 7 l 283 703 q 308 992 283 918 q 386 1097 338 1075 q 447 1111 415 1111 q 497 1110 479 1111 q 529 1107 514 1110 q 550 1103 544 1104 q 592 1090 561 1100 l 592 1054 l 460 1054 q 390 1025 413 1054 q 369 994 378 1010 q 355 950 360 979 q 347 901 350 921 q 342 844 343 882 q 340 783 340 806 l 340 40 q 334 -93 340 -60 q 320 -162 328 -126 q 301 -214 313 -197 q 272 -250 289 -231 q 175 -283 242 -283 q 35 -262 65 -283 l 35 -226 z "},"≈":{"ha":683,"x_min":86,"x_max":600,"o":"m 138 392 q 148 399 138 392 q 190 420 157 406 q 254 435 222 435 q 349 392 286 435 q 435 350 411 350 q 481 358 460 350 q 516 374 503 365 q 551 397 529 382 q 583 418 574 413 l 600 392 q 568 363 578 369 q 545 344 558 356 q 525 329 532 333 q 506 318 518 325 q 483 308 493 311 q 430 300 457 300 q 341 342 403 300 q 255 385 279 385 q 210 378 231 385 q 176 365 189 372 q 138 343 163 358 q 100 321 113 328 l 86 349 q 138 392 119 378 m 138 636 q 148 643 138 636 q 190 665 157 650 q 254 679 222 679 q 349 638 286 679 q 435 596 411 596 q 481 603 460 596 q 516 619 503 611 q 553 642 529 626 l 583 663 l 600 636 q 498 560 529 574 q 435 546 467 546 q 341 588 403 546 q 255 631 279 631 q 210 624 231 631 q 176 611 189 618 q 138 589 163 604 q 100 567 113 574 l 86 593 q 138 636 119 622 z "},"≠":{"ha":661,"x_min":35,"x_max":628,"o":"m 35 294 l 35 354 l 226 354 l 393 628 l 35 628 l 35 688 l 429 688 l 493 792 l 538 792 l 474 688 l 628 688 l 628 628 l 439 628 l 272 354 l 628 354 l 628 294 l 235 294 l 163 175 l 118 175 l 190 294 l 35 294 z "},"≤":{"ha":692,"x_min":86,"x_max":610,"o":"m 86 167 l 86 224 l 610 224 l 610 167 l 86 167 m 86 575 l 86 632 l 578 885 l 578 822 l 160 604 l 578 371 l 578 307 l 86 575 z "},"≥":{"ha":692,"x_min":86,"x_max":610,"o":"m 86 167 l 86 224 l 610 224 l 610 167 l 86 167 m 115 307 l 115 371 l 533 604 l 115 822 l 115 885 l 610 632 l 610 575 l 115 307 z "},"◊":{"ha":738,"x_min":35,"x_max":704,"o":"m 35 518 l 344 1017 l 401 1017 l 704 518 l 401 0 l 344 0 l 35 518 m 101 518 l 374 69 l 639 518 l 374 954 l 101 518 z "},"ﬀ":{"ha":1058,"x_min":35,"x_max":1026,"o":"m 35 681 l 35 718 l 169 738 l 169 861 q 247 1056 169 1013 q 340 1078 285 1078 q 510 1051 396 1078 l 510 1015 l 353 1022 q 344 1022 349 1022 q 256 984 285 1022 q 226 861 226 946 l 226 738 l 679 738 l 679 875 q 711 1039 679 990 q 822 1092 749 1092 q 1026 1064 933 1092 l 1026 1028 l 838 1036 q 831 1036 833 1036 q 755 995 774 1036 q 736 875 736 954 l 736 738 l 968 738 l 968 681 l 735 681 l 735 -1 l 678 -1 l 678 681 l 226 681 l 226 0 l 169 0 l 169 681 l 35 681 z "},"ﬁ":{"ha":831,"x_min":35,"x_max":738,"o":"m 35 676 l 35 715 l 171 733 l 171 811 q 237 1015 171 938 q 424 1092 303 1092 q 679 1058 546 1092 l 679 1022 l 440 1035 q 426 1035 433 1035 q 285 983 342 1035 q 228 811 228 931 l 228 733 l 738 722 l 738 0 l 681 0 l 681 676 l 228 676 l 228 0 l 171 0 l 171 676 l 35 676 z "},"ﬂ":{"ha":999,"x_min":35,"x_max":965,"o":"m 35 681 l 35 721 l 171 738 l 171 811 q 226 1013 171 935 q 399 1092 282 1092 l 744 1092 l 744 265 q 783 96 744 135 q 817 71 804 76 q 893 53 831 65 q 965 40 956 40 l 965 3 l 863 3 q 729 65 771 3 q 688 265 688 126 l 688 1036 l 411 1036 q 228 811 228 1036 l 228 738 l 432 738 l 432 681 l 226 681 l 226 0 l 169 0 l 169 681 l 35 681 z "},"ﬃ":{"ha":1339,"x_min":35,"x_max":1238,"o":"m 35 681 l 35 718 l 169 738 l 169 861 q 247 1056 169 1013 q 340 1078 285 1078 q 510 1051 396 1078 l 510 1015 l 353 1022 q 344 1022 349 1022 q 256 984 285 1022 q 226 861 226 946 l 226 738 l 671 738 l 671 811 q 737 1015 671 938 q 924 1092 803 1092 q 1178 1058 1044 1092 l 1178 1022 l 940 1035 q 926 1035 933 1035 q 785 983 842 1035 q 728 811 728 931 l 728 738 l 1238 726 l 1238 0 l 1181 0 l 1181 681 l 726 681 l 726 0 l 669 0 l 669 681 l 226 681 l 226 0 l 169 0 l 169 681 l 35 681 z "},"ﬄ":{"ha":1494,"x_min":35,"x_max":1461,"o":"m 35 681 l 35 718 l 169 738 l 169 861 q 247 1056 169 1013 q 340 1078 285 1078 q 510 1051 396 1078 l 510 1015 l 353 1022 q 344 1022 349 1022 q 256 984 285 1022 q 226 861 226 946 l 226 738 l 667 738 l 667 811 q 722 1013 667 935 q 894 1090 776 1090 l 1240 1090 l 1240 265 q 1281 96 1240 135 q 1313 71 1300 76 q 1389 53 1326 65 q 1461 40 1451 40 l 1461 3 l 1358 3 q 1225 65 1267 3 q 1183 265 1183 126 l 1183 1038 l 908 1038 q 724 811 724 1038 l 724 738 l 928 738 l 928 681 l 724 681 l 724 0 l 667 0 l 667 681 l 226 681 l 226 0 l 169 0 l 169 681 l 35 681 z "},"ﬆ":{"ha":1196,"x_min":68,"x_max":1151,"o":"m 68 492 l 68 557 q 113 693 68 647 q 260 739 157 739 l 861 739 l 878 944 l 918 944 l 918 739 l 1151 739 l 1151 683 l 918 683 l 918 261 q 957 89 918 125 q 991 65 978 71 q 1066 49 1004 60 q 1135 38 1128 38 l 1135 -1 l 1036 -1 q 903 60 944 -1 q 861 261 861 121 l 861 683 l 260 682 q 154 652 183 682 q 125 557 125 622 l 125 492 q 133 432 125 454 q 162 401 140 410 q 201 390 183 392 q 260 389 218 389 l 451 389 q 584 348 536 389 q 632 233 632 307 l 632 168 q 582 28 632 65 q 467 -10 532 -10 q 272 -3 403 -10 q 99 8 140 4 l 99 47 l 451 47 q 575 168 575 47 l 575 233 q 451 332 575 332 l 260 332 q 110 361 153 332 q 68 492 68 390 z "}}}
